STARTFONT 2.1
FONT -cmvnd-lemon-medium-r-normal--10-110-75-75-m-50-ISO10646-1
SIZE 10 75 75
FONTBOUNDINGBOX 10 12 -2 -3
STARTPROPERTIES 26
FONTNAME_REGISTRY ""
FOUNDRY "cmvnd"
FAMILY_NAME "lemon"
WEIGHT_NAME "medium"
SLANT "r"
SETWIDTH_NAME "normal"
ADD_STYLE_NAME ""
PIXEL_SIZE 10
POINT_SIZE 110
RESOLUTION_X 75
RESOLUTION_Y 75
SPACING "m"
AVERAGE_WIDTH 50
CHARSET_REGISTRY "ISO10646"
CHARSET_ENCODING "1"
COPYRIGHT "artwiz, fixed by aleczapka, improved by cmvnd"
FACE_NAME "lemon"
WEIGHT 10
X_HEIGHT 6
QUAD_WIDTH 5
_ORIGINAL_FONT_NAME "lime"
_GBDFED_INFO "Edited with gbdfed 1.6."
CHARSET_COLLECTIONS "ISO8859-2 ISO8859-5 ISO8859-9 ISO8859-4 ISO10646-1"
DEFAULT_CHAR 52
FONT_DESCENT 2
FONT_ASCENT 8
ENDPROPERTIES
CHARS 2757
STARTCHAR 5240
ENCODING -1
SWIDTH 480 0
DWIDTH 5 0
BBX 8 8 0 -2
BITMAP
10
7C
25
4B
08
FF
08
08
ENDCHAR
STARTCHAR char480
ENCODING -1
SWIDTH 480 0
DWIDTH 5 0
BBX 5 5 1 0
BITMAP
F8
50
50
50
50
ENDCHAR
STARTCHAR char480
ENCODING -1
SWIDTH 480 0
DWIDTH 5 0
BBX 5 5 1 0
BITMAP
F8
50
50
50
50
ENDCHAR
STARTCHAR char480
ENCODING -1
SWIDTH 480 0
DWIDTH 5 0
BBX 6 5 0 0
BITMAP
7C
28
28
28
28
ENDCHAR
STARTCHAR char480
ENCODING -1
SWIDTH 480 0
DWIDTH 5 0
BBX 6 5 0 0
BITMAP
7C
28
28
28
28
ENDCHAR
STARTCHAR char480
ENCODING -1
SWIDTH 480 0
DWIDTH 5 0
BBX 6 5 0 0
BITMAP
7C
28
28
28
28
ENDCHAR
STARTCHAR char480
ENCODING -1
SWIDTH 480 0
DWIDTH 5 0
BBX 5 5 1 0
BITMAP
F8
50
50
50
50
ENDCHAR
STARTCHAR char960
ENCODING -1
SWIDTH 480 0
DWIDTH 5 0
BBX 6 5 0 0
BITMAP
7C
28
28
28
28
ENDCHAR
STARTCHAR char32
ENCODING 32
SWIDTH 480 0
DWIDTH 5 0
BBX 0 0 0 0
BITMAP
ENDCHAR
STARTCHAR uni0021
ENCODING 33
SWIDTH 480 0
DWIDTH 5 0
BBX 1 6 2 0
BITMAP
80
80
80
80
00
80
ENDCHAR
STARTCHAR uni0022
ENCODING 34
SWIDTH 480 0
DWIDTH 5 0
BBX 3 3 1 4
BITMAP
A0
A0
A0
ENDCHAR
STARTCHAR uni0023
ENCODING 35
SWIDTH 480 0
DWIDTH 5 0
BBX 5 5 0 0
BITMAP
50
D8
50
D8
50
ENDCHAR
STARTCHAR uni0053
ENCODING 36
SWIDTH 480 0
DWIDTH 5 0
BBX 4 7 1 0
BITMAP
20
70
80
60
10
E0
20
ENDCHAR
STARTCHAR uni0025
ENCODING 37
SWIDTH 480 0
DWIDTH 5 0
BBX 4 6 1 0
BITMAP
C0
D0
20
40
B0
30
ENDCHAR
STARTCHAR uni0026
ENCODING 38
SWIDTH 480 0
DWIDTH 5 0
BBX 5 6 0 0
BITMAP
40
A0
40
A8
90
68
ENDCHAR
STARTCHAR uni0027
ENCODING 39
SWIDTH 480 0
DWIDTH 5 0
BBX 1 3 2 4
BITMAP
80
80
80
ENDCHAR
STARTCHAR uni0028
ENCODING 40
SWIDTH 480 0
DWIDTH 5 0
BBX 3 8 2 -1
BITMAP
20
40
80
80
80
80
40
20
ENDCHAR
STARTCHAR uni0028
ENCODING 41
SWIDTH 480 0
DWIDTH 5 0
BBX 3 8 2 -1
BITMAP
80
40
20
20
20
20
40
80
ENDCHAR
STARTCHAR uni002A
ENCODING 42
SWIDTH 480 0
DWIDTH 5 0
BBX 4 5 1 0
BITMAP
90
60
F0
60
90
ENDCHAR
STARTCHAR uni002B
ENCODING 43
SWIDTH 480 0
DWIDTH 5 0
BBX 5 5 0 1
BITMAP
20
20
F8
20
20
ENDCHAR
STARTCHAR uni002C
ENCODING 44
SWIDTH 480 0
DWIDTH 5 0
BBX 2 3 1 -1
BITMAP
40
40
80
ENDCHAR
STARTCHAR uni002D
ENCODING 45
SWIDTH 480 0
DWIDTH 5 0
BBX 4 1 1 3
BITMAP
F0
ENDCHAR
STARTCHAR uni002E
ENCODING 46
SWIDTH 480 0
DWIDTH 5 0
BBX 1 2 2 0
BITMAP
80
80
ENDCHAR
STARTCHAR uni002F
ENCODING 47
SWIDTH 480 0
DWIDTH 5 0
BBX 4 8 1 -1
BITMAP
10
10
20
20
40
40
80
80
ENDCHAR
STARTCHAR uni0030
ENCODING 48
SWIDTH 480 0
DWIDTH 5 0
BBX 4 6 1 0
BITMAP
60
90
D0
B0
90
60
ENDCHAR
STARTCHAR uni0031
ENCODING 49
SWIDTH 480 0
DWIDTH 5 0
BBX 2 6 1 0
BITMAP
40
C0
40
40
40
40
ENDCHAR
STARTCHAR uni0032
ENCODING 50
SWIDTH 480 0
DWIDTH 5 0
BBX 4 6 1 0
BITMAP
E0
10
10
60
80
F0
ENDCHAR
STARTCHAR uni0033
ENCODING 51
SWIDTH 480 0
DWIDTH 5 0
BBX 4 6 1 0
BITMAP
E0
10
60
10
10
E0
ENDCHAR
STARTCHAR uni0034
ENCODING 52
SWIDTH 480 0
DWIDTH 5 0
BBX 4 6 1 0
BITMAP
90
90
90
70
10
10
ENDCHAR
STARTCHAR uni0035
ENCODING 53
SWIDTH 480 0
DWIDTH 5 0
BBX 4 6 1 0
BITMAP
F0
80
E0
10
10
E0
ENDCHAR
STARTCHAR uni0036
ENCODING 54
SWIDTH 480 0
DWIDTH 5 0
BBX 4 6 1 0
BITMAP
60
80
E0
90
90
60
ENDCHAR
STARTCHAR uni0037
ENCODING 55
SWIDTH 480 0
DWIDTH 5 0
BBX 4 6 1 0
BITMAP
F0
10
20
20
40
40
ENDCHAR
STARTCHAR uni0038
ENCODING 56
SWIDTH 480 0
DWIDTH 5 0
BBX 4 6 1 0
BITMAP
60
90
60
90
90
60
ENDCHAR
STARTCHAR uni0039
ENCODING 57
SWIDTH 480 0
DWIDTH 5 0
BBX 4 6 1 0
BITMAP
60
90
90
70
10
60
ENDCHAR
STARTCHAR uni003A
ENCODING 58
SWIDTH 480 0
DWIDTH 5 0
BBX 1 5 2 0
BITMAP
80
80
00
80
80
ENDCHAR
STARTCHAR uni003B
ENCODING 59
SWIDTH 480 0
DWIDTH 5 0
BBX 2 6 1 -1
BITMAP
40
40
00
40
40
80
ENDCHAR
STARTCHAR uni003C
ENCODING 60
SWIDTH 480 0
DWIDTH 5 0
BBX 3 5 1 0
BITMAP
20
40
80
40
20
ENDCHAR
STARTCHAR uni003D
ENCODING 61
SWIDTH 480 0
DWIDTH 5 0
BBX 3 3 1 2
BITMAP
E0
00
E0
ENDCHAR
STARTCHAR uni003E
ENCODING 62
SWIDTH 480 0
DWIDTH 5 0
BBX 3 5 2 0
BITMAP
80
40
20
40
80
ENDCHAR
STARTCHAR uni003F
ENCODING 63
SWIDTH 480 0
DWIDTH 5 0
BBX 3 6 1 0
BITMAP
E0
A0
20
40
00
40
ENDCHAR
STARTCHAR uni0040
ENCODING 64
SWIDTH 480 0
DWIDTH 5 0
BBX 4 6 1 0
BITMAP
60
90
B0
B0
80
70
ENDCHAR
STARTCHAR uni0041
ENCODING 65
SWIDTH 480 0
DWIDTH 5 0
BBX 4 6 1 0
BITMAP
60
90
90
F0
90
90
ENDCHAR
STARTCHAR uni0042
ENCODING 66
SWIDTH 480 0
DWIDTH 5 0
BBX 4 6 1 0
BITMAP
E0
90
E0
90
90
E0
ENDCHAR
STARTCHAR uni0043
ENCODING 67
SWIDTH 480 0
DWIDTH 5 0
BBX 4 6 1 0
BITMAP
70
80
80
80
80
70
ENDCHAR
STARTCHAR uni0044
ENCODING 68
SWIDTH 480 0
DWIDTH 5 0
BBX 4 6 1 0
BITMAP
E0
90
90
90
90
E0
ENDCHAR
STARTCHAR uni0045
ENCODING 69
SWIDTH 480 0
DWIDTH 5 0
BBX 4 6 1 0
BITMAP
F0
80
E0
80
80
F0
ENDCHAR
STARTCHAR uni0046
ENCODING 70
SWIDTH 480 0
DWIDTH 5 0
BBX 4 6 1 0
BITMAP
F0
80
E0
80
80
80
ENDCHAR
STARTCHAR uni0047
ENCODING 71
SWIDTH 480 0
DWIDTH 5 0
BBX 4 6 1 0
BITMAP
70
80
80
B0
90
70
ENDCHAR
STARTCHAR uni0048
ENCODING 72
SWIDTH 480 0
DWIDTH 5 0
BBX 4 6 1 0
BITMAP
90
90
F0
90
90
90
ENDCHAR
STARTCHAR uni0049
ENCODING 73
SWIDTH 480 0
DWIDTH 5 0
BBX 3 6 1 0
BITMAP
E0
40
40
40
40
E0
ENDCHAR
STARTCHAR uni004A
ENCODING 74
SWIDTH 480 0
DWIDTH 5 0
BBX 4 6 1 0
BITMAP
70
10
10
10
90
60
ENDCHAR
STARTCHAR uni004B
ENCODING 75
SWIDTH 480 0
DWIDTH 5 0
BBX 4 6 1 0
BITMAP
90
A0
C0
A0
90
90
ENDCHAR
STARTCHAR uni004C
ENCODING 76
SWIDTH 480 0
DWIDTH 5 0
BBX 4 6 1 0
BITMAP
80
80
80
80
80
F0
ENDCHAR
STARTCHAR uni004D
ENCODING 77
SWIDTH 480 0
DWIDTH 5 0
BBX 4 6 1 0
BITMAP
90
F0
F0
90
90
90
ENDCHAR
STARTCHAR uni004E
ENCODING 78
SWIDTH 480 0
DWIDTH 5 0
BBX 4 6 1 0
BITMAP
90
D0
D0
B0
B0
90
ENDCHAR
STARTCHAR uni004F
ENCODING 79
SWIDTH 480 0
DWIDTH 5 0
BBX 4 6 1 0
BITMAP
60
90
90
90
90
60
ENDCHAR
STARTCHAR uni0050
ENCODING 80
SWIDTH 480 0
DWIDTH 5 0
BBX 4 6 1 0
BITMAP
E0
90
90
E0
80
80
ENDCHAR
STARTCHAR uni0051
ENCODING 81
SWIDTH 480 0
DWIDTH 5 0
BBX 4 7 1 -1
BITMAP
60
90
90
90
90
60
30
ENDCHAR
STARTCHAR uni0052
ENCODING 82
SWIDTH 480 0
DWIDTH 5 0
BBX 4 6 1 0
BITMAP
E0
90
90
E0
90
90
ENDCHAR
STARTCHAR uni0053
ENCODING 83
SWIDTH 480 0
DWIDTH 5 0
BBX 4 6 1 0
BITMAP
70
80
60
10
10
E0
ENDCHAR
STARTCHAR uni0054
ENCODING 84
SWIDTH 480 0
DWIDTH 5 0
BBX 5 6 0 0
BITMAP
F8
20
20
20
20
20
ENDCHAR
STARTCHAR uni0055
ENCODING 85
SWIDTH 480 0
DWIDTH 5 0
BBX 4 6 1 0
BITMAP
90
90
90
90
90
70
ENDCHAR
STARTCHAR uni0056
ENCODING 86
SWIDTH 480 0
DWIDTH 5 0
BBX 4 6 1 0
BITMAP
90
90
90
60
60
60
ENDCHAR
STARTCHAR uni0057
ENCODING 87
SWIDTH 480 0
DWIDTH 5 0
BBX 4 6 1 0
BITMAP
90
90
90
F0
F0
90
ENDCHAR
STARTCHAR uni0058
ENCODING 88
SWIDTH 480 0
DWIDTH 5 0
BBX 4 6 1 0
BITMAP
90
90
60
90
90
90
ENDCHAR
STARTCHAR uni0059
ENCODING 89
SWIDTH 480 0
DWIDTH 5 0
BBX 5 6 0 0
BITMAP
88
50
20
20
20
20
ENDCHAR
STARTCHAR uni005A
ENCODING 90
SWIDTH 480 0
DWIDTH 5 0
BBX 4 6 1 0
BITMAP
F0
10
20
40
80
F0
ENDCHAR
STARTCHAR uni005B
ENCODING 91
SWIDTH 480 0
DWIDTH 5 0
BBX 3 8 1 -1
BITMAP
E0
80
80
80
80
80
80
E0
ENDCHAR
STARTCHAR uni005C
ENCODING 92
SWIDTH 480 0
DWIDTH 5 0
BBX 4 8 1 -1
BITMAP
80
80
40
40
20
20
10
10
ENDCHAR
STARTCHAR uni005D
ENCODING 93
SWIDTH 480 0
DWIDTH 5 0
BBX 3 8 1 -1
BITMAP
E0
20
20
20
20
20
20
E0
ENDCHAR
STARTCHAR uni005E
ENCODING 94
SWIDTH 480 0
DWIDTH 5 0
BBX 5 3 0 4
BITMAP
20
50
88
ENDCHAR
STARTCHAR uni005F
ENCODING 95
SWIDTH 480 0
DWIDTH 5 0
BBX 4 1 1 -1
BITMAP
F0
ENDCHAR
STARTCHAR uni0060
ENCODING 96
SWIDTH 480 0
DWIDTH 5 0
BBX 2 3 2 4
BITMAP
80
80
40
ENDCHAR
STARTCHAR uni0061
ENCODING 97
SWIDTH 480 0
DWIDTH 5 0
BBX 4 5 1 0
BITMAP
70
90
90
B0
50
ENDCHAR
STARTCHAR uni0062
ENCODING 98
SWIDTH 480 0
DWIDTH 5 0
BBX 4 7 1 0
BITMAP
80
80
E0
90
90
90
E0
ENDCHAR
STARTCHAR uni0063
ENCODING 99
SWIDTH 480 0
DWIDTH 5 0
BBX 4 5 1 0
BITMAP
70
80
80
80
70
ENDCHAR
STARTCHAR uni0064
ENCODING 100
SWIDTH 480 0
DWIDTH 5 0
BBX 4 7 1 0
BITMAP
10
10
70
90
90
B0
50
ENDCHAR
STARTCHAR uni0065
ENCODING 101
SWIDTH 480 0
DWIDTH 5 0
BBX 4 5 1 0
BITMAP
60
90
F0
80
70
ENDCHAR
STARTCHAR uni0066
ENCODING 102
SWIDTH 480 0
DWIDTH 5 0
BBX 3 7 2 0
BITMAP
60
80
E0
80
80
80
80
ENDCHAR
STARTCHAR uni0067
ENCODING 103
SWIDTH 480 0
DWIDTH 5 0
BBX 4 7 1 -2
BITMAP
70
90
90
B0
50
10
60
ENDCHAR
STARTCHAR uni0068
ENCODING 104
SWIDTH 480 0
DWIDTH 5 0
BBX 4 7 1 0
BITMAP
80
80
E0
90
90
90
90
ENDCHAR
STARTCHAR uni0069
ENCODING 105
SWIDTH 480 0
DWIDTH 5 0
BBX 2 7 2 0
BITMAP
40
00
C0
40
40
40
40
ENDCHAR
STARTCHAR uni006A
ENCODING 106
SWIDTH 480 0
DWIDTH 5 0
BBX 3 9 1 -2
BITMAP
20
00
60
20
20
20
20
20
C0
ENDCHAR
STARTCHAR uni006B
ENCODING 107
SWIDTH 480 0
DWIDTH 5 0
BBX 4 7 1 0
BITMAP
80
80
90
A0
E0
90
90
ENDCHAR
STARTCHAR uni006C
ENCODING 108
SWIDTH 480 0
DWIDTH 5 0
BBX 2 7 2 0
BITMAP
C0
40
40
40
40
40
40
ENDCHAR
STARTCHAR uni006D
ENCODING 109
SWIDTH 480 0
DWIDTH 5 0
BBX 4 5 1 0
BITMAP
90
F0
B0
90
90
ENDCHAR
STARTCHAR uni006E
ENCODING 110
SWIDTH 480 0
DWIDTH 5 0
BBX 4 5 1 0
BITMAP
E0
90
90
90
90
ENDCHAR
STARTCHAR uni006F
ENCODING 111
SWIDTH 480 0
DWIDTH 5 0
BBX 4 5 1 0
BITMAP
60
90
90
90
60
ENDCHAR
STARTCHAR uni0070
ENCODING 112
SWIDTH 480 0
DWIDTH 5 0
BBX 4 7 1 -2
BITMAP
E0
90
90
90
E0
80
80
ENDCHAR
STARTCHAR uni0071
ENCODING 113
SWIDTH 480 0
DWIDTH 5 0
BBX 4 7 1 -2
BITMAP
70
90
90
90
70
10
10
ENDCHAR
STARTCHAR uni0072
ENCODING 114
SWIDTH 480 0
DWIDTH 5 0
BBX 4 5 1 0
BITMAP
B0
C0
80
80
80
ENDCHAR
STARTCHAR uni0073
ENCODING 115
SWIDTH 480 0
DWIDTH 5 0
BBX 4 5 1 0
BITMAP
70
80
60
10
E0
ENDCHAR
STARTCHAR uni0074
ENCODING 116
SWIDTH 480 0
DWIDTH 5 0
BBX 3 6 1 0
BITMAP
40
E0
40
40
40
20
ENDCHAR
STARTCHAR uni0075
ENCODING 117
SWIDTH 480 0
DWIDTH 5 0
BBX 4 5 1 0
BITMAP
90
90
90
90
70
ENDCHAR
STARTCHAR uni0076
ENCODING 118
SWIDTH 480 0
DWIDTH 5 0
BBX 4 5 1 0
BITMAP
90
90
90
60
60
ENDCHAR
STARTCHAR uni0077
ENCODING 119
SWIDTH 480 0
DWIDTH 5 0
BBX 4 5 1 0
BITMAP
90
90
90
F0
90
ENDCHAR
STARTCHAR uni0078
ENCODING 120
SWIDTH 480 0
DWIDTH 5 0
BBX 4 5 1 0
BITMAP
90
90
60
90
90
ENDCHAR
STARTCHAR uni0079
ENCODING 121
SWIDTH 480 0
DWIDTH 5 0
BBX 4 7 1 -2
BITMAP
90
90
90
90
70
10
60
ENDCHAR
STARTCHAR uni007A
ENCODING 122
SWIDTH 480 0
DWIDTH 5 0
BBX 4 5 1 0
BITMAP
F0
20
40
80
F0
ENDCHAR
STARTCHAR uni007B
ENCODING 123
SWIDTH 480 0
DWIDTH 5 0
BBX 3 8 1 -1
BITMAP
20
40
40
C0
C0
40
40
20
ENDCHAR
STARTCHAR uni007C
ENCODING 124
SWIDTH 480 0
DWIDTH 5 0
BBX 1 8 2 -1
BITMAP
80
80
80
80
80
80
80
80
ENDCHAR
STARTCHAR uni007D
ENCODING 125
SWIDTH 480 0
DWIDTH 5 0
BBX 3 8 2 -1
BITMAP
80
40
40
60
60
40
40
80
ENDCHAR
STARTCHAR uni007E
ENCODING 126
SWIDTH 480 0
DWIDTH 5 0
BBX 5 4 0 1
BITMAP
40
A8
A8
10
ENDCHAR
STARTCHAR char149
ENCODING 149
SWIDTH 480 0
DWIDTH 5 0
BBX 4 4 1 0
BITMAP
60
F0
F0
60
ENDCHAR
STARTCHAR char161
ENCODING 161
SWIDTH 480 0
DWIDTH 5 0
BBX 1 6 2 0
BITMAP
80
00
80
80
80
80
ENDCHAR
STARTCHAR char162
ENCODING 162
SWIDTH 480 0
DWIDTH 5 0
BBX 4 7 0 -1
BITMAP
10
70
A0
A0
A0
70
40
ENDCHAR
STARTCHAR char163
ENCODING 163
SWIDTH 480 0
DWIDTH 5 0
BBX 5 7 0 0
BITMAP
30
40
40
E0
40
48
F0
ENDCHAR
STARTCHAR char164
ENCODING 164
SWIDTH 480 0
DWIDTH 5 0
BBX 5 6 0 0
BITMAP
88
70
50
50
70
88
ENDCHAR
STARTCHAR char165
ENCODING 165
SWIDTH 480 0
DWIDTH 5 0
BBX 5 7 0 0
BITMAP
88
50
20
70
20
70
20
ENDCHAR
STARTCHAR char166
ENCODING 166
SWIDTH 480 0
DWIDTH 5 0
BBX 1 7 2 -1
BITMAP
80
80
80
00
80
80
80
ENDCHAR
STARTCHAR char167
ENCODING 167
SWIDTH 480 0
DWIDTH 5 0
BBX 4 8 0 -1
BITMAP
30
40
60
90
90
60
20
C0
ENDCHAR
STARTCHAR char168
ENCODING 168
SWIDTH 480 0
DWIDTH 5 0
BBX 3 1 1 5
BITMAP
A0
ENDCHAR
STARTCHAR char169
ENCODING 169
SWIDTH 480 0
DWIDTH 5 0
BBX 6 7 0 0
BITMAP
78
84
B4
A4
B4
84
78
ENDCHAR
STARTCHAR char170
ENCODING 170
SWIDTH 480 0
DWIDTH 5 0
BBX 4 4 1 2
BITMAP
70
90
90
70
ENDCHAR
STARTCHAR char171
ENCODING 171
SWIDTH 480 0
DWIDTH 5 0
BBX 4 3 1 2
BITMAP
50
A0
50
ENDCHAR
STARTCHAR char172
ENCODING 172
SWIDTH 480 0
DWIDTH 5 0
BBX 5 3 0 1
BITMAP
F8
08
08
ENDCHAR
STARTCHAR SOFT HYPHEN
ENCODING 173
SWIDTH 480 0
DWIDTH 5 0
BBX 3 1 1 2
BITMAP
E0
ENDCHAR
STARTCHAR char174
ENCODING 174
SWIDTH 480 0
DWIDTH 5 0
BBX 6 7 0 0
BITMAP
78
84
BC
B4
AC
84
78
ENDCHAR
STARTCHAR char175
ENCODING 175
SWIDTH 480 0
DWIDTH 5 0
BBX 4 1 1 6
BITMAP
E0
ENDCHAR
STARTCHAR char176
ENCODING 176
SWIDTH 480 0
DWIDTH 5 0
BBX 3 3 1 3
BITMAP
40
A0
40
ENDCHAR
STARTCHAR char177
ENCODING 177
SWIDTH 480 0
DWIDTH 5 0
BBX 4 5 0 0
BITMAP
20
70
20
00
70
ENDCHAR
STARTCHAR char178
ENCODING 178
SWIDTH 480 0
DWIDTH 5 0
BBX 3 5 1 2
BITMAP
C0
20
40
80
E0
ENDCHAR
STARTCHAR char179
ENCODING 179
SWIDTH 480 0
DWIDTH 5 0
BBX 3 5 1 2
BITMAP
C0
20
C0
20
C0
ENDCHAR
STARTCHAR char180
ENCODING 180
SWIDTH 480 0
DWIDTH 5 0
BBX 2 2 1 6
BITMAP
40
80
ENDCHAR
STARTCHAR char181
ENCODING 181
SWIDTH 480 0
DWIDTH 5 0
BBX 4 6 1 -1
BITMAP
90
90
90
90
E0
80
ENDCHAR
STARTCHAR char182
ENCODING 182
SWIDTH 480 0
DWIDTH 5 0
BBX 5 6 0 0
BITMAP
78
A8
A8
68
28
28
ENDCHAR
STARTCHAR char183
ENCODING 183
SWIDTH 480 0
DWIDTH 5 0
BBX 2 2 2 2
BITMAP
C0
C0
ENDCHAR
STARTCHAR char184
ENCODING 184
SWIDTH 480 0
DWIDTH 5 0
BBX 3 3 1 1
BITMAP
40
20
E0
ENDCHAR
STARTCHAR char185
ENCODING 185
SWIDTH 480 0
DWIDTH 5 0
BBX 2 4 1 2
BITMAP
40
C0
40
40
ENDCHAR
STARTCHAR char186
ENCODING 186
SWIDTH 480 0
DWIDTH 5 0
BBX 4 4 0 4
BITMAP
60
90
90
60
ENDCHAR
STARTCHAR char187
ENCODING 187
SWIDTH 480 0
DWIDTH 5 0
BBX 5 3 1 2
BITMAP
A0
50
A0
ENDCHAR
STARTCHAR char188
ENCODING 188
SWIDTH 480 0
DWIDTH 5 0
BBX 5 8 1 0
BITMAP
40
C0
40
50
30
50
78
10
ENDCHAR
STARTCHAR char189
ENCODING 189
SWIDTH 480 0
DWIDTH 5 0
BBX 5 7 1 1
BITMAP
40
C0
40
70
08
10
38
ENDCHAR
STARTCHAR char190
ENCODING 190
SWIDTH 480 0
DWIDTH 5 0
BBX 6 8 0 0
BITMAP
C0
20
40
28
D8
28
3C
08
ENDCHAR
STARTCHAR char191
ENCODING 191
SWIDTH 480 0
DWIDTH 5 0
BBX 3 6 2 0
BITMAP
40
00
40
80
A0
E0
ENDCHAR
STARTCHAR char192
ENCODING 192
SWIDTH 480 0
DWIDTH 5 0
BBX 4 8 1 0
BITMAP
40
20
60
90
90
F0
90
90
ENDCHAR
STARTCHAR char193
ENCODING 193
SWIDTH 480 0
DWIDTH 5 0
BBX 4 8 1 0
BITMAP
20
40
60
90
90
F0
90
90
ENDCHAR
STARTCHAR char194
ENCODING 194
SWIDTH 480 0
DWIDTH 5 0
BBX 4 9 1 0
BITMAP
20
50
00
60
90
90
F0
90
90
ENDCHAR
STARTCHAR char195
ENCODING 195
SWIDTH 480 0
DWIDTH 5 0
BBX 4 8 1 0
BITMAP
50
A0
60
90
90
F0
90
90
ENDCHAR
STARTCHAR char196
ENCODING 196
SWIDTH 480 0
DWIDTH 5 0
BBX 5 8 0 0
BITMAP
48
00
30
48
48
78
48
48
ENDCHAR
STARTCHAR char197
ENCODING 197
SWIDTH 480 0
DWIDTH 5 0
BBX 4 8 1 0
BITMAP
60
90
60
90
90
F0
90
90
ENDCHAR
STARTCHAR char198
ENCODING 198
SWIDTH 480 0
DWIDTH 5 0
BBX 6 6 0 0
BITMAP
7C
90
98
F0
90
9C
ENDCHAR
STARTCHAR char199
ENCODING 199
SWIDTH 480 0
DWIDTH 5 0
BBX 4 8 0 -2
BITMAP
70
80
80
80
80
70
20
40
ENDCHAR
STARTCHAR char200
ENCODING 200
SWIDTH 480 0
DWIDTH 5 0
BBX 4 8 1 0
BITMAP
40
20
F0
80
E0
80
80
F0
ENDCHAR
STARTCHAR char201
ENCODING 201
SWIDTH 480 0
DWIDTH 5 0
BBX 4 8 1 0
BITMAP
20
40
F0
80
E0
80
80
F0
ENDCHAR
STARTCHAR char202
ENCODING 202
SWIDTH 480 0
DWIDTH 5 0
BBX 4 8 1 0
BITMAP
40
A0
F0
80
E0
80
80
F0
ENDCHAR
STARTCHAR char203
ENCODING 203
SWIDTH 480 0
DWIDTH 5 0
BBX 4 8 1 0
BITMAP
A0
00
F0
80
E0
80
80
F0
ENDCHAR
STARTCHAR char204
ENCODING 204
SWIDTH 480 0
DWIDTH 5 0
BBX 3 9 1 0
BITMAP
80
40
00
E0
40
40
40
40
E0
ENDCHAR
STARTCHAR char205
ENCODING 205
SWIDTH 480 0
DWIDTH 5 0
BBX 3 9 1 0
BITMAP
20
40
00
E0
40
40
40
40
E0
ENDCHAR
STARTCHAR char206
ENCODING 206
SWIDTH 480 0
DWIDTH 5 0
BBX 3 9 1 0
BITMAP
40
A0
00
E0
40
40
40
40
E0
ENDCHAR
STARTCHAR char207
ENCODING 207
SWIDTH 480 0
DWIDTH 5 0
BBX 3 8 1 0
BITMAP
A0
00
E0
40
40
40
40
E0
ENDCHAR
STARTCHAR char208
ENCODING 208
SWIDTH 480 0
DWIDTH 5 0
BBX 5 6 0 0
BITMAP
70
48
E8
48
48
70
ENDCHAR
STARTCHAR char209
ENCODING 209
SWIDTH 480 0
DWIDTH 5 0
BBX 5 8 0 0
BITMAP
28
50
00
70
48
48
48
48
ENDCHAR
STARTCHAR char210
ENCODING 210
SWIDTH 480 0
DWIDTH 5 0
BBX 4 8 1 0
BITMAP
80
40
00
60
90
90
90
60
ENDCHAR
STARTCHAR char211
ENCODING 211
SWIDTH 480 0
DWIDTH 5 0
BBX 4 8 1 0
BITMAP
20
40
00
60
90
90
90
60
ENDCHAR
STARTCHAR char212
ENCODING 212
SWIDTH 480 0
DWIDTH 5 0
BBX 4 8 1 0
BITMAP
40
A0
00
60
90
90
90
60
ENDCHAR
STARTCHAR char213
ENCODING 213
SWIDTH 480 0
DWIDTH 5 0
BBX 4 8 1 0
BITMAP
50
A0
00
60
90
90
90
60
ENDCHAR
STARTCHAR char214
ENCODING 214
SWIDTH 480 0
DWIDTH 5 0
BBX 5 7 0 0
BITMAP
48
00
30
48
48
48
30
ENDCHAR
STARTCHAR char215
ENCODING 215
SWIDTH 480 0
DWIDTH 5 0
BBX 3 3 1 2
BITMAP
A0
40
A0
ENDCHAR
STARTCHAR char216
ENCODING 216
SWIDTH 480 0
DWIDTH 5 0
BBX 6 6 0 0
BITMAP
34
58
58
68
68
B0
ENDCHAR
STARTCHAR char217
ENCODING 217
SWIDTH 480 0
DWIDTH 5 0
BBX 4 8 1 0
BITMAP
80
40
90
90
90
90
90
70
ENDCHAR
STARTCHAR char218
ENCODING 218
SWIDTH 480 0
DWIDTH 5 0
BBX 4 8 1 0
BITMAP
10
20
90
90
90
90
90
70
ENDCHAR
STARTCHAR char219
ENCODING 219
SWIDTH 480 0
DWIDTH 5 0
BBX 4 9 1 0
BITMAP
20
50
00
90
90
90
90
90
70
ENDCHAR
STARTCHAR char220
ENCODING 220
SWIDTH 480 0
DWIDTH 5 0
BBX 4 8 1 0
BITMAP
50
00
90
90
90
90
90
70
ENDCHAR
STARTCHAR char221
ENCODING 221
SWIDTH 480 0
DWIDTH 5 0
BBX 5 8 0 0
BITMAP
10
20
88
50
20
20
20
20
ENDCHAR
STARTCHAR char222
ENCODING 222
SWIDTH 480 0
DWIDTH 5 0
BBX 4 7 1 -1
BITMAP
80
80
E0
90
90
E0
80
ENDCHAR
STARTCHAR char223
ENCODING 223
SWIDTH 480 0
DWIDTH 5 0
BBX 4 7 1 -1
BITMAP
60
90
A0
90
90
A0
80
ENDCHAR
STARTCHAR char224
ENCODING 224
SWIDTH 480 0
DWIDTH 5 0
BBX 4 8 1 0
BITMAP
80
40
00
70
90
90
B0
50
ENDCHAR
STARTCHAR char225
ENCODING 225
SWIDTH 480 0
DWIDTH 5 0
BBX 4 8 1 0
BITMAP
20
40
00
70
90
90
B0
50
ENDCHAR
STARTCHAR char226
ENCODING 226
SWIDTH 480 0
DWIDTH 5 0
BBX 4 8 1 0
BITMAP
40
A0
00
70
90
90
B0
50
ENDCHAR
STARTCHAR char227
ENCODING 227
SWIDTH 480 0
DWIDTH 5 0
BBX 4 8 1 0
BITMAP
50
A0
00
70
90
90
B0
50
ENDCHAR
STARTCHAR char228
ENCODING 228
SWIDTH 480 0
DWIDTH 5 0
BBX 4 7 1 0
BITMAP
90
00
70
90
90
B0
50
ENDCHAR
STARTCHAR char229
ENCODING 229
SWIDTH 480 0
DWIDTH 5 0
BBX 4 7 1 0
BITMAP
20
00
70
90
90
B0
50
ENDCHAR
STARTCHAR char230
ENCODING 230
SWIDTH 480 0
DWIDTH 5 0
BBX 5 5 1 0
BITMAP
70
A8
B8
A0
58
ENDCHAR
STARTCHAR char231
ENCODING 231
SWIDTH 480 0
DWIDTH 5 0
BBX 4 7 1 -2
BITMAP
70
80
80
80
70
20
40
ENDCHAR
STARTCHAR char232
ENCODING 232
SWIDTH 480 0
DWIDTH 5 0
BBX 4 8 1 0
BITMAP
80
40
00
60
90
F0
80
70
ENDCHAR
STARTCHAR char233
ENCODING 233
SWIDTH 480 0
DWIDTH 5 0
BBX 4 8 1 0
BITMAP
20
40
00
60
90
F0
80
70
ENDCHAR
STARTCHAR char234
ENCODING 234
SWIDTH 480 0
DWIDTH 5 0
BBX 4 8 1 0
BITMAP
40
A0
00
60
90
F0
80
70
ENDCHAR
STARTCHAR char235
ENCODING 235
SWIDTH 480 0
DWIDTH 5 0
BBX 4 7 1 0
BITMAP
A0
00
60
90
F0
80
70
ENDCHAR
STARTCHAR char236
ENCODING 236
SWIDTH 480 0
DWIDTH 5 0
BBX 2 8 2 0
BITMAP
80
40
00
C0
40
40
40
40
ENDCHAR
STARTCHAR char237
ENCODING 237
SWIDTH 480 0
DWIDTH 5 0
BBX 3 8 2 0
BITMAP
20
40
00
C0
40
40
40
40
ENDCHAR
STARTCHAR char238
ENCODING 238
SWIDTH 480 0
DWIDTH 5 0
BBX 3 8 2 0
BITMAP
40
A0
00
C0
40
40
40
40
ENDCHAR
STARTCHAR char239
ENCODING 239
SWIDTH 480 0
DWIDTH 5 0
BBX 3 7 2 0
BITMAP
A0
00
C0
40
40
40
40
ENDCHAR
STARTCHAR char240
ENCODING 240
SWIDTH 480 0
DWIDTH 5 0
BBX 4 8 1 0
BITMAP
A0
60
90
70
90
90
90
60
ENDCHAR
STARTCHAR char241
ENCODING 241
SWIDTH 480 0
DWIDTH 5 0
BBX 4 8 1 0
BITMAP
50
A0
00
E0
90
90
90
90
ENDCHAR
STARTCHAR char242
ENCODING 242
SWIDTH 480 0
DWIDTH 5 0
BBX 5 8 0 0
BITMAP
40
20
00
30
48
48
48
30
ENDCHAR
STARTCHAR char243
ENCODING 243
SWIDTH 480 0
DWIDTH 5 0
BBX 4 8 1 0
BITMAP
10
20
00
60
90
90
90
60
ENDCHAR
STARTCHAR char244
ENCODING 244
SWIDTH 480 0
DWIDTH 5 0
BBX 4 8 1 0
BITMAP
40
A0
00
60
90
90
90
60
ENDCHAR
STARTCHAR char245
ENCODING 245
SWIDTH 480 0
DWIDTH 5 0
BBX 4 8 1 0
BITMAP
50
A0
00
60
90
90
90
60
ENDCHAR
STARTCHAR char246
ENCODING 246
SWIDTH 480 0
DWIDTH 5 0
BBX 4 7 1 0
BITMAP
90
00
60
90
90
90
60
ENDCHAR
STARTCHAR char247
ENCODING 247
SWIDTH 480 0
DWIDTH 5 0
BBX 5 5 0 1
BITMAP
20
00
F8
00
20
ENDCHAR
STARTCHAR char248
ENCODING 248
SWIDTH 480 0
DWIDTH 5 0
BBX 6 5 0 0
BITMAP
34
58
78
68
B0
ENDCHAR
STARTCHAR char249
ENCODING 249
SWIDTH 480 0
DWIDTH 5 0
BBX 4 8 1 0
BITMAP
80
40
00
90
90
90
90
70
ENDCHAR
STARTCHAR char250
ENCODING 250
SWIDTH 480 0
DWIDTH 5 0
BBX 5 8 0 0
BITMAP
10
20
00
48
48
48
48
38
ENDCHAR
STARTCHAR char251
ENCODING 251
SWIDTH 480 0
DWIDTH 5 0
BBX 4 8 1 0
BITMAP
40
A0
00
90
90
90
90
70
ENDCHAR
STARTCHAR char252
ENCODING 252
SWIDTH 480 0
DWIDTH 5 0
BBX 5 7 0 0
BITMAP
50
00
48
48
48
48
38
ENDCHAR
STARTCHAR char253
ENCODING 253
SWIDTH 480 0
DWIDTH 5 0
BBX 4 10 1 -2
BITMAP
20
40
00
90
90
90
90
70
10
60
ENDCHAR
STARTCHAR char254
ENCODING 254
SWIDTH 480 0
DWIDTH 5 0
BBX 4 9 1 -2
BITMAP
80
80
E0
90
90
90
E0
80
80
ENDCHAR
STARTCHAR char255
ENCODING 255
SWIDTH 480 0
DWIDTH 5 0
BBX 4 9 1 -2
BITMAP
50
00
90
90
90
90
70
10
60
ENDCHAR
STARTCHAR uni0041
ENCODING 256
SWIDTH 480 0
DWIDTH 5 0
BBX 4 8 1 0
BITMAP
F0
00
60
90
90
F0
90
90
ENDCHAR
STARTCHAR uni0061
ENCODING 257
SWIDTH 480 0
DWIDTH 5 0
BBX 4 7 1 0
BITMAP
F0
00
70
90
90
B0
50
ENDCHAR
STARTCHAR uni0041
ENCODING 258
SWIDTH 480 0
DWIDTH 5 0
BBX 4 9 1 0
BITMAP
90
60
00
60
90
90
F0
90
90
ENDCHAR
STARTCHAR uni0061
ENCODING 259
SWIDTH 480 0
DWIDTH 5 0
BBX 4 8 1 0
BITMAP
90
60
00
70
90
90
B0
50
ENDCHAR
STARTCHAR uni0041
ENCODING 260
SWIDTH 480 0
DWIDTH 5 0
BBX 5 7 1 -1
BITMAP
60
90
90
F0
90
90
08
ENDCHAR
STARTCHAR uni0061
ENCODING 261
SWIDTH 480 0
DWIDTH 5 0
BBX 5 6 1 -1
BITMAP
70
90
90
B0
50
08
ENDCHAR
STARTCHAR uni0043
ENCODING 262
SWIDTH 480 0
DWIDTH 5 0
BBX 4 9 1 0
BITMAP
20
40
00
70
80
80
80
80
70
ENDCHAR
STARTCHAR uni0063
ENCODING 263
SWIDTH 480 0
DWIDTH 5 0
BBX 4 8 1 0
BITMAP
20
40
00
70
80
80
80
70
ENDCHAR
STARTCHAR uni0043
ENCODING 264
SWIDTH 480 0
DWIDTH 5 0
BBX 4 9 1 0
BITMAP
20
50
00
70
80
80
80
80
70
ENDCHAR
STARTCHAR uni0063
ENCODING 265
SWIDTH 480 0
DWIDTH 5 0
BBX 4 8 1 0
BITMAP
20
50
00
70
80
80
80
70
ENDCHAR
STARTCHAR uni0043
ENCODING 266
SWIDTH 480 0
DWIDTH 5 0
BBX 4 8 1 0
BITMAP
20
00
70
80
80
80
80
70
ENDCHAR
STARTCHAR uni0063
ENCODING 267
SWIDTH 480 0
DWIDTH 5 0
BBX 4 7 1 0
BITMAP
20
00
70
80
80
80
70
ENDCHAR
STARTCHAR uni0043
ENCODING 268
SWIDTH 480 0
DWIDTH 5 0
BBX 4 9 1 0
BITMAP
50
20
00
70
80
80
80
80
70
ENDCHAR
STARTCHAR uni0063
ENCODING 269
SWIDTH 480 0
DWIDTH 5 0
BBX 4 8 1 0
BITMAP
50
20
00
70
80
80
80
70
ENDCHAR
STARTCHAR uni0044
ENCODING 270
SWIDTH 480 0
DWIDTH 5 0
BBX 4 9 1 0
BITMAP
A0
40
00
E0
90
90
90
90
E0
ENDCHAR
STARTCHAR uni0064
ENCODING 271
SWIDTH 480 0
DWIDTH 5 0
BBX 6 8 1 0
BITMAP
04
14
18
70
90
90
B0
50
ENDCHAR
STARTCHAR uni0044
ENCODING 272
SWIDTH 480 0
DWIDTH 5 0
BBX 5 6 0 0
BITMAP
70
48
E8
48
48
70
ENDCHAR
STARTCHAR uni0064
ENCODING 273
SWIDTH 480 0
DWIDTH 5 0
BBX 5 7 1 0
BITMAP
38
10
70
90
90
B0
50
ENDCHAR
STARTCHAR uni0045
ENCODING 274
SWIDTH 480 0
DWIDTH 5 0
BBX 4 8 1 0
BITMAP
60
00
F0
80
E0
80
80
F0
ENDCHAR
STARTCHAR uni0065
ENCODING 275
SWIDTH 480 0
DWIDTH 5 0
BBX 4 7 1 0
BITMAP
F0
00
60
90
F0
80
70
ENDCHAR
STARTCHAR uni0045
ENCODING 276
SWIDTH 480 0
DWIDTH 5 0
BBX 4 9 1 0
BITMAP
90
60
00
F0
80
E0
80
80
F0
ENDCHAR
STARTCHAR uni0065
ENCODING 277
SWIDTH 480 0
DWIDTH 5 0
BBX 4 8 1 0
BITMAP
90
60
00
60
90
F0
80
70
ENDCHAR
STARTCHAR uni0045
ENCODING 278
SWIDTH 480 0
DWIDTH 5 0
BBX 4 8 1 0
BITMAP
40
00
F0
80
E0
80
80
F0
ENDCHAR
STARTCHAR uni0065
ENCODING 279
SWIDTH 480 0
DWIDTH 5 0
BBX 4 7 1 0
BITMAP
40
00
60
90
F0
80
70
ENDCHAR
STARTCHAR uni0045
ENCODING 280
SWIDTH 480 0
DWIDTH 5 0
BBX 5 7 1 -1
BITMAP
F0
80
E0
80
80
F0
08
ENDCHAR
STARTCHAR uni0065
ENCODING 281
SWIDTH 480 0
DWIDTH 5 0
BBX 4 6 1 -1
BITMAP
60
90
F0
80
60
10
ENDCHAR
STARTCHAR uni0045
ENCODING 282
SWIDTH 480 0
DWIDTH 5 0
BBX 4 9 1 0
BITMAP
A0
40
00
F0
80
E0
80
80
F0
ENDCHAR
STARTCHAR uni0065
ENCODING 283
SWIDTH 480 0
DWIDTH 5 0
BBX 4 8 1 0
BITMAP
A0
40
00
60
90
F0
80
70
ENDCHAR
STARTCHAR uni0047
ENCODING 284
SWIDTH 480 0
DWIDTH 5 0
BBX 4 9 1 0
BITMAP
20
50
00
70
80
80
B0
90
70
ENDCHAR
STARTCHAR uni0067
ENCODING 285
SWIDTH 480 0
DWIDTH 5 0
BBX 4 10 1 -2
BITMAP
20
50
00
70
90
90
B0
50
10
60
ENDCHAR
STARTCHAR uni0047
ENCODING 286
SWIDTH 480 0
DWIDTH 5 0
BBX 4 9 1 0
BITMAP
90
60
00
70
80
80
B0
90
70
ENDCHAR
STARTCHAR uni0067
ENCODING 287
SWIDTH 480 0
DWIDTH 5 0
BBX 4 10 1 -2
BITMAP
90
60
00
70
90
90
B0
50
10
60
ENDCHAR
STARTCHAR uni0047
ENCODING 288
SWIDTH 480 0
DWIDTH 5 0
BBX 4 8 1 0
BITMAP
20
00
70
80
80
B0
90
70
ENDCHAR
STARTCHAR uni0067
ENCODING 289
SWIDTH 480 0
DWIDTH 5 0
BBX 4 9 1 -2
BITMAP
20
00
70
90
90
B0
50
10
60
ENDCHAR
STARTCHAR uni0047
ENCODING 290
SWIDTH 480 0
DWIDTH 5 0
BBX 4 8 1 -2
BITMAP
70
80
80
B0
90
70
20
40
ENDCHAR
STARTCHAR uni0067
ENCODING 291
SWIDTH 480 0
DWIDTH 5 0
BBX 4 10 1 -2
BITMAP
20
40
00
70
90
90
B0
50
10
60
ENDCHAR
STARTCHAR uni0048
ENCODING 292
SWIDTH 480 0
DWIDTH 5 0
BBX 4 9 1 0
BITMAP
20
50
00
90
90
F0
90
90
90
ENDCHAR
STARTCHAR uni0068
ENCODING 293
SWIDTH 480 0
DWIDTH 5 0
BBX 4 9 1 0
BITMAP
20
50
80
80
E0
90
90
90
90
ENDCHAR
STARTCHAR uni0048
ENCODING 294
SWIDTH 480 0
DWIDTH 5 0
BBX 6 6 0 0
BITMAP
FC
48
78
48
48
48
ENDCHAR
STARTCHAR uni0068
ENCODING 295
SWIDTH 480 0
DWIDTH 5 0
BBX 5 7 0 0
BITMAP
F0
40
70
48
48
48
48
ENDCHAR
STARTCHAR uni0049
ENCODING 296
SWIDTH 480 0
DWIDTH 5 0
BBX 4 9 0 0
BITMAP
50
A0
00
70
20
20
20
20
70
ENDCHAR
STARTCHAR uni0069
ENCODING 297
SWIDTH 480 0
DWIDTH 5 0
BBX 4 8 1 0
BITMAP
50
A0
00
60
20
20
20
20
ENDCHAR
STARTCHAR uni0049
ENCODING 298
SWIDTH 480 0
DWIDTH 5 0
BBX 3 8 1 0
BITMAP
E0
00
E0
40
40
40
40
E0
ENDCHAR
STARTCHAR uni0069
ENCODING 299
SWIDTH 480 0
DWIDTH 5 0
BBX 3 7 2 0
BITMAP
E0
00
C0
40
40
40
40
ENDCHAR
STARTCHAR uni0049
ENCODING 300
SWIDTH 480 0
DWIDTH 5 0
BBX 3 9 1 0
BITMAP
A0
40
00
E0
40
40
40
40
E0
ENDCHAR
STARTCHAR uni0069
ENCODING 301
SWIDTH 480 0
DWIDTH 5 0
BBX 3 8 2 0
BITMAP
A0
40
00
C0
40
40
40
40
ENDCHAR
STARTCHAR uni0049
ENCODING 302
SWIDTH 480 0
DWIDTH 5 0
BBX 3 8 1 -2
BITMAP
E0
40
40
40
40
E0
80
40
ENDCHAR
STARTCHAR uni0069
ENCODING 303
SWIDTH 480 0
DWIDTH 5 0
BBX 2 9 2 -2
BITMAP
40
00
C0
40
40
40
C0
80
40
ENDCHAR
STARTCHAR uni0049
ENCODING 304
SWIDTH 480 0
DWIDTH 5 0
BBX 3 8 1 0
BITMAP
40
00
E0
40
40
40
40
E0
ENDCHAR
STARTCHAR uni0069
ENCODING 305
SWIDTH 480 0
DWIDTH 5 0
BBX 2 5 2 0
BITMAP
C0
40
40
40
40
ENDCHAR
STARTCHAR uni0049
ENCODING 306
SWIDTH 480 0
DWIDTH 5 0
BBX 6 6 1 0
BITMAP
FC
44
44
44
54
E8
ENDCHAR
STARTCHAR uni0069
ENCODING 307
SWIDTH 480 0
DWIDTH 5 0
BBX 5 8 1 -1
BITMAP
48
00
D8
48
48
48
48
30
ENDCHAR
STARTCHAR uni004A
ENCODING 308
SWIDTH 480 0
DWIDTH 5 0
BBX 4 9 1 0
BITMAP
20
50
00
70
10
10
10
90
60
ENDCHAR
STARTCHAR uni006A
ENCODING 309
SWIDTH 480 0
DWIDTH 5 0
BBX 4 10 1 -2
BITMAP
20
50
00
60
20
20
20
20
20
C0
ENDCHAR
STARTCHAR uni004B
ENCODING 310
SWIDTH 480 0
DWIDTH 5 0
BBX 4 8 1 -2
BITMAP
90
A0
C0
A0
90
90
40
80
ENDCHAR
STARTCHAR uni006B
ENCODING 311
SWIDTH 480 0
DWIDTH 5 0
BBX 4 9 1 -2
BITMAP
80
80
90
A0
E0
90
90
40
80
ENDCHAR
STARTCHAR uni006B
ENCODING 312
SWIDTH 480 0
DWIDTH 5 0
BBX 4 5 1 0
BITMAP
90
A0
E0
90
90
ENDCHAR
STARTCHAR uni004C
ENCODING 313
SWIDTH 480 0
DWIDTH 5 0
BBX 4 8 1 0
BITMAP
10
20
80
80
80
80
80
F0
ENDCHAR
STARTCHAR uni006C
ENCODING 314
SWIDTH 480 0
DWIDTH 5 0
BBX 4 9 2 0
BITMAP
10
20
C0
40
40
40
40
40
40
ENDCHAR
STARTCHAR uni004C
ENCODING 315
SWIDTH 480 0
DWIDTH 5 0
BBX 4 8 1 -2
BITMAP
80
80
80
80
80
F0
20
40
ENDCHAR
STARTCHAR uni006C
ENCODING 316
SWIDTH 480 0
DWIDTH 5 0
BBX 3 9 1 -2
BITMAP
60
20
20
20
20
20
20
40
80
ENDCHAR
STARTCHAR uni004C
ENCODING 317
SWIDTH 480 0
DWIDTH 5 0
BBX 4 7 1 0
BITMAP
30
90
80
80
80
80
F0
ENDCHAR
STARTCHAR uni006C
ENCODING 318
SWIDTH 480 0
DWIDTH 5 0
BBX 4 10 2 -1
BITMAP
30
10
C0
40
40
40
40
40
40
20
ENDCHAR
STARTCHAR uni004C
ENCODING 319
SWIDTH 480 0
DWIDTH 5 0
BBX 4 6 1 0
BITMAP
80
80
80
A0
80
F0
ENDCHAR
STARTCHAR uni006C
ENCODING 320
SWIDTH 480 0
DWIDTH 5 0
BBX 4 7 2 0
BITMAP
C0
40
40
40
50
40
40
ENDCHAR
STARTCHAR uni004C
ENCODING 321
SWIDTH 480 0
DWIDTH 5 0
BBX 4 6 1 0
BITMAP
80
A0
C0
80
80
F0
ENDCHAR
STARTCHAR uni006C
ENCODING 322
SWIDTH 480 0
DWIDTH 5 0
BBX 3 7 2 0
BITMAP
C0
40
40
60
C0
40
40
ENDCHAR
STARTCHAR uni004E
ENCODING 323
SWIDTH 480 0
DWIDTH 5 0
BBX 4 9 1 0
BITMAP
20
40
00
90
D0
D0
B0
B0
90
ENDCHAR
STARTCHAR uni006E
ENCODING 324
SWIDTH 480 0
DWIDTH 5 0
BBX 4 8 1 0
BITMAP
20
40
00
E0
90
90
90
90
ENDCHAR
STARTCHAR uni004E
ENCODING 325
SWIDTH 480 0
DWIDTH 5 0
BBX 4 8 1 -2
BITMAP
90
D0
D0
B0
B0
D0
40
80
ENDCHAR
STARTCHAR uni006E
ENCODING 326
SWIDTH 480 0
DWIDTH 5 0
BBX 4 10 1 -2
BITMAP
20
40
00
E0
90
90
90
D0
40
80
ENDCHAR
STARTCHAR uni004E
ENCODING 327
SWIDTH 480 0
DWIDTH 5 0
BBX 4 8 1 0
BITMAP
50
20
90
D0
D0
B0
B0
90
ENDCHAR
STARTCHAR uni006E
ENCODING 328
SWIDTH 480 0
DWIDTH 5 0
BBX 4 8 1 0
BITMAP
50
20
00
E0
90
90
90
90
ENDCHAR
STARTCHAR uni006E
ENCODING 329
SWIDTH 480 0
DWIDTH 5 0
BBX 4 8 1 0
BITMAP
80
80
00
E0
90
90
90
90
ENDCHAR
STARTCHAR uni004E
ENCODING 330
SWIDTH 480 0
DWIDTH 5 0
BBX 4 8 1 -2
BITMAP
90
D0
D0
B0
B0
90
10
60
ENDCHAR
STARTCHAR uni006E
ENCODING 331
SWIDTH 480 0
DWIDTH 5 0
BBX 4 10 1 -2
BITMAP
20
40
00
E0
90
90
90
90
10
60
ENDCHAR
STARTCHAR uni004F
ENCODING 332
SWIDTH 480 0
DWIDTH 5 0
BBX 4 8 1 0
BITMAP
F0
00
60
90
90
90
90
60
ENDCHAR
STARTCHAR uni006F
ENCODING 333
SWIDTH 480 0
DWIDTH 5 0
BBX 4 7 1 0
BITMAP
F0
00
60
90
90
90
60
ENDCHAR
STARTCHAR uni004F
ENCODING 334
SWIDTH 480 0
DWIDTH 5 0
BBX 4 9 1 0
BITMAP
90
60
00
60
90
90
90
90
60
ENDCHAR
STARTCHAR uni006F
ENCODING 335
SWIDTH 480 0
DWIDTH 5 0
BBX 4 8 1 0
BITMAP
90
60
00
60
90
90
90
60
ENDCHAR
STARTCHAR uni004F
ENCODING 336
SWIDTH 480 0
DWIDTH 5 0
BBX 4 9 1 0
BITMAP
50
A0
00
60
90
90
90
90
60
ENDCHAR
STARTCHAR uni006F
ENCODING 337
SWIDTH 480 0
DWIDTH 5 0
BBX 4 8 1 0
BITMAP
50
A0
00
60
90
90
90
60
ENDCHAR
STARTCHAR char198
ENCODING 338
SWIDTH 480 0
DWIDTH 5 0
BBX 6 6 0 0
BITMAP
7C
90
98
90
90
7C
ENDCHAR
STARTCHAR char230
ENCODING 339
SWIDTH 480 0
DWIDTH 5 0
BBX 5 5 1 0
BITMAP
70
A8
B8
A0
78
ENDCHAR
STARTCHAR uni0052
ENCODING 340
SWIDTH 480 0
DWIDTH 5 0
BBX 4 8 1 0
BITMAP
20
40
E0
90
90
E0
90
90
ENDCHAR
STARTCHAR uni0072
ENCODING 341
SWIDTH 480 0
DWIDTH 5 0
BBX 4 8 1 0
BITMAP
20
40
00
B0
C0
80
80
80
ENDCHAR
STARTCHAR uni0052
ENCODING 342
SWIDTH 480 0
DWIDTH 5 0
BBX 4 8 1 -2
BITMAP
E0
90
90
E0
90
90
40
80
ENDCHAR
STARTCHAR uni0072
ENCODING 343
SWIDTH 480 0
DWIDTH 5 0
BBX 4 7 1 -2
BITMAP
B0
C0
80
80
80
40
80
ENDCHAR
STARTCHAR uni0052
ENCODING 344
SWIDTH 480 0
DWIDTH 5 0
BBX 4 8 1 0
BITMAP
A0
40
E0
90
90
E0
90
90
ENDCHAR
STARTCHAR uni0072
ENCODING 345
SWIDTH 480 0
DWIDTH 5 0
BBX 4 8 1 0
BITMAP
A0
40
00
B0
C0
80
80
80
ENDCHAR
STARTCHAR uni0053
ENCODING 346
SWIDTH 480 0
DWIDTH 5 0
BBX 4 9 1 0
BITMAP
20
40
00
70
80
60
10
10
E0
ENDCHAR
STARTCHAR uni0073
ENCODING 347
SWIDTH 480 0
DWIDTH 5 0
BBX 4 8 1 0
BITMAP
20
40
00
70
80
60
10
E0
ENDCHAR
STARTCHAR uni0053
ENCODING 348
SWIDTH 480 0
DWIDTH 5 0
BBX 4 9 1 0
BITMAP
20
50
00
70
80
60
10
10
E0
ENDCHAR
STARTCHAR uni0073
ENCODING 349
SWIDTH 480 0
DWIDTH 5 0
BBX 4 8 1 0
BITMAP
20
50
00
70
80
60
10
E0
ENDCHAR
STARTCHAR uni0053
ENCODING 350
SWIDTH 480 0
DWIDTH 5 0
BBX 4 8 1 -2
BITMAP
70
80
60
10
10
E0
20
20
ENDCHAR
STARTCHAR uni0073
ENCODING 351
SWIDTH 480 0
DWIDTH 5 0
BBX 4 7 1 -2
BITMAP
70
80
60
10
E0
20
20
ENDCHAR
STARTCHAR uni0053
ENCODING 352
SWIDTH 480 0
DWIDTH 5 0
BBX 4 9 1 0
BITMAP
50
20
00
70
80
60
10
10
E0
ENDCHAR
STARTCHAR uni0073
ENCODING 353
SWIDTH 480 0
DWIDTH 5 0
BBX 4 8 1 0
BITMAP
50
20
00
70
80
60
10
E0
ENDCHAR
STARTCHAR uni0054
ENCODING 354
SWIDTH 480 0
DWIDTH 5 0
BBX 5 7 0 -1
BITMAP
F8
20
20
20
20
20
40
ENDCHAR
STARTCHAR uni0074
ENCODING 355
SWIDTH 480 0
DWIDTH 5 0
BBX 3 7 1 -1
BITMAP
40
E0
40
40
40
20
40
ENDCHAR
STARTCHAR uni0054
ENCODING 356
SWIDTH 480 0
DWIDTH 5 0
BBX 5 9 0 0
BITMAP
50
20
00
F8
20
20
20
20
20
ENDCHAR
STARTCHAR uni0074
ENCODING 357
SWIDTH 480 0
DWIDTH 5 0
BBX 4 8 1 0
BITMAP
30
10
40
E0
40
40
40
20
ENDCHAR
STARTCHAR uni0054
ENCODING 358
SWIDTH 480 0
DWIDTH 5 0
BBX 5 6 0 0
BITMAP
F8
20
20
70
20
20
ENDCHAR
STARTCHAR uni0074
ENCODING 359
SWIDTH 480 0
DWIDTH 5 0
BBX 3 6 1 0
BITMAP
40
E0
40
E0
40
20
ENDCHAR
STARTCHAR uni0055
ENCODING 360
SWIDTH 480 0
DWIDTH 5 0
BBX 4 9 1 0
BITMAP
50
A0
00
90
90
90
90
90
70
ENDCHAR
STARTCHAR uni0075
ENCODING 361
SWIDTH 480 0
DWIDTH 5 0
BBX 4 8 1 0
BITMAP
50
A0
00
90
90
90
90
70
ENDCHAR
STARTCHAR uni0055
ENCODING 362
SWIDTH 480 0
DWIDTH 5 0
BBX 4 8 1 0
BITMAP
F0
00
90
90
90
90
90
70
ENDCHAR
STARTCHAR uni0075
ENCODING 363
SWIDTH 480 0
DWIDTH 5 0
BBX 4 7 1 0
BITMAP
F0
00
90
90
90
90
70
ENDCHAR
STARTCHAR uni0055
ENCODING 364
SWIDTH 480 0
DWIDTH 5 0
BBX 4 9 1 0
BITMAP
90
60
00
90
90
90
90
90
70
ENDCHAR
STARTCHAR uni0075
ENCODING 365
SWIDTH 480 0
DWIDTH 5 0
BBX 4 8 1 0
BITMAP
90
60
00
90
90
90
90
70
ENDCHAR
STARTCHAR uni0055
ENCODING 366
SWIDTH 480 0
DWIDTH 5 0
BBX 4 9 1 0
BITMAP
20
50
20
90
90
90
90
90
70
ENDCHAR
STARTCHAR uni0075
ENCODING 367
SWIDTH 480 0
DWIDTH 5 0
BBX 4 8 1 0
BITMAP
20
50
20
90
90
90
90
70
ENDCHAR
STARTCHAR uni0055
ENCODING 368
SWIDTH 480 0
DWIDTH 5 0
BBX 5 9 1 0
BITMAP
48
90
00
90
90
90
90
90
70
ENDCHAR
STARTCHAR uni0075
ENCODING 369
SWIDTH 480 0
DWIDTH 5 0
BBX 5 8 1 0
BITMAP
48
90
00
90
90
90
90
70
ENDCHAR
STARTCHAR uni0055
ENCODING 370
SWIDTH 480 0
DWIDTH 5 0
BBX 4 8 1 -2
BITMAP
90
90
90
90
90
70
40
20
ENDCHAR
STARTCHAR uni0075
ENCODING 371
SWIDTH 480 0
DWIDTH 5 0
BBX 4 7 1 -2
BITMAP
90
90
90
90
70
40
20
ENDCHAR
STARTCHAR uni0077
ENCODING 372
SWIDTH 480 0
DWIDTH 5 0
BBX 4 9 1 0
BITMAP
20
50
00
90
90
90
90
F0
90
ENDCHAR
STARTCHAR uni0077
ENCODING 373
SWIDTH 480 0
DWIDTH 5 0
BBX 4 8 1 0
BITMAP
20
50
00
90
90
90
F0
90
ENDCHAR
STARTCHAR uni0059
ENCODING 374
SWIDTH 480 0
DWIDTH 5 0
BBX 5 9 0 0
BITMAP
20
50
00
88
50
20
20
20
20
ENDCHAR
STARTCHAR uni0079
ENCODING 375
SWIDTH 480 0
DWIDTH 5 0
BBX 4 10 1 -2
BITMAP
20
50
00
90
90
90
90
70
10
60
ENDCHAR
STARTCHAR uni0059
ENCODING 376
SWIDTH 480 0
DWIDTH 5 0
BBX 5 8 0 0
BITMAP
50
00
88
50
20
20
20
20
ENDCHAR
STARTCHAR uni005A
ENCODING 377
SWIDTH 480 0
DWIDTH 5 0
BBX 4 9 1 0
BITMAP
20
40
00
F0
10
20
40
80
F0
ENDCHAR
STARTCHAR uni007A
ENCODING 378
SWIDTH 480 0
DWIDTH 5 0
BBX 4 8 1 0
BITMAP
20
40
00
F0
20
40
80
F0
ENDCHAR
STARTCHAR uni005A
ENCODING 379
SWIDTH 480 0
DWIDTH 5 0
BBX 4 8 1 0
BITMAP
20
00
F0
10
20
40
80
F0
ENDCHAR
STARTCHAR uni007A
ENCODING 380
SWIDTH 480 0
DWIDTH 5 0
BBX 4 7 1 0
BITMAP
20
00
F0
20
40
80
F0
ENDCHAR
STARTCHAR uni005A
ENCODING 381
SWIDTH 480 0
DWIDTH 5 0
BBX 4 9 1 0
BITMAP
50
20
00
F0
10
20
40
80
F0
ENDCHAR
STARTCHAR uni007A
ENCODING 382
SWIDTH 480 0
DWIDTH 5 0
BBX 4 8 1 0
BITMAP
50
20
00
F0
20
40
80
F0
ENDCHAR
STARTCHAR LATIN SMALL LETTER LONG S
ENCODING 383
SWIDTH 480 0
DWIDTH 5 0
BBX 4 7 1 0
BITMAP
30
40
C0
40
40
40
40
ENDCHAR
STARTCHAR uni0062
ENCODING 384
SWIDTH 480 0
DWIDTH 5 0
BBX 5 7 0 0
BITMAP
E0
40
70
48
48
48
70
ENDCHAR
STARTCHAR uni0042
ENCODING 385
SWIDTH 480 0
DWIDTH 5 0
BBX 5 6 0 0
BITMAP
F0
48
70
48
48
70
ENDCHAR
STARTCHAR uni0042
ENCODING 386
SWIDTH 480 0
DWIDTH 5 0
BBX 5 8 1 0
BITMAP
E0
A0
80
F0
88
88
88
F0
ENDCHAR
STARTCHAR uni0042
ENCODING 387
SWIDTH 480 0
DWIDTH 5 0
BBX 4 8 1 0
BITMAP
E0
A0
80
E0
90
90
90
E0
ENDCHAR
STARTCHAR uni0062
ENCODING 388
SWIDTH 480 0
DWIDTH 5 0
BBX 6 7 0 0
BITMAP
40
C0
78
44
44
44
78
ENDCHAR
STARTCHAR uni0062
ENCODING 389
SWIDTH 480 0
DWIDTH 5 0
BBX 5 7 0 0
BITMAP
40
C0
70
48
48
48
70
ENDCHAR
STARTCHAR uni0043
ENCODING 390
SWIDTH 480 0
DWIDTH 5 0
BBX 4 6 1 0
BITMAP
E0
10
10
10
10
E0
ENDCHAR
STARTCHAR uni0043
ENCODING 391
SWIDTH 480 0
DWIDTH 5 0
BBX 5 7 1 0
BITMAP
08
70
80
80
80
80
70
ENDCHAR
STARTCHAR uni0063
ENCODING 392
SWIDTH 480 0
DWIDTH 5 0
BBX 4 5 1 0
BITMAP
70
80
80
80
70
ENDCHAR
STARTCHAR uni0044
ENCODING 393
SWIDTH 480 0
DWIDTH 5 0
BBX 5 6 0 0
BITMAP
70
48
E8
48
48
70
ENDCHAR
STARTCHAR uni0044
ENCODING 394
SWIDTH 480 0
DWIDTH 5 0
BBX 6 6 -1 0
BITMAP
78
A4
24
24
24
38
ENDCHAR
STARTCHAR uni0042
ENCODING 395
SWIDTH 480 0
DWIDTH 5 0
BBX 5 8 1 0
BITMAP
38
28
08
78
88
88
98
68
ENDCHAR
STARTCHAR uni0042
ENCODING 396
SWIDTH 480 0
DWIDTH 5 0
BBX 4 8 1 0
BITMAP
70
50
10
70
90
90
B0
50
ENDCHAR
STARTCHAR uni0045
ENCODING 398
SWIDTH 480 0
DWIDTH 5 0
BBX 5 6 0 0
BITMAP
78
88
38
08
08
78
ENDCHAR
STARTCHAR uni0065
ENCODING 399
SWIDTH 480 0
DWIDTH 5 0
BBX 4 5 1 0
BITMAP
E0
10
F0
90
60
ENDCHAR
STARTCHAR char1028
ENCODING 400
SWIDTH 480 0
DWIDTH 5 0
BBX 4 6 1 0
BITMAP
60
90
40
80
90
60
ENDCHAR
STARTCHAR uni0046
ENCODING 401
SWIDTH 480 0
DWIDTH 5 0
BBX 5 7 0 -1
BITMAP
78
40
70
40
40
40
80
ENDCHAR
STARTCHAR uni0066
ENCODING 402
SWIDTH 480 0
DWIDTH 5 0
BBX 4 8 1 -1
BITMAP
30
40
70
40
40
40
40
80
ENDCHAR
STARTCHAR uni0047
ENCODING 403
SWIDTH 480 0
DWIDTH 5 0
BBX 7 6 1 0
BITMAP
76
8A
80
B0
90
70
ENDCHAR
STARTCHAR LATIN CAPITAL LETTER GAMMA
ENCODING 404
SWIDTH 480 0
DWIDTH 5 0
BBX 5 8 0 -2
BITMAP
88
50
50
20
20
50
50
20
ENDCHAR
STARTCHAR LATIN SMALL LETTER HV
ENCODING 405
SWIDTH 480 0
DWIDTH 5 0
BBX 5 6 1 0
BITMAP
80
80
C8
A8
A8
90
ENDCHAR
STARTCHAR LATIN CAPITAL LETTER IOTA
ENCODING 406
SWIDTH 480 0
DWIDTH 5 0
BBX 3 7 1 0
BITMAP
80
80
80
80
80
A0
40
ENDCHAR
STARTCHAR uni0049
ENCODING 407
SWIDTH 480 0
DWIDTH 5 0
BBX 3 8 1 0
BITMAP
E0
00
E0
40
40
40
40
E0
ENDCHAR
STARTCHAR uni004B
ENCODING 408
SWIDTH 480 0
DWIDTH 5 0
BBX 5 6 1 0
BITMAP
90
A8
C0
A0
90
90
ENDCHAR
STARTCHAR uni006B
ENCODING 409
SWIDTH 480 0
DWIDTH 5 0
BBX 4 7 1 0
BITMAP
60
80
90
A0
E0
90
90
ENDCHAR
STARTCHAR uni0049
ENCODING 410
SWIDTH 480 0
DWIDTH 5 0
BBX 3 7 1 0
BITMAP
C0
40
40
E0
40
40
40
ENDCHAR
STARTCHAR LATIN SMALL LETTER LAMBDA WITH STROKE
ENCODING 411
SWIDTH 480 0
DWIDTH 5 0
BBX 4 6 1 0
BITMAP
40
E0
60
60
90
90
ENDCHAR
STARTCHAR LATIN CAPITAL LETTER TURNED M
ENCODING 412
SWIDTH 480 0
DWIDTH 5 0
BBX 5 5 0 0
BITMAP
A8
A8
A8
A8
78
ENDCHAR
STARTCHAR LATIN CAPITAL LETTER N WITH LEFT HOOK
ENCODING 413
SWIDTH 480 0
DWIDTH 5 0
BBX 5 6 0 -1
BITMAP
48
68
78
58
48
80
ENDCHAR
STARTCHAR uni006E
ENCODING 414
SWIDTH 480 0
DWIDTH 5 0
BBX 4 5 1 -1
BITMAP
E0
90
90
90
10
ENDCHAR
STARTCHAR GREEK SMALL LETTER THETA
ENCODING 415
SWIDTH 480 0
DWIDTH 5 0
BBX 4 5 0 0
BITMAP
60
90
F0
90
60
ENDCHAR
STARTCHAR uni004F
ENCODING 416
SWIDTH 480 0
DWIDTH 5 0
BBX 6 8 1 0
BITMAP
04
04
68
90
90
90
90
60
ENDCHAR
STARTCHAR uni006F
ENCODING 417
SWIDTH 480 0
DWIDTH 5 0
BBX 6 8 1 0
BITMAP
04
04
08
60
90
90
90
60
ENDCHAR
STARTCHAR uni004F
ENCODING 418
SWIDTH 480 0
DWIDTH 5 0
BBX 6 7 1 0
BITMAP
08
64
94
94
94
94
64
ENDCHAR
STARTCHAR uni006F
ENCODING 419
SWIDTH 480 0
DWIDTH 5 0
BBX 6 6 1 0
BITMAP
08
64
94
94
94
64
ENDCHAR
STARTCHAR uni0050
ENCODING 420
SWIDTH 480 0
DWIDTH 5 0
BBX 6 6 -1 0
BITMAP
F8
A4
24
38
20
20
ENDCHAR
STARTCHAR uni0070
ENCODING 421
SWIDTH 480 0
DWIDTH 5 0
BBX 6 9 1 -2
BITMAP
0C
14
E0
90
90
90
E0
80
80
ENDCHAR
STARTCHAR LATIN LETTER YR
ENCODING 422
SWIDTH 480 0
DWIDTH 5 0
BBX 5 8 0 -1
BITMAP
80
E0
90
90
E0
A0
90
08
ENDCHAR
STARTCHAR uni0053
ENCODING 423
SWIDTH 480 0
DWIDTH 5 0
BBX 4 6 1 0
BITMAP
E0
10
60
80
80
70
ENDCHAR
STARTCHAR uni0073
ENCODING 424
SWIDTH 480 0
DWIDTH 5 0
BBX 4 5 1 0
BITMAP
E0
10
60
80
70
ENDCHAR
STARTCHAR GREEK CAPITAL LETTER SIGMA
ENCODING 425
SWIDTH 480 0
DWIDTH 5 0
BBX 5 6 0 0
BITMAP
F8
48
20
40
88
F8
ENDCHAR
STARTCHAR LATIN LETTER REVERSED ESH LOOP
ENCODING 426
SWIDTH 480 0
DWIDTH 5 0
BBX 5 8 0 -1
BITMAP
40
A0
60
20
20
20
20
18
ENDCHAR
STARTCHAR uni0074
ENCODING 427
SWIDTH 480 0
DWIDTH 5 0
BBX 3 7 1 -1
BITMAP
40
E0
40
40
40
20
40
ENDCHAR
STARTCHAR uni0054
ENCODING 428
SWIDTH 480 0
DWIDTH 5 0
BBX 5 6 0 0
BITMAP
F8
28
20
20
20
20
ENDCHAR
STARTCHAR uni0074
ENCODING 429
SWIDTH 480 0
DWIDTH 5 0
BBX 3 7 1 0
BITMAP
20
40
E0
40
40
40
20
ENDCHAR
STARTCHAR uni0054
ENCODING 430
SWIDTH 480 0
DWIDTH 5 0
BBX 5 6 0 0
BITMAP
F8
A8
20
20
20
20
ENDCHAR
STARTCHAR uni0055
ENCODING 431
SWIDTH 480 0
DWIDTH 5 0
BBX 5 7 1 0
BITMAP
08
98
90
90
90
90
70
ENDCHAR
STARTCHAR uni0075
ENCODING 432
SWIDTH 480 0
DWIDTH 5 0
BBX 5 6 1 0
BITMAP
08
98
90
90
90
70
ENDCHAR
STARTCHAR LATIN CAPITAL LETTER UPSILON
ENCODING 433
SWIDTH 480 0
DWIDTH 5 0
BBX 5 7 0 0
BITMAP
D8
50
88
88
88
88
70
ENDCHAR
STARTCHAR LATIN CAPITAL LETTER V WITH HOOK
ENCODING 434
SWIDTH 480 0
DWIDTH 5 0
BBX 5 7 0 0
BITMAP
90
88
88
88
88
88
70
ENDCHAR
STARTCHAR uni0059
ENCODING 435
SWIDTH 480 0
DWIDTH 5 0
BBX 6 7 0 0
BITMAP
04
8C
50
20
20
20
20
ENDCHAR
STARTCHAR uni0079
ENCODING 436
SWIDTH 480 0
DWIDTH 5 0
BBX 5 8 1 -2
BITMAP
08
98
90
90
90
70
10
60
ENDCHAR
STARTCHAR uni005A
ENCODING 437
SWIDTH 480 0
DWIDTH 5 0
BBX 5 6 1 0
BITMAP
F0
10
F8
40
80
F0
ENDCHAR
STARTCHAR uni007A
ENCODING 438
SWIDTH 480 0
DWIDTH 5 0
BBX 4 5 1 0
BITMAP
F0
20
F0
80
F0
ENDCHAR
STARTCHAR LATIN CAPITAL LETTER EZH
ENCODING 439
SWIDTH 480 0
DWIDTH 5 0
BBX 4 6 1 0
BITMAP
F0
10
20
10
90
60
ENDCHAR
STARTCHAR LATIN CAPITAL LETTER EZH
ENCODING 440
SWIDTH 480 0
DWIDTH 5 0
BBX 4 6 1 0
BITMAP
F0
80
40
80
90
60
ENDCHAR
STARTCHAR LATIN CAPITAL LETTER EZH
ENCODING 441
SWIDTH 480 0
DWIDTH 5 0
BBX 4 6 1 -1
BITMAP
F0
80
40
80
90
60
ENDCHAR
STARTCHAR LATIN CAPITAL LETTER EZH
ENCODING 442
SWIDTH 480 0
DWIDTH 5 0
BBX 6 8 0 -2
BITMAP
78
08
10
08
48
B0
44
38
ENDCHAR
STARTCHAR LATIN LETTER TWO WITH STROKE
ENCODING 443
SWIDTH 480 0
DWIDTH 5 0
BBX 5 7 0 0
BITMAP
70
88
08
F8
20
40
F8
ENDCHAR
STARTCHAR LATIN CAPITAL LETTER TONE FIVE
ENCODING 444
SWIDTH 480 0
DWIDTH 5 0
BBX 5 7 0 0
BITMAP
F8
40
70
08
08
88
70
ENDCHAR
STARTCHAR LATIN SMALL LETTER TONE FIVE
ENCODING 445
SWIDTH 480 0
DWIDTH 5 0
BBX 5 6 0 0
BITMAP
F8
40
70
08
88
70
ENDCHAR
STARTCHAR LATIN LETTER INVERTED GLOTTAL STOP WITH STROKE
ENCODING 446
SWIDTH 480 0
DWIDTH 5 0
BBX 5 7 0 1
BITMAP
20
70
20
10
08
88
70
ENDCHAR
STARTCHAR LATIN LETTER WYNN
ENCODING 447
SWIDTH 480 0
DWIDTH 5 0
BBX 4 7 0 0
BITMAP
A0
D0
90
A0
C0
80
80
ENDCHAR
STARTCHAR LATIN LETTER DENTAL CLICK
ENCODING 448
SWIDTH 480 0
DWIDTH 5 0
BBX 3 10 0 -2
BITMAP
20
20
20
20
20
20
20
20
20
20
ENDCHAR
STARTCHAR LATIN LETTER LATERAL CLICK
ENCODING 449
SWIDTH 480 0
DWIDTH 5 0
BBX 3 10 0 -2
BITMAP
A0
A0
A0
A0
A0
A0
A0
A0
A0
A0
ENDCHAR
STARTCHAR LATIN LETTER ALVEOLAR CLICK
ENCODING 450
SWIDTH 480 0
DWIDTH 5 0
BBX 5 10 0 -2
BITMAP
20
20
20
F8
20
20
F8
20
20
20
ENDCHAR
STARTCHAR LATIN LETTER RETROFLEX CLICK
ENCODING 451
SWIDTH 480 0
DWIDTH 5 0
BBX 3 7 0 0
BITMAP
20
20
20
20
20
00
20
ENDCHAR
STARTCHAR LATIN CAPITAL LETTER DZ WITH CARON
ENCODING 452
SWIDTH 480 0
DWIDTH 5 0
BBX 6 9 0 0
BITMAP
14
08
C0
BC
A4
A8
A8
B0
DC
ENDCHAR
STARTCHAR LATIN CAPITAL LETTER D WITH SMALL LETTER Z WITH CARON
ENCODING 453
SWIDTH 480 0
DWIDTH 5 0
BBX 6 8 0 0
BITMAP
14
C8
A0
BC
A4
A8
B0
DC
ENDCHAR
STARTCHAR LATIN SMALL LETTER DZ WITH CARON
ENCODING 454
SWIDTH 480 0
DWIDTH 5 0
BBX 6 9 0 0
BITMAP
20
34
28
20
7C
A4
A8
B0
7C
ENDCHAR
STARTCHAR LATIN CAPITAL LETTER LJ
ENCODING 455
SWIDTH 480 0
DWIDTH 5 0
BBX 5 7 0 0
BITMAP
88
88
88
88
88
A8
D0
ENDCHAR
STARTCHAR LATIN CAPITAL LETTER L WITH SMALL LETTER J
ENCODING 456
SWIDTH 480 0
DWIDTH 5 0
BBX 5 9 0 -2
BITMAP
88
80
98
88
88
88
E8
08
30
ENDCHAR
STARTCHAR LATIN SMALL LETTER LJ
ENCODING 457
SWIDTH 480 0
DWIDTH 5 0
BBX 5 9 0 -2
BITMAP
C8
40
58
48
48
48
68
08
30
ENDCHAR
STARTCHAR LATIN CAPITAL LETTER NJ
ENCODING 458
SWIDTH 480 0
DWIDTH 5 0
BBX 5 7 0 0
BITMAP
A8
A8
E8
E8
E8
A8
B0
ENDCHAR
STARTCHAR LATIN CAPITAL LETTER N WITH SMALL LETTER J
ENCODING 459
SWIDTH 480 0
DWIDTH 5 0
BBX 5 9 0 -2
BITMAP
A8
A0
F8
E8
E8
A8
A8
08
30
ENDCHAR
STARTCHAR LATIN SMALL LETTER NJ
ENCODING 460
SWIDTH 480 0
DWIDTH 5 0
BBX 5 9 0 -2
BITMAP
08
00
D8
A8
A8
A8
A8
08
30
ENDCHAR
STARTCHAR uni0041
ENCODING 461
SWIDTH 480 0
DWIDTH 5 0
BBX 4 8 1 0
BITMAP
90
60
00
60
90
F0
90
90
ENDCHAR
STARTCHAR uni0061
ENCODING 462
SWIDTH 480 0
DWIDTH 5 0
BBX 4 8 1 0
BITMAP
90
60
00
70
90
90
B0
50
ENDCHAR
STARTCHAR uni0049
ENCODING 463
SWIDTH 480 0
DWIDTH 5 0
BBX 3 8 1 0
BITMAP
A0
40
00
E0
40
40
40
E0
ENDCHAR
STARTCHAR uni0069
ENCODING 464
SWIDTH 480 0
DWIDTH 5 0
BBX 3 8 2 0
BITMAP
A0
40
00
C0
40
40
40
40
ENDCHAR
STARTCHAR uni004F
ENCODING 465
SWIDTH 480 0
DWIDTH 5 0
BBX 4 8 1 0
BITMAP
90
60
00
60
90
90
90
60
ENDCHAR
STARTCHAR uni004F
ENCODING 466
SWIDTH 480 0
DWIDTH 5 0
BBX 4 7 1 0
BITMAP
90
60
00
60
90
90
60
ENDCHAR
STARTCHAR uni0055
ENCODING 467
SWIDTH 480 0
DWIDTH 5 0
BBX 4 8 1 0
BITMAP
50
20
90
90
90
90
90
70
ENDCHAR
STARTCHAR uni0075
ENCODING 468
SWIDTH 480 0
DWIDTH 5 0
BBX 4 7 1 0
BITMAP
90
60
00
90
90
90
70
ENDCHAR
STARTCHAR uni0055
ENCODING 469
SWIDTH 480 0
DWIDTH 5 0
BBX 4 8 1 0
BITMAP
F0
20
90
90
90
90
90
70
ENDCHAR
STARTCHAR uni0075
ENCODING 470
SWIDTH 480 0
DWIDTH 5 0
BBX 4 8 1 0
BITMAP
F0
60
00
90
90
90
90
70
ENDCHAR
STARTCHAR uni0055
ENCODING 471
SWIDTH 480 0
DWIDTH 5 0
BBX 4 8 1 0
BITMAP
20
40
D0
90
90
90
90
70
ENDCHAR
STARTCHAR uni0075
ENCODING 472
SWIDTH 480 0
DWIDTH 5 0
BBX 4 8 1 0
BITMAP
20
60
00
90
90
90
90
70
ENDCHAR
STARTCHAR uni0055
ENCODING 473
SWIDTH 480 0
DWIDTH 5 0
BBX 4 8 1 0
BITMAP
50
20
D0
90
90
90
90
70
ENDCHAR
STARTCHAR uni0075
ENCODING 474
SWIDTH 480 0
DWIDTH 5 0
BBX 4 8 1 0
BITMAP
50
20
50
00
90
90
90
70
ENDCHAR
STARTCHAR uni0055
ENCODING 475
SWIDTH 480 0
DWIDTH 5 0
BBX 4 8 1 0
BITMAP
40
20
B0
90
90
90
90
70
ENDCHAR
STARTCHAR uni0075
ENCODING 476
SWIDTH 480 0
DWIDTH 5 0
BBX 4 8 1 0
BITMAP
40
60
00
90
90
90
90
70
ENDCHAR
STARTCHAR uni0065
ENCODING 477
SWIDTH 480 0
DWIDTH 5 0
BBX 4 5 1 0
BITMAP
E0
10
F0
90
60
ENDCHAR
STARTCHAR uni0041
ENCODING 478
SWIDTH 480 0
DWIDTH 5 0
BBX 4 8 1 0
BITMAP
F0
A0
00
60
90
F0
90
90
ENDCHAR
STARTCHAR uni0061
ENCODING 479
SWIDTH 480 0
DWIDTH 5 0
BBX 4 8 1 0
BITMAP
F0
A0
00
70
90
90
B0
50
ENDCHAR
STARTCHAR uni0041
ENCODING 480
SWIDTH 480 0
DWIDTH 5 0
BBX 4 8 1 0
BITMAP
F0
60
00
60
90
F0
90
90
ENDCHAR
STARTCHAR uni0061
ENCODING 481
SWIDTH 480 0
DWIDTH 5 0
BBX 4 8 1 0
BITMAP
F0
60
00
70
90
90
B0
50
ENDCHAR
STARTCHAR LATIN CAPITAL LETTER AE WITH MACRON
ENCODING 482
SWIDTH 480 0
DWIDTH 5 0
BBX 5 9 0 0
BITMAP
70
00
78
A0
A0
F0
A0
A0
B8
ENDCHAR
STARTCHAR LATIN SMALL LETTER AE WITH MACRON
ENCODING 483
SWIDTH 480 0
DWIDTH 5 0
BBX 5 7 0 0
BITMAP
70
00
70
A8
B8
A0
78
ENDCHAR
STARTCHAR uni0047
ENCODING 484
SWIDTH 480 0
DWIDTH 5 0
BBX 4 6 1 0
BITMAP
70
80
80
B0
B0
70
ENDCHAR
STARTCHAR uni0067
ENCODING 485
SWIDTH 480 0
DWIDTH 5 0
BBX 4 7 1 -2
BITMAP
70
90
90
B0
70
50
60
ENDCHAR
STARTCHAR uni0047
ENCODING 486
SWIDTH 480 0
DWIDTH 5 0
BBX 4 8 1 0
BITMAP
50
20
00
70
80
B0
90
70
ENDCHAR
STARTCHAR uni0067
ENCODING 487
SWIDTH 480 0
DWIDTH 5 0
BBX 4 10 1 -2
BITMAP
50
20
00
70
90
90
B0
50
10
60
ENDCHAR
STARTCHAR uni004B
ENCODING 488
SWIDTH 480 0
DWIDTH 5 0
BBX 4 6 1 0
BITMAP
90
A0
C0
A0
90
90
ENDCHAR
STARTCHAR uni006B
ENCODING 489
SWIDTH 480 0
DWIDTH 5 0
BBX 4 7 1 0
BITMAP
80
80
90
A0
E0
90
90
ENDCHAR
STARTCHAR uni0051
ENCODING 490
SWIDTH 480 0
DWIDTH 5 0
BBX 4 7 1 -1
BITMAP
60
90
90
90
90
60
30
ENDCHAR
STARTCHAR uni0051
ENCODING 491
SWIDTH 480 0
DWIDTH 5 0
BBX 4 6 1 -1
BITMAP
60
90
90
90
60
30
ENDCHAR
STARTCHAR uni0051
ENCODING 492
SWIDTH 480 0
DWIDTH 5 0
BBX 4 9 1 -1
BITMAP
50
20
60
90
90
90
90
60
30
ENDCHAR
STARTCHAR uni0051
ENCODING 493
SWIDTH 480 0
DWIDTH 5 0
BBX 4 9 1 -1
BITMAP
50
20
00
60
90
90
90
60
30
ENDCHAR
STARTCHAR LATIN CAPITAL LETTER EZH
ENCODING 494
SWIDTH 480 0
DWIDTH 5 0
BBX 4 8 1 0
BITMAP
50
20
F0
10
20
10
90
60
ENDCHAR
STARTCHAR LATIN CAPITAL LETTER EZH
ENCODING 495
SWIDTH 480 0
DWIDTH 5 0
BBX 4 9 1 -1
BITMAP
50
20
00
F0
10
20
10
90
60
ENDCHAR
STARTCHAR uni006A
ENCODING 496
SWIDTH 480 0
DWIDTH 5 0
BBX 4 10 1 -2
BITMAP
50
20
00
60
20
20
20
20
20
C0
ENDCHAR
STARTCHAR LATIN CAPITAL LETTER DZ
ENCODING 497
SWIDTH 480 0
DWIDTH 5 0
BBX 6 7 0 0
BITMAP
DC
A4
A8
A8
A8
B0
DC
ENDCHAR
STARTCHAR LATIN CAPITAL LETTER D WITH SMALL LETTER Z
ENCODING 498
SWIDTH 480 0
DWIDTH 5 0
BBX 6 7 0 0
BITMAP
C0
A0
BC
A4
A8
B0
DC
ENDCHAR
STARTCHAR LATIN SMALL LETTER DZ
ENCODING 499
SWIDTH 480 0
DWIDTH 5 0
BBX 6 7 0 0
BITMAP
20
20
7C
A4
A8
B0
7C
ENDCHAR
STARTCHAR uni0047
ENCODING 500
SWIDTH 480 0
DWIDTH 5 0
BBX 4 8 1 0
BITMAP
50
20
70
80
80
B0
90
70
ENDCHAR
STARTCHAR uni0067
ENCODING 501
SWIDTH 480 0
DWIDTH 5 0
BBX 4 10 1 -2
BITMAP
50
20
00
70
90
90
B0
50
10
60
ENDCHAR
STARTCHAR LATIN CAPITAL LETTER HWAIR
ENCODING 502
SWIDTH 480 0
DWIDTH 5 0
BBX 5 7 0 0
BITMAP
A0
A0
A8
E8
A8
A8
90
ENDCHAR
STARTCHAR LATIN CAPITAL LETTER WYNN
ENCODING 503
SWIDTH 480 0
DWIDTH 5 0
BBX 5 7 0 0
BITMAP
B0
C8
88
90
A0
C0
80
ENDCHAR
STARTCHAR uni004E
ENCODING 504
SWIDTH 480 0
DWIDTH 5 0
BBX 4 8 1 0
BITMAP
40
20
90
D0
D0
B0
B0
90
ENDCHAR
STARTCHAR uni006E
ENCODING 505
SWIDTH 480 0
DWIDTH 5 0
BBX 4 8 1 0
BITMAP
40
20
00
E0
90
90
90
90
ENDCHAR
STARTCHAR uni0041
ENCODING 506
SWIDTH 480 0
DWIDTH 5 0
BBX 4 8 1 0
BITMAP
60
C0
40
60
90
F0
90
90
ENDCHAR
STARTCHAR uni0061
ENCODING 507
SWIDTH 480 0
DWIDTH 5 0
BBX 4 8 1 0
BITMAP
60
C0
40
70
90
90
B0
50
ENDCHAR
STARTCHAR char198
ENCODING 508
SWIDTH 480 0
DWIDTH 5 0
BBX 6 8 0 0
BITMAP
10
20
7C
90
98
F0
90
9C
ENDCHAR
STARTCHAR char230
ENCODING 509
SWIDTH 480 0
DWIDTH 5 0
BBX 5 7 1 0
BITMAP
10
20
70
A8
B8
A0
58
ENDCHAR
STARTCHAR char216
ENCODING 510
SWIDTH 480 0
DWIDTH 5 0
BBX 6 8 0 0
BITMAP
08
14
34
58
58
68
68
B0
ENDCHAR
STARTCHAR char248
ENCODING 511
SWIDTH 480 0
DWIDTH 5 0
BBX 6 8 0 0
BITMAP
08
14
00
34
58
78
68
B0
ENDCHAR
STARTCHAR uni0041
ENCODING 512
SWIDTH 480 0
DWIDTH 5 0
BBX 4 8 1 0
BITMAP
A0
50
60
90
90
F0
90
90
ENDCHAR
STARTCHAR uni0061
ENCODING 513
SWIDTH 480 0
DWIDTH 5 0
BBX 4 8 1 0
BITMAP
A0
50
00
70
90
90
B0
50
ENDCHAR
STARTCHAR uni0041
ENCODING 514
SWIDTH 480 0
DWIDTH 5 0
BBX 4 8 1 0
BITMAP
60
90
60
90
90
F0
90
90
ENDCHAR
STARTCHAR uni0061
ENCODING 515
SWIDTH 480 0
DWIDTH 5 0
BBX 4 8 1 0
BITMAP
60
90
00
70
90
90
B0
50
ENDCHAR
STARTCHAR uni0045
ENCODING 516
SWIDTH 480 0
DWIDTH 5 0
BBX 4 8 1 0
BITMAP
A0
50
F0
80
E0
80
80
F0
ENDCHAR
STARTCHAR uni0065
ENCODING 517
SWIDTH 480 0
DWIDTH 5 0
BBX 4 8 1 0
BITMAP
A0
50
00
60
90
F0
80
70
ENDCHAR
STARTCHAR uni0045
ENCODING 518
SWIDTH 480 0
DWIDTH 5 0
BBX 4 8 1 0
BITMAP
60
90
F0
80
E0
80
80
F0
ENDCHAR
STARTCHAR uni0065
ENCODING 519
SWIDTH 480 0
DWIDTH 5 0
BBX 4 7 1 0
BITMAP
60
90
60
90
F0
80
70
ENDCHAR
STARTCHAR uni0049
ENCODING 520
SWIDTH 480 0
DWIDTH 5 0
BBX 4 8 1 0
BITMAP
A0
50
E0
40
40
40
40
E0
ENDCHAR
STARTCHAR uni0069
ENCODING 521
SWIDTH 480 0
DWIDTH 5 0
BBX 4 8 1 0
BITMAP
A0
50
00
60
20
20
20
20
ENDCHAR
STARTCHAR uni0049
ENCODING 522
SWIDTH 480 0
DWIDTH 5 0
BBX 5 8 0 0
BITMAP
70
88
00
70
20
20
20
70
ENDCHAR
STARTCHAR uni0069
ENCODING 523
SWIDTH 480 0
DWIDTH 5 0
BBX 4 8 1 0
BITMAP
60
90
00
00
60
20
20
20
ENDCHAR
STARTCHAR LATIN CAPITAL LETTER O WITH DOUBLE GRAVE
ENCODING 524
SWIDTH 480 0
DWIDTH 5 0
BBX 5 9 0 0
BITMAP
A0
50
00
30
48
48
48
48
30
ENDCHAR
STARTCHAR LATIN SMALL LETTER O WITH DOUBLE GRAVE
ENCODING 525
SWIDTH 480 0
DWIDTH 5 0
BBX 5 8 0 0
BITMAP
A0
50
00
30
48
48
48
30
ENDCHAR
STARTCHAR LATIN CAPITAL LETTER O WITH INVERTED BREVE
ENCODING 526
SWIDTH 480 0
DWIDTH 5 0
BBX 4 9 1 0
BITMAP
60
90
00
60
90
90
90
90
60
ENDCHAR
STARTCHAR LATIN SMALL LETTER O WITH INVERTED BREVE
ENCODING 527
SWIDTH 480 0
DWIDTH 5 0
BBX 4 8 1 0
BITMAP
60
90
00
60
90
90
90
60
ENDCHAR
STARTCHAR uni0052
ENCODING 528
SWIDTH 480 0
DWIDTH 5 0
BBX 4 8 1 0
BITMAP
A0
50
E0
90
90
E0
90
90
ENDCHAR
STARTCHAR uni0072
ENCODING 529
SWIDTH 480 0
DWIDTH 5 0
BBX 4 8 1 0
BITMAP
A0
50
00
B0
C0
80
80
80
ENDCHAR
STARTCHAR uni0052
ENCODING 530
SWIDTH 480 0
DWIDTH 5 0
BBX 4 8 1 0
BITMAP
60
90
E0
90
90
E0
90
90
ENDCHAR
STARTCHAR uni0072
ENCODING 531
SWIDTH 480 0
DWIDTH 5 0
BBX 4 8 1 0
BITMAP
60
90
00
B0
C0
80
80
80
ENDCHAR
STARTCHAR uni0055
ENCODING 532
SWIDTH 480 0
DWIDTH 5 0
BBX 4 8 1 0
BITMAP
A0
50
80
90
90
90
90
70
ENDCHAR
STARTCHAR uni0075
ENCODING 533
SWIDTH 480 0
DWIDTH 5 0
BBX 4 8 1 0
BITMAP
A0
50
00
90
90
90
90
70
ENDCHAR
STARTCHAR uni0055
ENCODING 534
SWIDTH 480 0
DWIDTH 5 0
BBX 4 8 1 0
BITMAP
60
90
00
90
90
90
90
70
ENDCHAR
STARTCHAR uni0075
ENCODING 535
SWIDTH 480 0
DWIDTH 5 0
BBX 4 8 1 0
BITMAP
60
90
00
00
90
90
90
70
ENDCHAR
STARTCHAR uni0053
ENCODING 536
SWIDTH 480 0
DWIDTH 5 0
BBX 4 7 1 -1
BITMAP
70
80
60
10
10
E0
40
ENDCHAR
STARTCHAR uni0073
ENCODING 537
SWIDTH 480 0
DWIDTH 5 0
BBX 4 6 1 -1
BITMAP
70
80
60
10
E0
40
ENDCHAR
STARTCHAR uni0054
ENCODING 538
SWIDTH 480 0
DWIDTH 5 0
BBX 5 7 0 -1
BITMAP
F8
20
20
20
20
20
40
ENDCHAR
STARTCHAR uni0074
ENCODING 539
SWIDTH 480 0
DWIDTH 5 0
BBX 3 7 1 -1
BITMAP
40
E0
40
40
40
60
80
ENDCHAR
STARTCHAR LATIN CAPITAL LETTER YOGH
ENCODING 540
SWIDTH 480 0
DWIDTH 5 0
BBX 4 8 1 -1
BITMAP
60
90
10
60
90
10
60
80
ENDCHAR
STARTCHAR LATIN SMALL LETTER YOGH
ENCODING 541
SWIDTH 480 0
DWIDTH 5 0
BBX 4 6 1 0
BITMAP
60
10
60
90
20
C0
ENDCHAR
STARTCHAR uni0048
ENCODING 542
SWIDTH 480 0
DWIDTH 5 0
BBX 4 8 1 0
BITMAP
50
20
90
90
F0
90
90
90
ENDCHAR
STARTCHAR uni0068
ENCODING 543
SWIDTH 480 0
DWIDTH 5 0
BBX 4 8 1 0
BITMAP
50
A0
80
E0
90
90
90
90
ENDCHAR
STARTCHAR LATIN CAPITAL LETTER N WITH LONG RIGHT LEG
ENCODING 544
SWIDTH 480 0
DWIDTH 5 0
BBX 5 8 1 -2
BITMAP
B0
C8
88
88
88
88
08
08
ENDCHAR
STARTCHAR LATIN SMALL LETTER D WITH CURL
ENCODING 545
SWIDTH 480 0
DWIDTH 5 0
BBX 6 8 0 -1
BITMAP
10
10
70
90
90
98
74
28
ENDCHAR
STARTCHAR LATIN CAPITAL LETTER OU
ENCODING 546
SWIDTH 480 0
DWIDTH 5 0
BBX 5 8 0 0
BITMAP
30
08
48
88
70
88
88
70
ENDCHAR
STARTCHAR LATIN SMALL LETTER OU
ENCODING 547
SWIDTH 480 0
DWIDTH 5 0
BBX 5 7 0 0
BITMAP
50
88
88
70
88
88
70
ENDCHAR
STARTCHAR uni005A
ENCODING 548
SWIDTH 480 0
DWIDTH 5 0
BBX 5 7 1 -1
BITMAP
F0
10
20
40
80
F0
08
ENDCHAR
STARTCHAR uni007A
ENCODING 549
SWIDTH 480 0
DWIDTH 5 0
BBX 5 6 1 -1
BITMAP
F0
20
40
80
F0
08
ENDCHAR
STARTCHAR uni0041
ENCODING 550
SWIDTH 480 0
DWIDTH 5 0
BBX 4 8 1 0
BITMAP
20
00
60
90
90
F0
90
90
ENDCHAR
STARTCHAR uni0061
ENCODING 551
SWIDTH 480 0
DWIDTH 5 0
BBX 4 7 1 0
BITMAP
20
00
70
90
90
B0
50
ENDCHAR
STARTCHAR uni0045
ENCODING 552
SWIDTH 480 0
DWIDTH 5 0
BBX 4 7 1 -1
BITMAP
F0
80
E0
80
80
F0
40
ENDCHAR
STARTCHAR uni0065
ENCODING 553
SWIDTH 480 0
DWIDTH 5 0
BBX 4 6 1 -1
BITMAP
60
90
F0
80
70
80
ENDCHAR
STARTCHAR LATIN CAPITAL LETTER O WITH INVERTED BREVE
ENCODING 554
SWIDTH 480 0
DWIDTH 5 0
BBX 4 8 1 0
BITMAP
F0
00
90
60
90
90
90
60
ENDCHAR
STARTCHAR LATIN SMALL LETTER O WITH INVERTED BREVE
ENCODING 555
SWIDTH 480 0
DWIDTH 5 0
BBX 4 8 1 0
BITMAP
F0
00
90
00
60
90
90
60
ENDCHAR
STARTCHAR LATIN CAPITAL LETTER O WITH INVERTED BREVE
ENCODING 556
SWIDTH 480 0
DWIDTH 5 0
BBX 4 9 1 0
BITMAP
70
50
A0
60
90
90
90
90
60
ENDCHAR
STARTCHAR LATIN SMALL LETTER O WITH INVERTED BREVE
ENCODING 557
SWIDTH 480 0
DWIDTH 5 0
BBX 4 9 1 0
BITMAP
E0
50
A0
00
60
90
90
90
60
ENDCHAR
STARTCHAR LATIN CAPITAL LETTER O WITH INVERTED BREVE
ENCODING 558
SWIDTH 480 0
DWIDTH 5 0
BBX 4 8 1 0
BITMAP
20
00
60
90
90
90
90
60
ENDCHAR
STARTCHAR LATIN SMALL LETTER O WITH INVERTED BREVE
ENCODING 559
SWIDTH 480 0
DWIDTH 5 0
BBX 4 8 1 0
BITMAP
20
00
00
60
90
90
90
60
ENDCHAR
STARTCHAR LATIN CAPITAL LETTER O WITH INVERTED BREVE
ENCODING 560
SWIDTH 480 0
DWIDTH 5 0
BBX 4 8 1 0
BITMAP
F0
00
20
60
90
90
90
60
ENDCHAR
STARTCHAR LATIN SMALL LETTER O WITH INVERTED BREVE
ENCODING 561
SWIDTH 480 0
DWIDTH 5 0
BBX 4 8 1 0
BITMAP
F0
00
20
00
60
90
90
60
ENDCHAR
STARTCHAR uni0059
ENCODING 562
SWIDTH 480 0
DWIDTH 5 0
BBX 5 8 0 0
BITMAP
70
00
88
50
20
20
20
20
ENDCHAR
STARTCHAR uni0079
ENCODING 563
SWIDTH 480 0
DWIDTH 5 0
BBX 4 9 1 -2
BITMAP
60
00
90
90
90
90
70
10
60
ENDCHAR
STARTCHAR LATIN SMALL LETTER L WITH CURL
ENCODING 564
SWIDTH 480 0
DWIDTH 5 0
BBX 5 7 0 0
BITMAP
60
20
20
20
30
68
30
ENDCHAR
STARTCHAR LATIN SMALL LETTER N WITH CURL
ENCODING 565
SWIDTH 480 0
DWIDTH 5 0
BBX 6 6 0 -1
BITMAP
B0
C8
88
98
B4
08
ENDCHAR
STARTCHAR LATIN SMALL LETTER T WITH CURL
ENCODING 566
SWIDTH 480 0
DWIDTH 5 0
BBX 5 7 1 0
BITMAP
40
40
F0
40
50
68
70
ENDCHAR
STARTCHAR LATIN SMALL LETTER DOTLESS J
ENCODING 567
SWIDTH 480 0
DWIDTH 5 0
BBX 3 7 0 -2
BITMAP
60
20
20
20
20
20
C0
ENDCHAR
STARTCHAR LATIN SMALL LETTER DB DIGRAPH
ENCODING 568
SWIDTH 480 0
DWIDTH 5 0
BBX 5 7 0 0
BITMAP
20
20
70
A8
A8
A8
70
ENDCHAR
STARTCHAR LATIN SMALL LETTER QP DIGRAPH
ENCODING 569
SWIDTH 480 0
DWIDTH 5 0
BBX 5 7 0 -2
BITMAP
70
A8
A8
A8
70
20
20
ENDCHAR
STARTCHAR uni0041
ENCODING 570
SWIDTH 480 0
DWIDTH 5 0
BBX 5 7 0 0
BITMAP
08
30
58
68
78
48
C8
ENDCHAR
STARTCHAR uni0043
ENCODING 571
SWIDTH 480 0
DWIDTH 5 0
BBX 5 7 0 0
BITMAP
08
38
50
60
60
C0
B8
ENDCHAR
STARTCHAR uni0063
ENCODING 572
SWIDTH 480 0
DWIDTH 5 0
BBX 5 6 0 0
BITMAP
08
38
50
60
40
B8
ENDCHAR
STARTCHAR LATIN CAPITAL LETTER L WITH BAR
ENCODING 573
SWIDTH 480 0
DWIDTH 5 0
BBX 6 7 0 0
BITMAP
40
40
40
F0
40
40
7C
ENDCHAR
STARTCHAR LATIN CAPITAL LETTER T WITH DIAGONAL STROKE
ENCODING 574
SWIDTH 480 0
DWIDTH 5 0
BBX 5 8 0 0
BITMAP
08
F8
30
30
60
60
A0
A0
ENDCHAR
STARTCHAR uni0073
ENCODING 575
SWIDTH 480 0
DWIDTH 5 0
BBX 5 7 1 -2
BITMAP
70
80
60
10
E0
48
30
ENDCHAR
STARTCHAR uni007A
ENCODING 576
SWIDTH 480 0
DWIDTH 5 0
BBX 4 7 1 -2
BITMAP
F0
20
40
80
F0
40
30
ENDCHAR
STARTCHAR LATIN CAPITAL LETTER GLOTTAL STOP
ENCODING 577
SWIDTH 480 0
DWIDTH 5 0
BBX 5 7 0 1
BITMAP
70
88
08
10
20
20
20
ENDCHAR
STARTCHAR LATIN SMALL LETTER GLOTTAL STOP
ENCODING 578
SWIDTH 480 0
DWIDTH 5 0
BBX 5 6 0 1
BITMAP
70
88
08
10
20
20
ENDCHAR
STARTCHAR uni0042
ENCODING 579
SWIDTH 480 0
DWIDTH 5 0
BBX 6 6 0 0
BITMAP
70
4C
70
68
C8
70
ENDCHAR
STARTCHAR uni0041
ENCODING 580
SWIDTH 480 0
DWIDTH 5 0
BBX 4 6 1 0
BITMAP
90
90
F0
90
90
60
ENDCHAR
STARTCHAR uni0056
ENCODING 581
SWIDTH 480 0
DWIDTH 5 0
BBX 4 6 1 0
BITMAP
60
60
60
90
90
90
ENDCHAR
STARTCHAR LATIN CAPITAL LETTER E WITH STROKE
ENCODING 582
SWIDTH 480 0
DWIDTH 5 0
BBX 5 10 0 -2
BITMAP
08
F8
90
90
F0
A0
C0
F8
80
80
ENDCHAR
STARTCHAR LATIN SMALL LETTER E WITH STROKE
ENCODING 583
SWIDTH 480 0
DWIDTH 5 0
BBX 5 10 0 -2
BITMAP
08
08
10
70
A8
F8
C0
70
80
80
ENDCHAR
STARTCHAR LATIN CAPITAL LETTER J WITH STROKE
ENCODING 584
SWIDTH 480 0
DWIDTH 5 0
BBX 6 7 0 0
BITMAP
08
08
08
1C
08
88
70
ENDCHAR
STARTCHAR LATIN SMALL LETTER J WITH STROKE
ENCODING 585
SWIDTH 480 0
DWIDTH 5 0
BBX 5 9 -1 -2
BITMAP
10
00
30
10
38
10
10
10
60
ENDCHAR
STARTCHAR uni0071
ENCODING 586
SWIDTH 480 0
DWIDTH 5 0
BBX 5 8 1 -2
BITMAP
70
90
90
90
90
70
10
08
ENDCHAR
STARTCHAR uni0071
ENCODING 587
SWIDTH 480 0
DWIDTH 5 0
BBX 5 7 1 -2
BITMAP
70
90
90
90
70
10
08
ENDCHAR
STARTCHAR uni0052
ENCODING 588
SWIDTH 480 0
DWIDTH 5 0
BBX 5 6 0 0
BITMAP
70
48
48
F0
48
48
ENDCHAR
STARTCHAR uni0072
ENCODING 589
SWIDTH 480 0
DWIDTH 5 0
BBX 5 5 0 0
BITMAP
58
E0
40
40
40
ENDCHAR
STARTCHAR uni0059
ENCODING 590
SWIDTH 480 0
DWIDTH 5 0
BBX 5 6 0 0
BITMAP
88
70
50
20
20
20
ENDCHAR
STARTCHAR uni0079
ENCODING 591
SWIDTH 480 0
DWIDTH 5 0
BBX 4 7 1 -2
BITMAP
90
F0
90
90
70
10
60
ENDCHAR
STARTCHAR uni0061
ENCODING 592
SWIDTH 480 0
DWIDTH 5 0
BBX 4 5 1 0
BITMAP
A0
D0
90
90
E0
ENDCHAR
STARTCHAR uni0061
ENCODING 593
SWIDTH 480 0
DWIDTH 5 0
BBX 4 5 1 0
BITMAP
50
B0
90
B0
50
ENDCHAR
STARTCHAR uni0061
ENCODING 594
SWIDTH 480 0
DWIDTH 5 0
BBX 4 5 1 0
BITMAP
A0
D0
90
D0
A0
ENDCHAR
STARTCHAR uni0062
ENCODING 595
SWIDTH 480 0
DWIDTH 5 0
BBX 4 7 1 0
BITMAP
80
80
E0
90
90
90
E0
ENDCHAR
STARTCHAR uni0063
ENCODING 596
SWIDTH 480 0
DWIDTH 5 0
BBX 4 5 1 0
BITMAP
60
90
80
90
60
ENDCHAR
STARTCHAR uni0063
ENCODING 597
SWIDTH 480 0
DWIDTH 5 0
BBX 4 5 1 0
BITMAP
60
90
80
B0
60
ENDCHAR
STARTCHAR uni0064
ENCODING 598
SWIDTH 480 0
DWIDTH 5 0
BBX 5 8 1 -1
BITMAP
10
10
70
90
90
B0
50
08
ENDCHAR
STARTCHAR uni0064
ENCODING 599
SWIDTH 480 0
DWIDTH 5 0
BBX 5 8 1 0
BITMAP
08
10
10
70
90
90
B0
50
ENDCHAR
STARTCHAR uni0065
ENCODING 600
SWIDTH 480 0
DWIDTH 5 0
BBX 4 5 1 0
BITMAP
60
90
F0
10
E0
ENDCHAR
STARTCHAR uni0065
ENCODING 601
SWIDTH 480 0
DWIDTH 5 0
BBX 4 5 1 0
BITMAP
E0
10
F0
90
60
ENDCHAR
STARTCHAR uni0065
ENCODING 602
SWIDTH 480 0
DWIDTH 5 0
BBX 5 5 1 0
BITMAP
E8
10
F0
90
60
ENDCHAR
STARTCHAR uni0033
ENCODING 603
SWIDTH 480 0
DWIDTH 5 0
BBX 4 6 1 0
BITMAP
70
80
60
80
80
70
ENDCHAR
STARTCHAR uni0033
ENCODING 604
SWIDTH 480 0
DWIDTH 5 0
BBX 4 6 1 0
BITMAP
E0
10
60
10
10
E0
ENDCHAR
STARTCHAR uni0033
ENCODING 605
SWIDTH 480 0
DWIDTH 5 0
BBX 5 6 1 0
BITMAP
E8
10
60
10
10
E0
ENDCHAR
STARTCHAR char223
ENCODING 606
SWIDTH 480 0
DWIDTH 5 0
BBX 4 6 1 0
BITMAP
60
90
A0
90
90
60
ENDCHAR
STARTCHAR uni006A
ENCODING 607
SWIDTH 480 0
DWIDTH 5 0
BBX 4 7 1 -2
BITMAP
60
20
30
60
20
20
C0
ENDCHAR
STARTCHAR uni0067
ENCODING 608
SWIDTH 480 0
DWIDTH 5 0
BBX 5 8 1 -2
BITMAP
08
70
90
90
B0
50
10
60
ENDCHAR
STARTCHAR uni0067
ENCODING 609
SWIDTH 480 0
DWIDTH 5 0
BBX 4 7 1 -2
BITMAP
70
90
90
B0
50
10
60
ENDCHAR
STARTCHAR uni0047
ENCODING 610
SWIDTH 480 0
DWIDTH 5 0
BBX 4 5 1 0
BITMAP
70
80
B0
90
70
ENDCHAR
STARTCHAR uni0076
ENCODING 611
SWIDTH 480 0
DWIDTH 5 0
BBX 4 7 1 -2
BITMAP
90
90
90
60
60
90
60
ENDCHAR
STARTCHAR uni0076
ENCODING 612
SWIDTH 480 0
DWIDTH 5 0
BBX 6 7 0 -2
BITMAP
84
48
48
30
30
48
30
ENDCHAR
STARTCHAR uni0068
ENCODING 613
SWIDTH 480 0
DWIDTH 5 0
BBX 4 7 1 0
BITMAP
90
90
90
90
70
10
10
ENDCHAR
STARTCHAR uni0068
ENCODING 614
SWIDTH 480 0
DWIDTH 5 0
BBX 4 8 1 0
BITMAP
60
80
80
E0
90
90
90
90
ENDCHAR
STARTCHAR uni0068
ENCODING 615
SWIDTH 480 0
DWIDTH 5 0
BBX 4 9 1 -1
BITMAP
60
80
80
E0
90
90
90
90
20
ENDCHAR
STARTCHAR uni0069
ENCODING 616
SWIDTH 480 0
DWIDTH 5 0
BBX 3 7 2 0
BITMAP
40
00
C0
40
E0
40
40
ENDCHAR
STARTCHAR uni0069
ENCODING 617
SWIDTH 480 0
DWIDTH 5 0
BBX 3 6 2 -1
BITMAP
C0
40
40
40
40
20
ENDCHAR
STARTCHAR uni0069
ENCODING 618
SWIDTH 480 0
DWIDTH 5 0
BBX 3 5 1 0
BITMAP
E0
40
40
40
E0
ENDCHAR
STARTCHAR uni006C
ENCODING 619
SWIDTH 480 0
DWIDTH 5 0
BBX 5 7 1 0
BITMAP
60
20
20
68
B0
20
20
ENDCHAR
STARTCHAR uni006C
ENCODING 620
SWIDTH 480 0
DWIDTH 5 0
BBX 4 7 1 0
BITMAP
60
20
60
A0
70
20
20
ENDCHAR
STARTCHAR uni006C
ENCODING 621
SWIDTH 480 0
DWIDTH 5 0
BBX 3 8 2 -1
BITMAP
C0
40
40
40
40
40
40
20
ENDCHAR
STARTCHAR LATIN SMALL LETTER LEZH
ENCODING 622
SWIDTH 480 0
DWIDTH 5 0
BBX 5 8 0 -1
BITMAP
80
F8
88
90
B0
88
48
30
ENDCHAR
STARTCHAR uni006D
ENCODING 623
SWIDTH 480 0
DWIDTH 5 0
BBX 4 5 1 0
BITMAP
90
90
90
F0
90
ENDCHAR
STARTCHAR uni006D
ENCODING 624
SWIDTH 480 0
DWIDTH 5 0
BBX 4 6 1 -1
BITMAP
90
90
90
F0
90
10
ENDCHAR
STARTCHAR uni006D
ENCODING 625
SWIDTH 480 0
DWIDTH 5 0
BBX 4 6 1 -1
BITMAP
90
F0
B0
90
90
20
ENDCHAR
STARTCHAR uni006E
ENCODING 626
SWIDTH 480 0
DWIDTH 5 0
BBX 5 6 0 -1
BITMAP
70
48
48
48
48
80
ENDCHAR
STARTCHAR uni006E
ENCODING 627
SWIDTH 480 0
DWIDTH 5 0
BBX 5 6 1 -1
BITMAP
E0
90
90
90
90
08
ENDCHAR
STARTCHAR GREEK SMALL LETTER PAMPHYLIAN DIGAMMA
ENCODING 628
SWIDTH 480 0
DWIDTH 5 0
BBX 4 5 1 0
BITMAP
90
D0
B0
90
90
ENDCHAR
STARTCHAR LATIN SMALL LETTER BARRED O
ENCODING 629
SWIDTH 480 0
DWIDTH 5 0
BBX 4 5 1 0
BITMAP
60
90
F0
90
60
ENDCHAR
STARTCHAR char230
ENCODING 630
SWIDTH 480 0
DWIDTH 5 0
BBX 6 5 1 0
BITMAP
78
94
9C
90
7C
ENDCHAR
STARTCHAR GREEK SMALL LETTER OMEGA WITH TONOS
ENCODING 631
SWIDTH 480 0
DWIDTH 5 0
BBX 5 5 0 0
BITMAP
70
88
88
A8
D8
ENDCHAR
STARTCHAR GREEK CAPITAL LETTER PHI
ENCODING 632
SWIDTH 480 0
DWIDTH 5 0
BBX 5 7 0 0
BITMAP
20
70
A8
A8
A8
70
20
ENDCHAR
STARTCHAR uni0072
ENCODING 633
SWIDTH 480 0
DWIDTH 5 0
BBX 4 5 1 0
BITMAP
10
10
10
30
D0
ENDCHAR
STARTCHAR uni0072
ENCODING 634
SWIDTH 480 0
DWIDTH 5 0
BBX 4 6 1 0
BITMAP
10
10
10
10
30
D0
ENDCHAR
STARTCHAR uni0072
ENCODING 635
SWIDTH 480 0
DWIDTH 5 0
BBX 5 6 1 -1
BITMAP
10
10
10
30
D0
08
ENDCHAR
STARTCHAR uni0072
ENCODING 636
SWIDTH 480 0
DWIDTH 5 0
BBX 4 6 1 0
BITMAP
B0
C0
80
80
80
80
ENDCHAR
STARTCHAR uni0072
ENCODING 637
SWIDTH 480 0
DWIDTH 5 0
BBX 4 7 1 -1
BITMAP
B0
C0
80
80
80
80
40
ENDCHAR
STARTCHAR uni0072
ENCODING 638
SWIDTH 480 0
DWIDTH 5 0
BBX 4 5 1 0
BITMAP
60
90
80
80
80
ENDCHAR
STARTCHAR uni0072
ENCODING 639
SWIDTH 480 0
DWIDTH 5 0
BBX 4 5 1 0
BITMAP
60
90
10
10
10
ENDCHAR
STARTCHAR char1071
ENCODING 640
SWIDTH 480 0
DWIDTH 5 0
BBX 4 6 1 0
BITMAP
70
90
90
70
90
90
ENDCHAR
STARTCHAR char1071
ENCODING 641
SWIDTH 480 0
DWIDTH 5 0
BBX 4 6 1 0
BITMAP
90
90
E0
90
90
E0
ENDCHAR
STARTCHAR uni0073
ENCODING 642
SWIDTH 480 0
DWIDTH 5 0
BBX 4 7 1 -2
BITMAP
70
80
60
10
E0
80
40
ENDCHAR
STARTCHAR uni0066
ENCODING 643
SWIDTH 480 0
DWIDTH 5 0
BBX 5 8 0 -1
BITMAP
18
20
20
20
20
20
20
C0
ENDCHAR
STARTCHAR uni0066
ENCODING 644
SWIDTH 480 0
DWIDTH 5 0
BBX 5 8 0 -1
BITMAP
18
20
20
70
20
20
20
C0
ENDCHAR
STARTCHAR uni0066
ENCODING 645
SWIDTH 480 0
DWIDTH 5 0
BBX 3 7 1 -1
BITMAP
80
40
40
40
40
40
20
ENDCHAR
STARTCHAR uni0066
ENCODING 646
SWIDTH 480 0
DWIDTH 5 0
BBX 5 8 0 -1
BITMAP
10
20
20
20
20
60
B0
48
ENDCHAR
STARTCHAR uni0066
ENCODING 647
SWIDTH 480 0
DWIDTH 5 0
BBX 4 7 1 0
BITMAP
C0
20
20
70
20
20
20
ENDCHAR
STARTCHAR uni0075
ENCODING 648
SWIDTH 480 0
DWIDTH 5 0
BBX 4 5 1 0
BITMAP
90
F0
90
90
70
ENDCHAR
STARTCHAR uni0075
ENCODING 649
SWIDTH 480 0
DWIDTH 5 0
BBX 4 5 1 0
BITMAP
90
60
90
90
70
ENDCHAR
STARTCHAR uni0076
ENCODING 650
SWIDTH 480 0
DWIDTH 5 0
BBX 4 5 1 0
BITMAP
A0
90
90
60
60
ENDCHAR
STARTCHAR uni0076
ENCODING 651
SWIDTH 480 0
DWIDTH 5 0
BBX 4 5 1 0
BITMAP
60
60
90
90
90
ENDCHAR
STARTCHAR uni0076
ENCODING 652
SWIDTH 480 0
DWIDTH 5 0
BBX 6 5 0 0
BITMAP
30
30
48
48
84
ENDCHAR
STARTCHAR uni006D
ENCODING 653
SWIDTH 480 0
DWIDTH 5 0
BBX 4 5 1 0
BITMAP
90
F0
B0
90
90
ENDCHAR
STARTCHAR uni0079
ENCODING 654
SWIDTH 480 0
DWIDTH 5 0
BBX 4 7 1 -2
BITMAP
60
80
E0
90
90
90
90
ENDCHAR
STARTCHAR uni0059
ENCODING 655
SWIDTH 480 0
DWIDTH 5 0
BBX 5 4 0 0
BITMAP
88
50
20
20
ENDCHAR
STARTCHAR uni007A
ENCODING 656
SWIDTH 480 0
DWIDTH 5 0
BBX 4 7 1 -2
BITMAP
F0
20
40
80
F0
10
20
ENDCHAR
STARTCHAR uni007A
ENCODING 657
SWIDTH 480 0
DWIDTH 5 0
BBX 4 6 1 -1
BITMAP
F0
20
40
A0
F0
20
ENDCHAR
STARTCHAR uni007A
ENCODING 658
SWIDTH 480 0
DWIDTH 5 0
BBX 4 7 1 -2
BITMAP
F0
20
40
20
10
90
60
ENDCHAR
STARTCHAR uni007A
ENCODING 659
SWIDTH 480 0
DWIDTH 5 0
BBX 4 7 1 -2
BITMAP
F0
20
40
20
50
B0
60
ENDCHAR
STARTCHAR LATIN LETTER GLOTTAL STOP
ENCODING 660
SWIDTH 480 0
DWIDTH 5 0
BBX 5 7 0 0
BITMAP
70
88
08
10
20
20
20
ENDCHAR
STARTCHAR LATIN LETTER PHARYNGEAL VOICED FRICATIVE
ENCODING 661
SWIDTH 480 0
DWIDTH 5 0
BBX 5 7 0 0
BITMAP
70
88
80
40
20
20
20
ENDCHAR
STARTCHAR LATIN LETTER INVERTED GLOTTAL STOP
ENCODING 662
SWIDTH 480 0
DWIDTH 5 0
BBX 5 7 0 0
BITMAP
20
20
20
10
08
88
70
ENDCHAR
STARTCHAR uni0043
ENCODING 663
SWIDTH 480 0
DWIDTH 5 0
BBX 4 7 1 -1
BITMAP
70
80
80
80
80
80
70
ENDCHAR
STARTCHAR LATIN LETTER BILABIAL CLICK
ENCODING 664
SWIDTH 480 0
DWIDTH 5 0
BBX 5 5 0 0
BITMAP
70
88
A8
88
70
ENDCHAR
STARTCHAR LATIN LETTER SMALL CAPITAL B
ENCODING 665
SWIDTH 480 0
DWIDTH 5 0
BBX 4 5 1 0
BITMAP
E0
90
E0
90
E0
ENDCHAR
STARTCHAR LATIN SMALL LETTER CLOSED OPEN E
ENCODING 666
SWIDTH 480 0
DWIDTH 5 0
BBX 4 5 1 0
BITMAP
60
90
70
90
60
ENDCHAR
STARTCHAR uni0047
ENCODING 667
SWIDTH 480 0
DWIDTH 5 0
BBX 5 6 1 0
BITMAP
08
70
80
B0
90
70
ENDCHAR
STARTCHAR uni0048
ENCODING 668
SWIDTH 480 0
DWIDTH 5 0
BBX 4 5 1 0
BITMAP
90
90
F0
90
90
ENDCHAR
STARTCHAR uni006A
ENCODING 669
SWIDTH 480 0
DWIDTH 5 0
BBX 4 9 1 -2
BITMAP
20
00
60
20
20
20
70
A0
C0
ENDCHAR
STARTCHAR uni006B
ENCODING 670
SWIDTH 480 0
DWIDTH 5 0
BBX 4 7 1 0
BITMAP
90
90
70
50
90
10
10
ENDCHAR
STARTCHAR LATIN LETTER SMALL CAPITAL L
ENCODING 671
SWIDTH 480 0
DWIDTH 5 0
BBX 4 5 1 0
BITMAP
80
80
80
80
F0
ENDCHAR
STARTCHAR uni0071
ENCODING 672
SWIDTH 480 0
DWIDTH 5 0
BBX 5 8 1 -2
BITMAP
08
70
90
90
90
70
10
10
ENDCHAR
STARTCHAR LATIN LETTER GLOTTAL STOP WITH STROKE
ENCODING 673
SWIDTH 480 0
DWIDTH 5 0
BBX 5 7 0 0
BITMAP
70
88
08
10
20
70
20
ENDCHAR
STARTCHAR LATIN LETTER REVERSED GLOTTAL STOP WITH STROKE
ENCODING 674
SWIDTH 480 0
DWIDTH 5 0
BBX 5 7 0 0
BITMAP
70
88
80
40
20
70
20
ENDCHAR
STARTCHAR LATIN SMALL LETTER DZ DIGRAPH
ENCODING 675
SWIDTH 480 0
DWIDTH 5 0
BBX 6 7 0 0
BITMAP
20
20
7C
A4
A8
B0
7C
ENDCHAR
STARTCHAR LATIN SMALL LETTER DEZH DIGRAPH
ENCODING 676
SWIDTH 480 0
DWIDTH 5 0
BBX 6 8 0 -1
BITMAP
20
20
7C
A4
A8
A4
74
08
ENDCHAR
STARTCHAR LATIN SMALL LETTER DZ DIGRAPH WITH CURL
ENCODING 677
SWIDTH 480 0
DWIDTH 5 0
BBX 6 8 0 -1
BITMAP
20
20
7C
A4
A8
B4
7C
10
ENDCHAR
STARTCHAR LATIN SMALL LETTER TS DIGRAPH
ENCODING 678
SWIDTH 480 0
DWIDTH 5 0
BBX 6 6 0 0
BITMAP
40
FC
60
58
44
38
ENDCHAR
STARTCHAR LATIN SMALL LETTER TESH DIGRAPH
ENCODING 679
SWIDTH 480 0
DWIDTH 5 0
BBX 5 9 0 -2
BITMAP
08
50
F0
50
50
50
30
10
20
ENDCHAR
STARTCHAR LATIN SMALL LETTER TC DIGRAPH WITH CURL
ENCODING 680
SWIDTH 480 0
DWIDTH 5 0
BBX 6 7 0 -1
BITMAP
40
EC
50
58
54
3C
10
ENDCHAR
STARTCHAR LATIN SMALL LETTER FENG DIGRAPH
ENCODING 681
SWIDTH 480 0
DWIDTH 5 0
BBX 6 9 0 -2
BITMAP
20
40
40
F8
54
54
54
08
10
ENDCHAR
STARTCHAR LATIN SMALL LETTER LS DIGRAPH
ENCODING 682
SWIDTH 480 0
DWIDTH 5 0
BBX 5 7 0 0
BITMAP
80
80
B8
C0
B0
88
F0
ENDCHAR
STARTCHAR LATIN SMALL LETTER LZ DIGRAPH
ENCODING 683
SWIDTH 480 0
DWIDTH 5 0
BBX 5 7 0 0
BITMAP
80
80
F8
90
A0
C0
F8
ENDCHAR
STARTCHAR LATIN LETTER BILABIAL PERCUSSIVE
ENCODING 684
SWIDTH 480 0
DWIDTH 5 0
BBX 5 6 0 0
BITMAP
A8
A8
50
A8
A8
50
ENDCHAR
STARTCHAR LATIN LETTER BIDENTAL PERCUSSIVE
ENCODING 685
SWIDTH 480 0
DWIDTH 5 0
BBX 5 5 0 0
BITMAP
F8
88
00
F8
88
ENDCHAR
STARTCHAR uni0068
ENCODING 686
SWIDTH 480 0
DWIDTH 5 0
BBX 5 7 0 0
BITMAP
88
48
48
48
38
08
08
ENDCHAR
STARTCHAR uni0068
ENCODING 687
SWIDTH 480 0
DWIDTH 5 0
BBX 6 8 0 -1
BITMAP
88
48
48
48
38
08
08
04
ENDCHAR
STARTCHAR uni003C
ENCODING 706
SWIDTH 480 0
DWIDTH 5 0
BBX 3 5 1 0
BITMAP
20
40
80
40
20
ENDCHAR
STARTCHAR uni003C
ENCODING 707
SWIDTH 480 0
DWIDTH 5 0
BBX 3 5 1 0
BITMAP
80
40
20
40
80
ENDCHAR
STARTCHAR uni005E
ENCODING 708
SWIDTH 480 0
DWIDTH 5 0
BBX 5 3 0 2
BITMAP
88
50
20
ENDCHAR
STARTCHAR uni005E
ENCODING 709
SWIDTH 480 0
DWIDTH 5 0
BBX 5 3 0 2
BITMAP
20
50
88
ENDCHAR
STARTCHAR MODIFIER LETTER CIRCUMFLEX ACCENT
ENCODING 710
SWIDTH 480 0
DWIDTH 5 0
BBX 5 3 0 5
BITMAP
20
50
88
ENDCHAR
STARTCHAR CARON
ENCODING 711
SWIDTH 480 0
DWIDTH 5 0
BBX 5 3 0 6
BITMAP
88
50
20
ENDCHAR
STARTCHAR MODIFIER LETTER VERTICAL LINE
ENCODING 712
SWIDTH 480 0
DWIDTH 5 0
BBX 1 2 2 5
BITMAP
80
80
ENDCHAR
STARTCHAR MODIFIER LETTER MACRON
ENCODING 713
SWIDTH 480 0
DWIDTH 5 0
BBX 2 1 1 6
BITMAP
C0
ENDCHAR
STARTCHAR MODIFIER LETTER ACUTE ACCENT
ENCODING 714
SWIDTH 480 0
DWIDTH 5 0
BBX 2 2 2 5
BITMAP
40
80
ENDCHAR
STARTCHAR MODIFIER LETTER GRAVE ACCENT
ENCODING 715
SWIDTH 480 0
DWIDTH 5 0
BBX 2 2 2 5
BITMAP
80
40
ENDCHAR
STARTCHAR MODIFIER LETTER TRIANGULAR COLON
ENCODING 720
SWIDTH 480 0
DWIDTH 5 0
BBX 3 6 1 0
BITMAP
E0
40
00
00
40
E0
ENDCHAR
STARTCHAR MODIFIER LETTER HALF TRIANGULAR COLON
ENCODING 721
SWIDTH 480 0
DWIDTH 5 0
BBX 3 2 1 2
BITMAP
E0
40
ENDCHAR
STARTCHAR BREVE
ENCODING 728
SWIDTH 480 0
DWIDTH 5 0
BBX 5 2 1 6
BITMAP
88
70
ENDCHAR
STARTCHAR DOT ABOVE
ENCODING 729
SWIDTH 480 0
DWIDTH 5 0
BBX 2 2 2 7
BITMAP
C0
C0
ENDCHAR
STARTCHAR RING ABOVE
ENCODING 730
SWIDTH 480 0
DWIDTH 5 0
BBX 3 3 1 5
BITMAP
40
A0
40
ENDCHAR
STARTCHAR OGONEK
ENCODING 731
SWIDTH 480 0
DWIDTH 5 0
BBX 2 3 2 -2
BITMAP
40
80
40
ENDCHAR
STARTCHAR SMALL TILDE
ENCODING 732
SWIDTH 480 0
DWIDTH 5 0
BBX 5 2 0 6
BITMAP
68
B0
ENDCHAR
STARTCHAR DOUBLE ACUTE ACCENT
ENCODING 733
SWIDTH 480 0
DWIDTH 5 0
BBX 4 3 1 6
BITMAP
50
50
A0
ENDCHAR
STARTCHAR MODIFIER LETTER SMALL GAMMA
ENCODING 736
SWIDTH 480 0
DWIDTH 5 0
BBX 5 5 0 1
BITMAP
88
50
20
50
20
ENDCHAR
STARTCHAR MODIFIER LETTER SMALL REVERSED GLOTTAL STOP
ENCODING 740
SWIDTH 480 0
DWIDTH 5 0
BBX 3 5 1 3
BITMAP
60
80
80
40
40
ENDCHAR
STARTCHAR MODIFIER LETTER DOUBLE APOSTROPHE
ENCODING 750
SWIDTH 480 0
DWIDTH 5 0
BBX 5 4 0 3
BITMAP
D8
D8
48
90
ENDCHAR
STARTCHAR COMBINING GRAVE ACCENT
ENCODING 768
SWIDTH 480 0
DWIDTH 5 0
BBX 2 2 1 7
BITMAP
80
40
ENDCHAR
STARTCHAR COMBINING ACUTE ACCENT
ENCODING 769
SWIDTH 480 0
DWIDTH 5 0
BBX 2 2 1 7
BITMAP
40
80
ENDCHAR
STARTCHAR COMBINING CIRCUMFLEX ACCENT
ENCODING 770
SWIDTH 480 0
DWIDTH 5 0
BBX 4 2 0 7
BITMAP
60
90
ENDCHAR
STARTCHAR COMBINING TILDE
ENCODING 771
SWIDTH 480 0
DWIDTH 5 0
BBX 5 2 0 7
BITMAP
68
B0
ENDCHAR
STARTCHAR COMBINING MACRON
ENCODING 772
SWIDTH 480 0
DWIDTH 5 0
BBX 3 1 1 8
BITMAP
E0
ENDCHAR
STARTCHAR COMBINING OVERLINE
ENCODING 773
SWIDTH 480 0
DWIDTH 5 0
BBX 5 1 0 8
BITMAP
F8
ENDCHAR
STARTCHAR COMBINING BREVE
ENCODING 774
SWIDTH 480 0
DWIDTH 5 0
BBX 4 2 1 7
BITMAP
90
60
ENDCHAR
STARTCHAR COMBINING DOT ABOVE
ENCODING 775
SWIDTH 480 0
DWIDTH 5 0
BBX 1 1 2 8
BITMAP
80
ENDCHAR
STARTCHAR COMBINING DIAERESIS
ENCODING 776
SWIDTH 480 0
DWIDTH 5 0
BBX 3 1 1 8
BITMAP
A0
ENDCHAR
STARTCHAR COMBINING HOOK ABOVE
ENCODING 777
SWIDTH 480 0
DWIDTH 5 0
BBX 3 3 1 6
BITMAP
C0
20
40
ENDCHAR
STARTCHAR COMBINING RING ABOVE
ENCODING 778
SWIDTH 480 0
DWIDTH 5 0
BBX 3 3 2 6
BITMAP
40
A0
40
ENDCHAR
STARTCHAR COMBINING DOUBLE ACUTE ACCENT
ENCODING 779
SWIDTH 480 0
DWIDTH 5 0
BBX 5 2 0 7
BITMAP
48
90
ENDCHAR
STARTCHAR COMBINING CARON
ENCODING 780
SWIDTH 480 0
DWIDTH 5 0
BBX 3 2 1 7
BITMAP
A0
40
ENDCHAR
STARTCHAR COMBINING VERTICAL LINE ABOVE
ENCODING 781
SWIDTH 480 0
DWIDTH 5 0
BBX 1 2 2 7
BITMAP
80
80
ENDCHAR
STARTCHAR COMBINING DOUBLE VERTICAL LINE ABOVE
ENCODING 782
SWIDTH 480 0
DWIDTH 5 0
BBX 3 2 1 7
BITMAP
A0
A0
ENDCHAR
STARTCHAR COMBINING CANDRABINDU
ENCODING 784
SWIDTH 480 0
DWIDTH 5 0
BBX 5 3 0 6
BITMAP
20
88
70
ENDCHAR
STARTCHAR COMBINING INVERTED BREVE
ENCODING 785
SWIDTH 480 0
DWIDTH 5 0
BBX 5 2 0 7
BITMAP
70
88
ENDCHAR
STARTCHAR COMBINING TURNED COMMA ABOVE
ENCODING 786
SWIDTH 480 0
DWIDTH 5 0
BBX 2 3 1 6
BITMAP
40
80
C0
ENDCHAR
STARTCHAR COMBINING COMMA ABOVE
ENCODING 787
SWIDTH 480 0
DWIDTH 5 0
BBX 2 3 1 6
BITMAP
C0
40
80
ENDCHAR
STARTCHAR COMBINING REVERSED COMMA ABOVE
ENCODING 788
SWIDTH 480 0
DWIDTH 5 0
BBX 2 3 1 6
BITMAP
C0
80
40
ENDCHAR
STARTCHAR COMBINING COMMA ABOVE RIGHT
ENCODING 789
SWIDTH 480 0
DWIDTH 5 0
BBX 2 3 1 6
BITMAP
C0
40
80
ENDCHAR
STARTCHAR COMBINING LEFT ANGLE ABOVE
ENCODING 794
SWIDTH 480 0
DWIDTH 5 0
BBX 4 3 1 6
BITMAP
F0
10
10
ENDCHAR
STARTCHAR COMBINING LEFT HALF RING BELOW
ENCODING 796
SWIDTH 480 0
DWIDTH 5 0
BBX 2 3 1 -3
BITMAP
40
80
40
ENDCHAR
STARTCHAR COMBINING PLUS SIGN BELOW
ENCODING 799
SWIDTH 480 0
DWIDTH 5 0
BBX 3 3 1 -3
BITMAP
40
E0
40
ENDCHAR
STARTCHAR COMBINING MINUS SIGN BELOW
ENCODING 800
SWIDTH 480 0
DWIDTH 5 0
BBX 3 1 1 -2
BITMAP
E0
ENDCHAR
STARTCHAR COMBINING DIAERESIS BELOW
ENCODING 804
SWIDTH 480 0
DWIDTH 5 0
BBX 4 1 1 -2
BITMAP
A0
ENDCHAR
STARTCHAR COMBINING RING BELOW
ENCODING 805
SWIDTH 480 0
DWIDTH 5 0
BBX 4 3 0 -3
BITMAP
20
50
20
ENDCHAR
STARTCHAR COMBINING BRIDGE BELOW
ENCODING 810
SWIDTH 480 0
DWIDTH 5 0
BBX 3 2 1 -2
BITMAP
E0
A0
ENDCHAR
STARTCHAR COMBINING CARON BELOW
ENCODING 812
SWIDTH 480 0
DWIDTH 5 0
BBX 3 2 1 -2
BITMAP
A0
40
ENDCHAR
STARTCHAR COMBINING TILDE BELOW
ENCODING 816
SWIDTH 480 0
DWIDTH 5 0
BBX 4 2 1 -3
BITMAP
50
A0
ENDCHAR
STARTCHAR COMBINING RIGHT HALF RING BELOW
ENCODING 825
SWIDTH 480 0
DWIDTH 5 0
BBX 4 3 0 -3
BITMAP
20
10
20
ENDCHAR
STARTCHAR COMBINING INVERTED BRIDGE BELOW
ENCODING 826
SWIDTH 480 0
DWIDTH 5 0
BBX 3 2 1 -3
BITMAP
A0
E0
ENDCHAR
STARTCHAR COMBINING SQUARE BELOW
ENCODING 827
SWIDTH 480 0
DWIDTH 5 0
BBX 4 3 0 -3
BITMAP
70
50
70
ENDCHAR
STARTCHAR COMBINING SEAGULL BELOW
ENCODING 828
SWIDTH 480 0
DWIDTH 5 0
BBX 5 2 0 -3
BITMAP
50
A8
ENDCHAR
STARTCHAR COMBINING GREEK KORONIS
ENCODING 835
SWIDTH 480 0
DWIDTH 5 0
BBX 2 4 1 3
BITMAP
C0
C0
40
80
ENDCHAR
STARTCHAR COMBINING GREEK DIALYTIKA TONOS
ENCODING 836
SWIDTH 480 0
DWIDTH 5 0
BBX 3 2 1 2
BITMAP
E0
40
ENDCHAR
STARTCHAR COMBINING DOUBLE BREVE BELOW
ENCODING 860
SWIDTH 480 0
DWIDTH 5 0
BBX 5 2 0 -1
BITMAP
88
70
ENDCHAR
STARTCHAR COMBINING DOUBLE INVERTED BREVE
ENCODING 865
SWIDTH 480 0
DWIDTH 5 0
BBX 5 2 0 7
BITMAP
70
88
ENDCHAR
STARTCHAR GREEK CAPITAL LETTER HETA
ENCODING 880
SWIDTH 480 0
DWIDTH 5 0
BBX 4 7 0 0
BITMAP
80
80
80
F0
80
80
80
ENDCHAR
STARTCHAR GREEK SMALL LETTER HETA
ENCODING 881
SWIDTH 480 0
DWIDTH 5 0
BBX 5 6 0 0
BITMAP
80
40
40
78
40
40
ENDCHAR
STARTCHAR GREEK CAPITAL LETTER ARCHAIC SAMPI
ENCODING 882
SWIDTH 480 0
DWIDTH 5 0
BBX 5 6 0 0
BITMAP
F8
A8
20
20
20
20
ENDCHAR
STARTCHAR GREEK SMALL LETTER ARCHAIC SAMPI
ENCODING 883
SWIDTH 480 0
DWIDTH 5 0
BBX 5 5 0 0
BITMAP
F8
A8
20
20
20
ENDCHAR
STARTCHAR GREEK NUMERAL SIGN
ENCODING 884
SWIDTH 480 0
DWIDTH 5 0
BBX 3 2 1 6
BITMAP
60
C0
ENDCHAR
STARTCHAR GREEK LOWER NUMERAL SIGN
ENCODING 885
SWIDTH 480 0
DWIDTH 5 0
BBX 4 3 0 -1
BITMAP
30
60
C0
ENDCHAR
STARTCHAR uni004E
ENCODING 886
SWIDTH 480 0
DWIDTH 5 0
BBX 4 6 1 0
BITMAP
90
B0
B0
D0
D0
90
ENDCHAR
STARTCHAR GREEK SMALL LETTER PAMPHYLIAN DIGAMMA
ENCODING 887
SWIDTH 480 0
DWIDTH 5 0
BBX 5 6 1 -1
BITMAP
90
B0
D0
90
90
08
ENDCHAR
STARTCHAR GREEK YPOGEGRAMMENI
ENCODING 890
SWIDTH 480 0
DWIDTH 5 0
BBX 5 2 -2 -2
BITMAP
10
18
ENDCHAR
STARTCHAR GREEK SMALL REVERSED LUNATE SIGMA SYMBOL
ENCODING 891
SWIDTH 480 0
DWIDTH 5 0
BBX 5 5 0 0
BITMAP
70
88
08
88
70
ENDCHAR
STARTCHAR GREEK SMALL DOTTED LUNATE SIGMA SYMBOL
ENCODING 892
SWIDTH 480 0
DWIDTH 5 0
BBX 5 5 0 0
BITMAP
70
88
A0
88
70
ENDCHAR
STARTCHAR GREEK SMALL REVERSED DOTTED LUNATE SIGMA SYMBOL
ENCODING 893
SWIDTH 480 0
DWIDTH 5 0
BBX 5 5 0 0
BITMAP
70
88
28
88
70
ENDCHAR
STARTCHAR uni003B
ENCODING 894
SWIDTH 480 0
DWIDTH 5 0
BBX 2 6 1 -1
BITMAP
40
40
00
40
40
80
ENDCHAR
STARTCHAR uni037F
ENCODING 895
SWIDTH 480 0
DWIDTH 5 0
BBX 6 3 0 1
BITMAP
FC
FC
FC
ENDCHAR
STARTCHAR uni037F
ENCODING 896
SWIDTH 480 0
DWIDTH 5 0
BBX 5 3 0 0
BITMAP
F8
F8
F8
ENDCHAR
STARTCHAR uni0380
ENCODING 897
SWIDTH 480 0
DWIDTH 5 0
BBX 5 3 0 0
BITMAP
A8
50
A8
ENDCHAR
STARTCHAR GREEK TONOS
ENCODING 900
SWIDTH 480 0
DWIDTH 5 0
BBX 2 3 2 5
BITMAP
40
C0
80
ENDCHAR
STARTCHAR GREEK DIALYTIKA TONOS
ENCODING 901
SWIDTH 480 0
DWIDTH 5 0
BBX 6 3 0 5
BITMAP
10
B4
20
ENDCHAR
STARTCHAR GREEK CAPITAL LETTER ALPHA WITH TONOS
ENCODING 902
SWIDTH 480 0
DWIDTH 5 0
BBX 4 9 1 0
BITMAP
20
40
00
60
90
90
F0
90
90
ENDCHAR
STARTCHAR GREEK ANO TELEIA
ENCODING 903
SWIDTH 480 0
DWIDTH 5 0
BBX 2 2 2 3
BITMAP
C0
C0
ENDCHAR
STARTCHAR char201
ENCODING 904
SWIDTH 480 0
DWIDTH 5 0
BBX 4 8 1 0
BITMAP
20
40
F0
80
E0
80
80
F0
ENDCHAR
STARTCHAR GREEK CAPITAL LETTER ETA WITH TONOS
ENCODING 905
SWIDTH 480 0
DWIDTH 5 0
BBX 5 7 0 0
BITMAP
20
48
C8
78
48
48
48
ENDCHAR
STARTCHAR GREEK CAPITAL LETTER IOTA WITH TONOS
ENCODING 906
SWIDTH 480 0
DWIDTH 5 0
BBX 4 7 0 0
BITMAP
20
70
A0
20
20
20
70
ENDCHAR
STARTCHAR GREEK CAPITAL LETTER OMICRON WITH TONOS
ENCODING 908
SWIDTH 480 0
DWIDTH 5 0
BBX 5 8 0 0
BITMAP
40
80
30
48
48
48
48
30
ENDCHAR
STARTCHAR GREEK CAPITAL LETTER UPSILON WITH TONOS
ENCODING 910
SWIDTH 480 0
DWIDTH 5 0
BBX 5 7 0 0
BITMAP
40
A8
28
28
10
10
10
ENDCHAR
STARTCHAR GREEK CAPITAL LETTER OMEGA WITH TONOS
ENCODING 911
SWIDTH 480 0
DWIDTH 5 0
BBX 5 8 0 0
BITMAP
40
80
70
88
88
88
50
D8
ENDCHAR
STARTCHAR GREEK SMALL LETTER IOTA WITH DIALYTIKA AND TONOS
ENCODING 912
SWIDTH 480 0
DWIDTH 5 0
BBX 6 9 0 0
BITMAP
10
B4
20
00
20
20
20
20
20
ENDCHAR
STARTCHAR GREEK CAPITAL LETTER ALPHA
ENCODING 913
SWIDTH 480 0
DWIDTH 5 0
BBX 4 6 1 0
BITMAP
60
90
90
F0
90
90
ENDCHAR
STARTCHAR uni0042
ENCODING 914
SWIDTH 480 0
DWIDTH 5 0
BBX 4 6 1 0
BITMAP
E0
90
E0
90
90
E0
ENDCHAR
STARTCHAR GREEK CAPITAL LETTER GAMMA
ENCODING 915
SWIDTH 480 0
DWIDTH 5 0
BBX 4 5 1 0
BITMAP
F0
80
80
80
80
ENDCHAR
STARTCHAR GREEK CAPITAL LETTER DELTA
ENCODING 916
SWIDTH 480 0
DWIDTH 5 0
BBX 5 6 0 0
BITMAP
20
20
50
50
88
F8
ENDCHAR
STARTCHAR uni0045
ENCODING 917
SWIDTH 480 0
DWIDTH 5 0
BBX 4 6 1 0
BITMAP
F0
80
E0
80
80
F0
ENDCHAR
STARTCHAR uni005A
ENCODING 918
SWIDTH 480 0
DWIDTH 5 0
BBX 4 6 1 0
BITMAP
F0
10
20
40
80
F0
ENDCHAR
STARTCHAR uni0048
ENCODING 919
SWIDTH 480 0
DWIDTH 5 0
BBX 4 6 1 0
BITMAP
90
90
F0
90
90
90
ENDCHAR
STARTCHAR GREEK CAPITAL LETTER THETA
ENCODING 920
SWIDTH 480 0
DWIDTH 5 0
BBX 4 6 1 0
BITMAP
60
90
B0
D0
90
60
ENDCHAR
STARTCHAR GREEK CAPITAL LETTER IOTA
ENCODING 921
SWIDTH 480 0
DWIDTH 5 0
BBX 3 6 1 0
BITMAP
E0
40
40
40
40
E0
ENDCHAR
STARTCHAR uni004B
ENCODING 922
SWIDTH 480 0
DWIDTH 5 0
BBX 4 6 1 0
BITMAP
90
A0
C0
A0
90
90
ENDCHAR
STARTCHAR GREEK CAPITAL LETTER LAMDA
ENCODING 923
SWIDTH 480 0
DWIDTH 5 0
BBX 5 6 0 0
BITMAP
20
20
50
50
88
88
ENDCHAR
STARTCHAR uni004D
ENCODING 924
SWIDTH 480 0
DWIDTH 5 0
BBX 4 6 1 0
BITMAP
90
F0
B0
90
90
90
ENDCHAR
STARTCHAR uni004E
ENCODING 925
SWIDTH 480 0
DWIDTH 5 0
BBX 4 6 1 0
BITMAP
90
D0
D0
B0
B0
90
ENDCHAR
STARTCHAR GREEK CAPITAL LETTER XI
ENCODING 926
SWIDTH 480 0
DWIDTH 5 0
BBX 5 5 0 0
BITMAP
F8
00
70
00
F8
ENDCHAR
STARTCHAR GREEK CAPITAL LETTER OMICRON
ENCODING 927
SWIDTH 480 0
DWIDTH 5 0
BBX 4 6 1 0
BITMAP
60
90
90
90
90
60
ENDCHAR
STARTCHAR char1055
ENCODING 928
SWIDTH 480 0
DWIDTH 5 0
BBX 5 6 0 0
BITMAP
78
48
48
48
48
48
ENDCHAR
STARTCHAR uni0050
ENCODING 929
SWIDTH 480 0
DWIDTH 5 0
BBX 4 6 1 0
BITMAP
E0
90
90
E0
80
80
ENDCHAR
STARTCHAR GREEK CAPITAL LETTER SIGMA
ENCODING 931
SWIDTH 480 0
DWIDTH 5 0
BBX 5 6 0 0
BITMAP
F8
40
20
40
80
F8
ENDCHAR
STARTCHAR GREEK CAPITAL LETTER TAU
ENCODING 932
SWIDTH 480 0
DWIDTH 5 0
BBX 5 6 0 0
BITMAP
F8
20
20
20
20
20
ENDCHAR
STARTCHAR uni0059
ENCODING 933
SWIDTH 480 0
DWIDTH 5 0
BBX 5 6 0 0
BITMAP
88
88
50
20
20
20
ENDCHAR
STARTCHAR GREEK CAPITAL LETTER PHI
ENCODING 934
SWIDTH 480 0
DWIDTH 5 0
BBX 5 7 0 0
BITMAP
20
70
A8
A8
A8
70
20
ENDCHAR
STARTCHAR uni0058
ENCODING 935
SWIDTH 480 0
DWIDTH 5 0
BBX 4 6 1 0
BITMAP
90
90
60
90
90
90
ENDCHAR
STARTCHAR GREEK CAPITAL LETTER PSI
ENCODING 936
SWIDTH 480 0
DWIDTH 5 0
BBX 5 6 0 0
BITMAP
A8
A8
A8
70
20
20
ENDCHAR
STARTCHAR GREEK CAPITAL LETTER OMEGA
ENCODING 937
SWIDTH 480 0
DWIDTH 5 0
BBX 5 6 0 0
BITMAP
70
88
88
88
50
D8
ENDCHAR
STARTCHAR GREEK CAPITAL LETTER IOTA WITH DIALYTIKA
ENCODING 938
SWIDTH 480 0
DWIDTH 5 0
BBX 3 7 1 0
BITMAP
A0
00
40
40
40
40
40
ENDCHAR
STARTCHAR GREEK CAPITAL LETTER UPSILON WITH DIALYTIKA
ENCODING 939
SWIDTH 480 0
DWIDTH 5 0
BBX 5 8 0 0
BITMAP
50
00
88
88
50
20
20
20
ENDCHAR
STARTCHAR char225
ENCODING 940
SWIDTH 480 0
DWIDTH 5 0
BBX 4 8 1 0
BITMAP
20
40
00
70
90
90
B0
50
ENDCHAR
STARTCHAR GREEK SMALL LETTER EPSILON WITH TONOS
ENCODING 941
SWIDTH 480 0
DWIDTH 5 0
BBX 4 8 1 0
BITMAP
20
40
00
70
80
E0
80
70
ENDCHAR
STARTCHAR uni006E
ENCODING 942
SWIDTH 480 0
DWIDTH 5 0
BBX 4 9 1 -1
BITMAP
20
40
00
E0
90
90
90
90
10
ENDCHAR
STARTCHAR GREEK SMALL LETTER IOTA WITH TONOS
ENCODING 943
SWIDTH 480 0
DWIDTH 5 0
BBX 3 8 1 0
BITMAP
20
40
00
C0
40
40
40
40
ENDCHAR
STARTCHAR GREEK SMALL LETTER UPSILON WITH DIALYTIKA AND TONOS
ENCODING 944
SWIDTH 480 0
DWIDTH 5 0
BBX 6 8 0 0
BITMAP
10
B4
20
48
48
48
48
38
ENDCHAR
STARTCHAR uni0061
ENCODING 945
SWIDTH 480 0
DWIDTH 5 0
BBX 4 5 1 0
BITMAP
70
90
90
B0
50
ENDCHAR
STARTCHAR char223
ENCODING 946
SWIDTH 480 0
DWIDTH 5 0
BBX 4 7 1 -1
BITMAP
60
90
A0
90
90
A0
80
ENDCHAR
STARTCHAR uni0076
ENCODING 947
SWIDTH 480 0
DWIDTH 5 0
BBX 4 7 1 -2
BITMAP
90
90
50
60
50
50
20
ENDCHAR
STARTCHAR GREEK SMALL LETTER DELTA
ENCODING 948
SWIDTH 480 0
DWIDTH 5 0
BBX 4 7 1 0
BITMAP
F0
80
60
90
90
90
60
ENDCHAR
STARTCHAR GREEK SMALL LETTER EPSILON
ENCODING 949
SWIDTH 480 0
DWIDTH 5 0
BBX 4 5 1 0
BITMAP
70
80
E0
80
70
ENDCHAR
STARTCHAR GREEK SMALL LETTER ZETA
ENCODING 950
SWIDTH 480 0
DWIDTH 5 0
BBX 4 7 1 -1
BITMAP
F0
20
40
80
80
70
20
ENDCHAR
STARTCHAR GREEK SMALL LETTER ETA
ENCODING 951
SWIDTH 480 0
DWIDTH 5 0
BBX 4 6 1 -1
BITMAP
E0
90
90
90
90
10
ENDCHAR
STARTCHAR GREEK SMALL LETTER THETA
ENCODING 952
SWIDTH 480 0
DWIDTH 5 0
BBX 4 5 1 0
BITMAP
60
90
F0
90
60
ENDCHAR
STARTCHAR GREEK SMALL LETTER IOTA
ENCODING 953
SWIDTH 480 0
DWIDTH 5 0
BBX 2 5 2 0
BITMAP
C0
40
40
40
40
ENDCHAR
STARTCHAR uni006B
ENCODING 954
SWIDTH 480 0
DWIDTH 5 0
BBX 4 5 1 0
BITMAP
90
A0
E0
90
90
ENDCHAR
STARTCHAR GREEK SMALL LETTER LAMDA
ENCODING 955
SWIDTH 480 0
DWIDTH 5 0
BBX 4 7 1 0
BITMAP
80
80
40
60
60
90
90
ENDCHAR
STARTCHAR uni0075
ENCODING 956
SWIDTH 480 0
DWIDTH 5 0
BBX 4 6 1 -1
BITMAP
90
90
90
90
E0
80
ENDCHAR
STARTCHAR uni0076
ENCODING 957
SWIDTH 480 0
DWIDTH 5 0
BBX 4 5 1 0
BITMAP
90
90
90
60
60
ENDCHAR
STARTCHAR GREEK SMALL LETTER XI
ENCODING 958
SWIDTH 480 0
DWIDTH 5 0
BBX 4 8 1 -2
BITMAP
60
90
40
80
80
60
10
20
ENDCHAR
STARTCHAR GREEK SMALL LETTER OMICRON
ENCODING 959
SWIDTH 480 0
DWIDTH 5 0
BBX 4 5 1 0
BITMAP
60
90
90
90
60
ENDCHAR
STARTCHAR char960
ENCODING 960
SWIDTH 480 0
DWIDTH 5 0
BBX 5 5 1 0
BITMAP
F8
50
50
50
50
ENDCHAR
STARTCHAR uni0070
ENCODING 961
SWIDTH 480 0
DWIDTH 5 0
BBX 4 8 1 -3
BITMAP
60
90
90
90
E0
80
80
80
ENDCHAR
STARTCHAR char231
ENCODING 962
SWIDTH 480 0
DWIDTH 5 0
BBX 4 7 1 -2
BITMAP
70
80
80
80
70
20
40
ENDCHAR
STARTCHAR char240
ENCODING 963
SWIDTH 480 0
DWIDTH 5 0
BBX 5 5 1 0
BITMAP
78
90
90
90
60
ENDCHAR
STARTCHAR GREEK SMALL LETTER TAU
ENCODING 964
SWIDTH 480 0
DWIDTH 5 0
BBX 4 5 1 0
BITMAP
F0
40
40
40
20
ENDCHAR
STARTCHAR uni0075
ENCODING 965
SWIDTH 480 0
DWIDTH 5 0
BBX 4 5 1 0
BITMAP
A0
90
90
90
60
ENDCHAR
STARTCHAR GREEK SMALL LETTER PHI
ENCODING 966
SWIDTH 480 0
DWIDTH 5 0
BBX 5 7 1 -2
BITMAP
B0
A8
A8
A8
70
20
20
ENDCHAR
STARTCHAR uni0078
ENCODING 967
SWIDTH 480 0
DWIDTH 5 0
BBX 4 5 1 0
BITMAP
90
90
60
90
90
ENDCHAR
STARTCHAR GREEK SMALL LETTER PSI
ENCODING 968
SWIDTH 480 0
DWIDTH 5 0
BBX 5 7 1 -2
BITMAP
A8
A8
A8
70
20
20
20
ENDCHAR
STARTCHAR GREEK SMALL LETTER OMEGA
ENCODING 969
SWIDTH 480 0
DWIDTH 5 0
BBX 5 5 1 0
BITMAP
50
88
A8
A8
50
ENDCHAR
STARTCHAR GREEK SMALL LETTER IOTA WITH DIALYTIKA
ENCODING 970
SWIDTH 480 0
DWIDTH 5 0
BBX 3 7 2 0
BITMAP
A0
00
C0
40
40
40
40
ENDCHAR
STARTCHAR char252
ENCODING 971
SWIDTH 480 0
DWIDTH 5 0
BBX 5 7 0 0
BITMAP
50
00
48
48
48
48
38
ENDCHAR
STARTCHAR char243
ENCODING 972
SWIDTH 480 0
DWIDTH 5 0
BBX 4 8 1 0
BITMAP
10
20
00
60
90
90
90
60
ENDCHAR
STARTCHAR char250
ENCODING 973
SWIDTH 480 0
DWIDTH 5 0
BBX 5 8 0 0
BITMAP
10
20
00
48
48
48
48
38
ENDCHAR
STARTCHAR GREEK SMALL LETTER OMEGA WITH TONOS
ENCODING 974
SWIDTH 480 0
DWIDTH 5 0
BBX 5 8 1 0
BITMAP
20
40
00
50
88
A8
D8
88
ENDCHAR
STARTCHAR uni004B
ENCODING 975
SWIDTH 480 0
DWIDTH 5 0
BBX 4 7 1 -1
BITMAP
90
A0
C0
A0
90
90
20
ENDCHAR
STARTCHAR GREEK BETA SYMBOL
ENCODING 976
SWIDTH 480 0
DWIDTH 5 0
BBX 4 6 1 0
BITMAP
60
90
E0
90
90
60
ENDCHAR
STARTCHAR GREEK THETA SYMBOL
ENCODING 977
SWIDTH 480 0
DWIDTH 5 0
BBX 6 6 0 0
BITMAP
30
48
5C
E8
48
30
ENDCHAR
STARTCHAR uni0059
ENCODING 978
SWIDTH 480 0
DWIDTH 5 0
BBX 6 6 0 0
BITMAP
88
8C
50
20
20
20
ENDCHAR
STARTCHAR uni0059
ENCODING 979
SWIDTH 480 0
DWIDTH 5 0
BBX 6 7 0 0
BITMAP
40
88
8C
50
20
20
20
ENDCHAR
STARTCHAR uni0059
ENCODING 980
SWIDTH 480 0
DWIDTH 5 0
BBX 6 8 0 0
BITMAP
50
00
88
8C
50
20
20
20
ENDCHAR
STARTCHAR GREEK PHI SYMBOL
ENCODING 981
SWIDTH 480 0
DWIDTH 5 0
BBX 5 9 1 -2
BITMAP
20
20
70
A8
A8
A8
70
20
20
ENDCHAR
STARTCHAR GREEK PI SYMBOL
ENCODING 982
SWIDTH 480 0
DWIDTH 5 0
BBX 5 5 1 0
BITMAP
F8
88
A8
D8
88
ENDCHAR
STARTCHAR uni0078
ENCODING 983
SWIDTH 480 0
DWIDTH 5 0
BBX 5 6 1 -1
BITMAP
90
90
60
90
98
20
ENDCHAR
STARTCHAR GREEK LETTER ARCHAIC KOPPA
ENCODING 984
SWIDTH 480 0
DWIDTH 5 0
BBX 5 8 0 -2
BITMAP
70
88
88
88
88
70
20
20
ENDCHAR
STARTCHAR GREEK SMALL LETTER ARCHAIC KOPPA
ENCODING 985
SWIDTH 480 0
DWIDTH 5 0
BBX 5 7 0 -2
BITMAP
70
88
88
88
70
20
20
ENDCHAR
STARTCHAR GREEK LETTER STIGMA
ENCODING 986
SWIDTH 480 0
DWIDTH 5 0
BBX 5 8 1 -2
BITMAP
70
80
80
80
80
70
08
30
ENDCHAR
STARTCHAR GREEK SMALL LETTER STIGMA
ENCODING 987
SWIDTH 480 0
DWIDTH 5 0
BBX 5 7 1 -2
BITMAP
70
80
80
80
70
08
30
ENDCHAR
STARTCHAR uni0046
ENCODING 988
SWIDTH 480 0
DWIDTH 5 0
BBX 4 6 1 0
BITMAP
F0
80
F0
90
80
80
ENDCHAR
STARTCHAR uni0046
ENCODING 989
SWIDTH 480 0
DWIDTH 5 0
BBX 4 6 1 -1
BITMAP
F0
80
E0
A0
80
80
ENDCHAR
STARTCHAR GREEK LETTER KOPPA
ENCODING 990
SWIDTH 480 0
DWIDTH 5 0
BBX 6 6 0 -1
BITMAP
80
48
58
68
48
04
ENDCHAR
STARTCHAR GREEK SMALL LETTER KOPPA
ENCODING 991
SWIDTH 480 0
DWIDTH 5 0
BBX 3 7 1 -1
BITMAP
20
40
80
E0
20
40
80
ENDCHAR
STARTCHAR GREEK LETTER SAMPI
ENCODING 992
SWIDTH 480 0
DWIDTH 5 0
BBX 4 7 1 -1
BITMAP
40
20
60
90
30
50
10
ENDCHAR
STARTCHAR GREEK SMALL LETTER SAMPI
ENCODING 993
SWIDTH 480 0
DWIDTH 5 0
BBX 4 7 1 -1
BITMAP
40
20
60
90
30
50
10
ENDCHAR
STARTCHAR COPTIC CAPITAL LETTER SHEI
ENCODING 994
SWIDTH 480 0
DWIDTH 5 0
BBX 5 7 1 -1
BITMAP
A8
A8
A8
A8
58
08
F0
ENDCHAR
STARTCHAR COPTIC SMALL LETTER SHEI
ENCODING 995
SWIDTH 480 0
DWIDTH 5 0
BBX 5 6 1 -2
BITMAP
A8
A8
A8
58
08
F0
ENDCHAR
STARTCHAR COPTIC CAPITAL LETTER FEI
ENCODING 996
SWIDTH 480 0
DWIDTH 5 0
BBX 4 7 1 0
BITMAP
50
90
90
70
10
10
10
ENDCHAR
STARTCHAR COPTIC SMALL LETTER FEI
ENCODING 997
SWIDTH 480 0
DWIDTH 5 0
BBX 4 6 1 0
BITMAP
50
90
90
70
10
10
ENDCHAR
STARTCHAR COPTIC CAPITAL LETTER KHEI
ENCODING 998
SWIDTH 480 0
DWIDTH 5 0
BBX 4 9 1 -2
BITMAP
80
80
80
E0
90
90
90
10
E0
ENDCHAR
STARTCHAR COPTIC SMALL LETTER KHEI
ENCODING 999
SWIDTH 480 0
DWIDTH 5 0
BBX 5 7 1 -1
BITMAP
10
70
A8
48
08
70
80
ENDCHAR
STARTCHAR uni0053
ENCODING 1000
SWIDTH 480 0
DWIDTH 5 0
BBX 4 6 1 0
BITMAP
E0
10
60
80
90
60
ENDCHAR
STARTCHAR uni0053
ENCODING 1001
SWIDTH 480 0
DWIDTH 5 0
BBX 4 6 1 0
BITMAP
E0
10
60
80
80
70
ENDCHAR
STARTCHAR COPTIC CAPITAL LETTER GANGIA
ENCODING 1002
SWIDTH 480 0
DWIDTH 5 0
BBX 5 7 1 0
BITMAP
50
A8
20
50
50
88
F8
ENDCHAR
STARTCHAR COPTIC SMALL LETTER GANGIA
ENCODING 1003
SWIDTH 480 0
DWIDTH 5 0
BBX 5 5 0 0
BITMAP
50
A8
20
50
70
ENDCHAR
STARTCHAR COPTIC CAPITAL LETTER SHIMA
ENCODING 1004
SWIDTH 480 0
DWIDTH 5 0
BBX 4 7 1 0
BITMAP
70
80
E0
90
90
90
60
ENDCHAR
STARTCHAR COPTIC SMALL LETTER SHIMA
ENCODING 1005
SWIDTH 480 0
DWIDTH 5 0
BBX 4 6 1 0
BITMAP
60
80
A0
90
90
60
ENDCHAR
STARTCHAR COPTIC CAPITAL LETTER DEI
ENCODING 1006
SWIDTH 480 0
DWIDTH 5 0
BBX 5 6 0 0
BITMAP
20
70
A8
20
20
20
ENDCHAR
STARTCHAR COPTIC SMALL LETTER DEI
ENCODING 1007
SWIDTH 480 0
DWIDTH 5 0
BBX 5 6 0 0
BITMAP
30
20
F8
A0
20
60
ENDCHAR
STARTCHAR uni0078
ENCODING 1008
SWIDTH 480 0
DWIDTH 5 0
BBX 4 5 2 0
BITMAP
90
A0
60
50
90
ENDCHAR
STARTCHAR GREEK RHO SYMBOL
ENCODING 1009
SWIDTH 480 0
DWIDTH 5 0
BBX 4 8 1 -3
BITMAP
60
90
90
90
E0
80
60
10
ENDCHAR
STARTCHAR uni0063
ENCODING 1010
SWIDTH 480 0
DWIDTH 5 0
BBX 4 5 1 0
BITMAP
70
80
80
80
70
ENDCHAR
STARTCHAR uni006A
ENCODING 1011
SWIDTH 480 0
DWIDTH 5 0
BBX 3 9 1 -2
BITMAP
20
00
60
20
20
20
20
20
C0
ENDCHAR
STARTCHAR GREEK CAPITAL LETTER THETA
ENCODING 1012
SWIDTH 480 0
DWIDTH 5 0
BBX 4 6 1 0
BITMAP
60
90
B0
D0
90
60
ENDCHAR
STARTCHAR GREEK LUNATE EPSILON SYMBOL
ENCODING 1013
SWIDTH 480 0
DWIDTH 5 0
BBX 4 5 1 0
BITMAP
70
80
E0
80
70
ENDCHAR
STARTCHAR GREEK REVERSED LUNATE EPSILON SYMBOL
ENCODING 1014
SWIDTH 480 0
DWIDTH 5 0
BBX 4 5 1 0
BITMAP
E0
10
70
10
E0
ENDCHAR
STARTCHAR GREEK CAPITAL LETTER SHO
ENCODING 1015
SWIDTH 480 0
DWIDTH 5 0
BBX 4 6 1 0
BITMAP
80
E0
90
90
E0
80
ENDCHAR
STARTCHAR GREEK SMALL LETTER SHO
ENCODING 1016
SWIDTH 480 0
DWIDTH 5 0
BBX 4 7 1 -1
BITMAP
80
E0
90
90
E0
80
80
ENDCHAR
STARTCHAR uni0043
ENCODING 1017
SWIDTH 480 0
DWIDTH 5 0
BBX 4 6 1 0
BITMAP
70
80
80
80
80
70
ENDCHAR
STARTCHAR uni004D
ENCODING 1018
SWIDTH 480 0
DWIDTH 5 0
BBX 4 6 1 0
BITMAP
90
F0
B0
90
90
90
ENDCHAR
STARTCHAR GREEK SMALL LETTER SAN
ENCODING 1019
SWIDTH 480 0
DWIDTH 5 0
BBX 4 6 1 -2
BITMAP
90
F0
B0
90
80
80
ENDCHAR
STARTCHAR uni0070
ENCODING 1020
SWIDTH 480 0
DWIDTH 5 0
BBX 4 8 1 -3
BITMAP
60
90
90
90
E0
80
C0
80
ENDCHAR
STARTCHAR uni0043
ENCODING 1021
SWIDTH 480 0
DWIDTH 5 0
BBX 5 6 1 0
BITMAP
70
88
08
08
88
70
ENDCHAR
STARTCHAR uni0043
ENCODING 1022
SWIDTH 480 0
DWIDTH 5 0
BBX 4 6 1 0
BITMAP
70
80
A0
80
80
70
ENDCHAR
STARTCHAR uni0043
ENCODING 1023
SWIDTH 480 0
DWIDTH 5 0
BBX 4 6 1 0
BITMAP
E0
10
50
10
10
E0
ENDCHAR
STARTCHAR char203
ENCODING 1024
SWIDTH 480 0
DWIDTH 5 0
BBX 4 8 1 0
BITMAP
40
20
F0
80
E0
80
80
F0
ENDCHAR
STARTCHAR char203
ENCODING 1025
SWIDTH 480 0
DWIDTH 5 0
BBX 4 8 1 0
BITMAP
A0
00
F0
80
E0
80
80
F0
ENDCHAR
STARTCHAR char1026
ENCODING 1026
SWIDTH 480 0
DWIDTH 5 0
BBX 5 8 0 -1
BITMAP
E0
40
70
48
48
48
48
10
ENDCHAR
STARTCHAR char1027
ENCODING 1027
SWIDTH 480 0
DWIDTH 5 0
BBX 4 8 1 0
BITMAP
20
40
F0
80
80
80
80
80
ENDCHAR
STARTCHAR char1028
ENCODING 1028
SWIDTH 480 0
DWIDTH 5 0
BBX 4 6 1 0
BITMAP
60
90
C0
80
90
60
ENDCHAR
STARTCHAR char1029
ENCODING 1029
SWIDTH 480 0
DWIDTH 5 0
BBX 5 6 0 0
BITMAP
38
40
30
08
08
70
ENDCHAR
STARTCHAR char1030
ENCODING 1030
SWIDTH 480 0
DWIDTH 5 0
BBX 3 6 0 0
BITMAP
20
20
20
20
20
20
ENDCHAR
STARTCHAR char1031
ENCODING 1031
SWIDTH 480 0
DWIDTH 5 0
BBX 3 7 1 0
BITMAP
A0
40
40
40
40
40
40
ENDCHAR
STARTCHAR char1032
ENCODING 1032
SWIDTH 480 0
DWIDTH 5 0
BBX 5 6 0 0
BITMAP
38
08
08
08
48
30
ENDCHAR
STARTCHAR char1033
ENCODING 1033
SWIDTH 480 0
DWIDTH 5 0
BBX 6 6 0 0
BITMAP
30
50
58
54
54
98
ENDCHAR
STARTCHAR char1034
ENCODING 1034
SWIDTH 480 0
DWIDTH 5 0
BBX 5 6 1 0
BITMAP
A0
A0
F0
A8
A8
B0
ENDCHAR
STARTCHAR char1035
ENCODING 1035
SWIDTH 480 0
DWIDTH 5 0
BBX 5 7 0 0
BITMAP
F0
40
70
48
48
48
48
ENDCHAR
STARTCHAR char1036
ENCODING 1036
SWIDTH 480 0
DWIDTH 5 0
BBX 5 7 0 0
BITMAP
10
68
50
60
50
48
48
ENDCHAR
STARTCHAR char1080
ENCODING 1037
SWIDTH 480 0
DWIDTH 5 0
BBX 4 8 1 0
BITMAP
40
20
90
B0
B0
D0
D0
90
ENDCHAR
STARTCHAR char1038
ENCODING 1038
SWIDTH 480 0
DWIDTH 5 0
BBX 4 8 1 0
BITMAP
50
20
90
90
90
70
10
60
ENDCHAR
STARTCHAR char1039
ENCODING 1039
SWIDTH 480 0
DWIDTH 5 0
BBX 5 7 0 -1
BITMAP
88
88
88
88
F8
20
20
ENDCHAR
STARTCHAR char1040
ENCODING 1040
SWIDTH 480 0
DWIDTH 5 0
BBX 4 6 1 0
BITMAP
60
90
90
F0
90
90
ENDCHAR
STARTCHAR char1041
ENCODING 1041
SWIDTH 480 0
DWIDTH 5 0
BBX 5 7 0 0
BITMAP
70
40
70
48
48
48
70
ENDCHAR
STARTCHAR char1042
ENCODING 1042
SWIDTH 480 0
DWIDTH 5 0
BBX 4 6 1 0
BITMAP
E0
90
E0
90
90
E0
ENDCHAR
STARTCHAR char1043
ENCODING 1043
SWIDTH 480 0
DWIDTH 5 0
BBX 4 6 1 0
BITMAP
F0
80
80
80
80
80
ENDCHAR
STARTCHAR char1044
ENCODING 1044
SWIDTH 480 0
DWIDTH 5 0
BBX 5 7 0 -1
BITMAP
30
50
50
50
50
F8
88
ENDCHAR
STARTCHAR uni0045
ENCODING 1045
SWIDTH 480 0
DWIDTH 5 0
BBX 4 6 1 0
BITMAP
F0
80
E0
80
80
F0
ENDCHAR
STARTCHAR uni0058
ENCODING 1046
SWIDTH 480 0
DWIDTH 5 0
BBX 5 6 0 0
BITMAP
A8
A8
70
A8
A8
A8
ENDCHAR
STARTCHAR uni0033
ENCODING 1047
SWIDTH 480 0
DWIDTH 5 0
BBX 4 6 1 0
BITMAP
60
90
20
10
90
60
ENDCHAR
STARTCHAR char1080
ENCODING 1048
SWIDTH 480 0
DWIDTH 5 0
BBX 5 6 0 0
BITMAP
48
58
58
68
68
48
ENDCHAR
STARTCHAR char1080
ENCODING 1049
SWIDTH 480 0
DWIDTH 5 0
BBX 4 8 1 0
BITMAP
50
20
90
B0
B0
D0
D0
90
ENDCHAR
STARTCHAR uni004B
ENCODING 1050
SWIDTH 480 0
DWIDTH 5 0
BBX 4 6 1 0
BITMAP
90
A0
C0
A0
90
90
ENDCHAR
STARTCHAR char1051
ENCODING 1051
SWIDTH 480 0
DWIDTH 5 0
BBX 4 6 1 0
BITMAP
70
50
50
50
50
90
ENDCHAR
STARTCHAR uni004D
ENCODING 1052
SWIDTH 480 0
DWIDTH 5 0
BBX 4 6 1 0
BITMAP
90
F0
B0
90
90
90
ENDCHAR
STARTCHAR uni0048
ENCODING 1053
SWIDTH 480 0
DWIDTH 5 0
BBX 4 6 1 0
BITMAP
90
90
F0
90
90
90
ENDCHAR
STARTCHAR uni004F
ENCODING 1054
SWIDTH 480 0
DWIDTH 5 0
BBX 4 6 1 0
BITMAP
60
90
90
90
90
60
ENDCHAR
STARTCHAR char1055
ENCODING 1055
SWIDTH 480 0
DWIDTH 5 0
BBX 5 6 0 0
BITMAP
78
48
48
48
48
48
ENDCHAR
STARTCHAR char1104
ENCODING 1056
SWIDTH 480 0
DWIDTH 5 0
BBX 5 6 0 0
BITMAP
70
48
48
70
40
40
ENDCHAR
STARTCHAR uni0043
ENCODING 1057
SWIDTH 480 0
DWIDTH 5 0
BBX 4 6 1 0
BITMAP
70
80
80
80
80
70
ENDCHAR
STARTCHAR uni0054
ENCODING 1058
SWIDTH 480 0
DWIDTH 5 0
BBX 3 6 2 0
BITMAP
E0
40
40
40
40
40
ENDCHAR
STARTCHAR uni0079
ENCODING 1059
SWIDTH 480 0
DWIDTH 5 0
BBX 4 6 1 0
BITMAP
90
90
90
60
20
C0
ENDCHAR
STARTCHAR char1060
ENCODING 1060
SWIDTH 480 0
DWIDTH 5 0
BBX 5 8 0 -1
BITMAP
20
70
A8
A8
A8
A8
70
20
ENDCHAR
STARTCHAR uni0058
ENCODING 1061
SWIDTH 480 0
DWIDTH 5 0
BBX 4 6 1 0
BITMAP
90
90
60
90
90
90
ENDCHAR
STARTCHAR char1062
ENCODING 1062
SWIDTH 480 0
DWIDTH 5 0
BBX 4 7 1 -1
BITMAP
A0
A0
A0
A0
A0
F0
10
ENDCHAR
STARTCHAR char1063
ENCODING 1063
SWIDTH 480 0
DWIDTH 5 0
BBX 4 6 0 0
BITMAP
90
90
70
10
10
10
ENDCHAR
STARTCHAR char1064
ENCODING 1064
SWIDTH 480 0
DWIDTH 5 0
BBX 5 6 0 0
BITMAP
A8
A8
A8
A8
A8
F0
ENDCHAR
STARTCHAR char1065
ENCODING 1065
SWIDTH 480 0
DWIDTH 5 0
BBX 6 7 0 -1
BITMAP
A8
A8
A8
A8
A8
7C
04
ENDCHAR
STARTCHAR char1066
ENCODING 1066
SWIDTH 480 0
DWIDTH 5 0
BBX 4 6 0 0
BITMAP
C0
40
40
60
50
60
ENDCHAR
STARTCHAR char1067
ENCODING 1067
SWIDTH 480 0
DWIDTH 5 0
BBX 5 6 0 0
BITMAP
48
48
48
68
58
68
ENDCHAR
STARTCHAR char1068
ENCODING 1068
SWIDTH 480 0
DWIDTH 5 0
BBX 5 6 0 0
BITMAP
40
40
40
70
48
70
ENDCHAR
STARTCHAR uni0033
ENCODING 1069
SWIDTH 480 0
DWIDTH 5 0
BBX 4 6 1 0
BITMAP
60
90
30
10
90
60
ENDCHAR
STARTCHAR char1070
ENCODING 1070
SWIDTH 480 0
DWIDTH 5 0
BBX 5 6 1 0
BITMAP
90
A8
E8
A8
A8
90
ENDCHAR
STARTCHAR char1071
ENCODING 1071
SWIDTH 480 0
DWIDTH 5 0
BBX 4 6 1 0
BITMAP
70
90
90
70
90
90
ENDCHAR
STARTCHAR uni0061
ENCODING 1072
SWIDTH 480 0
DWIDTH 5 0
BBX 4 5 1 0
BITMAP
70
90
90
B0
50
ENDCHAR
STARTCHAR char1073
ENCODING 1073
SWIDTH 480 0
DWIDTH 5 0
BBX 4 7 1 0
BITMAP
10
60
80
E0
90
90
E0
ENDCHAR
STARTCHAR char1074
ENCODING 1074
SWIDTH 480 0
DWIDTH 5 0
BBX 4 5 1 0
BITMAP
E0
90
E0
90
E0
ENDCHAR
STARTCHAR char1075
ENCODING 1075
SWIDTH 480 0
DWIDTH 5 0
BBX 4 5 1 0
BITMAP
F0
80
80
80
80
ENDCHAR
STARTCHAR char1044
ENCODING 1076
SWIDTH 480 0
DWIDTH 5 0
BBX 5 7 0 -1
BITMAP
30
50
50
50
50
F8
88
ENDCHAR
STARTCHAR uni0065
ENCODING 1077
SWIDTH 480 0
DWIDTH 5 0
BBX 4 5 1 0
BITMAP
60
90
F0
80
70
ENDCHAR
STARTCHAR uni0058
ENCODING 1078
SWIDTH 480 0
DWIDTH 5 0
BBX 5 5 0 0
BITMAP
A8
A8
70
A8
A8
ENDCHAR
STARTCHAR uni0033
ENCODING 1079
SWIDTH 480 0
DWIDTH 5 0
BBX 4 5 1 0
BITMAP
60
90
20
90
60
ENDCHAR
STARTCHAR char1080
ENCODING 1080
SWIDTH 480 0
DWIDTH 5 0
BBX 4 5 1 0
BITMAP
90
B0
F0
D0
90
ENDCHAR
STARTCHAR char1080
ENCODING 1081
SWIDTH 480 0
DWIDTH 5 0
BBX 4 7 1 0
BITMAP
50
20
90
B0
F0
D0
90
ENDCHAR
STARTCHAR uni006B
ENCODING 1082
SWIDTH 480 0
DWIDTH 5 0
BBX 4 5 1 0
BITMAP
90
A0
E0
90
90
ENDCHAR
STARTCHAR char1051
ENCODING 1083
SWIDTH 480 0
DWIDTH 5 0
BBX 4 5 1 0
BITMAP
70
50
50
50
90
ENDCHAR
STARTCHAR uni006D
ENCODING 1084
SWIDTH 480 0
DWIDTH 5 0
BBX 4 5 1 0
BITMAP
90
F0
B0
90
90
ENDCHAR
STARTCHAR uni006D
ENCODING 1085
SWIDTH 480 0
DWIDTH 5 0
BBX 4 5 1 0
BITMAP
90
90
F0
90
90
ENDCHAR
STARTCHAR uni006F
ENCODING 1086
SWIDTH 480 0
DWIDTH 5 0
BBX 4 5 1 0
BITMAP
60
90
90
90
60
ENDCHAR
STARTCHAR uni006E
ENCODING 1087
SWIDTH 480 0
DWIDTH 5 0
BBX 4 5 1 0
BITMAP
F0
90
90
90
90
ENDCHAR
STARTCHAR uni0070
ENCODING 1088
SWIDTH 480 0
DWIDTH 5 0
BBX 4 7 1 -2
BITMAP
E0
90
90
90
E0
80
80
ENDCHAR
STARTCHAR uni0063
ENCODING 1089
SWIDTH 480 0
DWIDTH 5 0
BBX 4 5 1 0
BITMAP
70
80
80
80
70
ENDCHAR
STARTCHAR uni0074
ENCODING 1090
SWIDTH 480 0
DWIDTH 5 0
BBX 3 5 2 0
BITMAP
E0
40
40
40
40
ENDCHAR
STARTCHAR uni0079
ENCODING 1091
SWIDTH 480 0
DWIDTH 5 0
BBX 4 6 1 -2
BITMAP
90
90
90
60
20
C0
ENDCHAR
STARTCHAR char1060
ENCODING 1092
SWIDTH 480 0
DWIDTH 5 0
BBX 5 7 0 -1
BITMAP
20
70
A8
A8
A8
70
20
ENDCHAR
STARTCHAR uni0078
ENCODING 1093
SWIDTH 480 0
DWIDTH 5 0
BBX 4 5 1 0
BITMAP
90
90
60
90
90
ENDCHAR
STARTCHAR char1062
ENCODING 1094
SWIDTH 480 0
DWIDTH 5 0
BBX 4 6 1 -1
BITMAP
A0
A0
A0
A0
F0
10
ENDCHAR
STARTCHAR char1063
ENCODING 1095
SWIDTH 480 0
DWIDTH 5 0
BBX 4 5 0 0
BITMAP
90
90
70
10
10
ENDCHAR
STARTCHAR char1064
ENCODING 1096
SWIDTH 480 0
DWIDTH 5 0
BBX 5 5 0 0
BITMAP
A8
A8
A8
A8
F0
ENDCHAR
STARTCHAR char1065
ENCODING 1097
SWIDTH 480 0
DWIDTH 5 0
BBX 6 6 0 -1
BITMAP
A8
A8
A8
A8
7C
04
ENDCHAR
STARTCHAR char1066
ENCODING 1098
SWIDTH 480 0
DWIDTH 5 0
BBX 4 5 1 0
BITMAP
C0
40
60
50
60
ENDCHAR
STARTCHAR char1067
ENCODING 1099
SWIDTH 480 0
DWIDTH 5 0
BBX 4 5 1 0
BITMAP
90
90
D0
B0
D0
ENDCHAR
STARTCHAR char1068
ENCODING 1100
SWIDTH 480 0
DWIDTH 5 0
BBX 4 5 1 0
BITMAP
80
80
E0
90
E0
ENDCHAR
STARTCHAR uni0033
ENCODING 1101
SWIDTH 480 0
DWIDTH 5 0
BBX 4 5 1 0
BITMAP
60
90
30
90
60
ENDCHAR
STARTCHAR char1070
ENCODING 1102
SWIDTH 480 0
DWIDTH 5 0
BBX 5 5 1 0
BITMAP
90
A8
E8
A8
90
ENDCHAR
STARTCHAR char1071
ENCODING 1103
SWIDTH 480 0
DWIDTH 5 0
BBX 4 5 1 0
BITMAP
70
90
70
90
90
ENDCHAR
STARTCHAR uni0065
ENCODING 1104
SWIDTH 480 0
DWIDTH 5 0
BBX 4 8 1 0
BITMAP
40
20
00
60
90
F0
80
70
ENDCHAR
STARTCHAR uni0065
ENCODING 1105
SWIDTH 480 0
DWIDTH 5 0
BBX 4 7 1 0
BITMAP
A0
00
60
90
F0
80
70
ENDCHAR
STARTCHAR char1026
ENCODING 1106
SWIDTH 480 0
DWIDTH 5 0
BBX 5 7 0 -1
BITMAP
40
E0
40
70
48
48
10
ENDCHAR
STARTCHAR char1027
ENCODING 1107
SWIDTH 480 0
DWIDTH 5 0
BBX 4 7 1 0
BITMAP
20
40
F0
80
80
80
80
ENDCHAR
STARTCHAR char1028
ENCODING 1108
SWIDTH 480 0
DWIDTH 5 0
BBX 4 5 1 0
BITMAP
60
90
C0
90
60
ENDCHAR
STARTCHAR uni0073
ENCODING 1109
SWIDTH 480 0
DWIDTH 5 0
BBX 4 5 1 0
BITMAP
70
80
60
10
E0
ENDCHAR
STARTCHAR uni0069
ENCODING 1110
SWIDTH 480 0
DWIDTH 5 0
BBX 2 7 2 0
BITMAP
40
00
C0
40
40
40
40
ENDCHAR
STARTCHAR uni0069
ENCODING 1111
SWIDTH 480 0
DWIDTH 5 0
BBX 3 7 2 0
BITMAP
A0
00
C0
40
40
40
40
ENDCHAR
STARTCHAR uni006A
ENCODING 1112
SWIDTH 480 0
DWIDTH 5 0
BBX 3 9 1 -2
BITMAP
20
00
60
20
20
20
20
20
C0
ENDCHAR
STARTCHAR CYRILLIC SMALL LETTER LJE
ENCODING 1113
SWIDTH 480 0
DWIDTH 5 0
BBX 6 5 0 0
BITMAP
30
50
58
54
98
ENDCHAR
STARTCHAR CYRILLIC SMALL LETTER NJE
ENCODING 1114
SWIDTH 480 0
DWIDTH 5 0
BBX 5 5 0 0
BITMAP
A0
A0
F0
A8
B0
ENDCHAR
STARTCHAR CYRILLIC SMALL LETTER TSHE
ENCODING 1115
SWIDTH 480 0
DWIDTH 5 0
BBX 5 7 0 0
BITMAP
40
40
F0
40
70
48
48
ENDCHAR
STARTCHAR CYRILLIC SMALL LETTER KJE
ENCODING 1116
SWIDTH 480 0
DWIDTH 5 0
BBX 4 8 0 0
BITMAP
10
20
00
90
A0
E0
90
90
ENDCHAR
STARTCHAR CYRILLIC SMALL LETTER I WITH GRAVE
ENCODING 1117
SWIDTH 480 0
DWIDTH 5 0
BBX 4 8 0 0
BITMAP
40
20
00
90
B0
B0
D0
90
ENDCHAR
STARTCHAR uni0079
ENCODING 1118
SWIDTH 480 0
DWIDTH 5 0
BBX 4 10 1 -2
BITMAP
90
60
00
90
90
90
90
70
10
60
ENDCHAR
STARTCHAR uni0079
ENCODING 1119
SWIDTH 480 0
DWIDTH 5 0
BBX 5 7 1 -2
BITMAP
88
88
88
88
70
20
20
ENDCHAR
STARTCHAR CYRILLIC CAPITAL LETTER OMEGA
ENCODING 1120
SWIDTH 480 0
DWIDTH 5 0
BBX 5 7 0 0
BITMAP
A8
A8
A8
A8
A8
A8
50
ENDCHAR
STARTCHAR CYRILLIC SMALL LETTER OMEGA
ENCODING 1121
SWIDTH 480 0
DWIDTH 5 0
BBX 5 5 0 0
BITMAP
A8
A8
A8
A8
50
ENDCHAR
STARTCHAR char1122
ENCODING 1122
SWIDTH 480 0
DWIDTH 5 0
BBX 5 7 0 0
BITMAP
40
E0
40
70
48
48
70
ENDCHAR
STARTCHAR char1123
ENCODING 1123
SWIDTH 480 0
DWIDTH 5 0
BBX 5 6 0 0
BITMAP
40
E0
40
70
48
70
ENDCHAR
STARTCHAR CYRILLIC CAPITAL LETTER IOTIFIED E
ENCODING 1124
SWIDTH 480 0
DWIDTH 5 0
BBX 5 7 0 0
BITMAP
90
A8
A0
F0
A0
A8
90
ENDCHAR
STARTCHAR CYRILLIC SMALL LETTER IOTIFIED E
ENCODING 1125
SWIDTH 480 0
DWIDTH 5 0
BBX 5 5 0 0
BITMAP
98
A0
F0
A0
98
ENDCHAR
STARTCHAR char1126
ENCODING 1126
SWIDTH 480 0
DWIDTH 5 0
BBX 5 6 1 0
BITMAP
20
20
50
70
A8
A8
ENDCHAR
STARTCHAR char1127
ENCODING 1127
SWIDTH 480 0
DWIDTH 5 0
BBX 5 5 1 0
BITMAP
20
50
70
A8
A8
ENDCHAR
STARTCHAR char1128
ENCODING 1128
SWIDTH 480 0
DWIDTH 5 0
BBX 5 6 1 0
BITMAP
A0
A0
D0
F0
A8
A8
ENDCHAR
STARTCHAR char1129
ENCODING 1129
SWIDTH 480 0
DWIDTH 5 0
BBX 5 5 1 0
BITMAP
A0
D0
F0
A8
A8
ENDCHAR
STARTCHAR CYRILLIC CAPITAL LETTER BIG YUS
ENCODING 1130
SWIDTH 480 0
DWIDTH 5 0
BBX 5 7 0 0
BITMAP
F8
88
50
70
A8
A8
A8
ENDCHAR
STARTCHAR CYRILLIC SMALL LETTER BIG YUS
ENCODING 1131
SWIDTH 480 0
DWIDTH 5 0
BBX 5 5 0 0
BITMAP
70
50
20
70
A8
ENDCHAR
STARTCHAR CYRILLIC CAPITAL LETTER IOTIFIED BIG YUS
ENCODING 1132
SWIDTH 480 0
DWIDTH 5 0
BBX 5 7 0 0
BITMAP
F0
D0
A0
F0
A8
A8
A8
ENDCHAR
STARTCHAR CYRILLIC SMALL LETTER IOTIFIED BIG YUS
ENCODING 1133
SWIDTH 480 0
DWIDTH 5 0
BBX 5 5 0 0
BITMAP
F0
D0
A0
F0
A8
ENDCHAR
STARTCHAR CYRILLIC CAPITAL LETTER KSI
ENCODING 1134
SWIDTH 480 0
DWIDTH 5 0
BBX 4 11 1 -2
BITMAP
A0
40
00
E0
10
60
10
10
60
80
60
ENDCHAR
STARTCHAR CYRILLIC SMALL LETTER KSI
ENCODING 1135
SWIDTH 480 0
DWIDTH 5 0
BBX 4 10 1 -2
BITMAP
A0
40
00
E0
10
60
10
60
80
40
ENDCHAR
STARTCHAR CYRILLIC CAPITAL LETTER PSI
ENCODING 1136
SWIDTH 480 0
DWIDTH 5 0
BBX 5 7 0 0
BITMAP
A8
A8
A8
A8
70
20
20
ENDCHAR
STARTCHAR CYRILLIC SMALL LETTER PSI
ENCODING 1137
SWIDTH 480 0
DWIDTH 5 0
BBX 5 6 0 0
BITMAP
A8
A8
A8
70
20
20
ENDCHAR
STARTCHAR CYRILLIC CAPITAL LETTER FITA
ENCODING 1138
SWIDTH 480 0
DWIDTH 5 0
BBX 4 7 1 0
BITMAP
60
90
90
F0
90
90
60
ENDCHAR
STARTCHAR CYRILLIC SMALL LETTER FITA
ENCODING 1139
SWIDTH 480 0
DWIDTH 5 0
BBX 4 5 1 0
BITMAP
60
90
F0
90
60
ENDCHAR
STARTCHAR char1140
ENCODING 1140
SWIDTH 480 0
DWIDTH 5 0
BBX 5 6 1 0
BITMAP
90
98
90
60
60
60
ENDCHAR
STARTCHAR char1141
ENCODING 1141
SWIDTH 480 0
DWIDTH 5 0
BBX 5 5 1 0
BITMAP
90
98
90
60
60
ENDCHAR
STARTCHAR char1142
ENCODING 1142
SWIDTH 480 0
DWIDTH 5 0
BBX 6 8 0 0
BITMAP
50
28
48
4C
48
30
30
30
ENDCHAR
STARTCHAR char1143
ENCODING 1143
SWIDTH 480 0
DWIDTH 5 0
BBX 5 7 1 0
BITMAP
A0
50
90
98
90
60
60
ENDCHAR
STARTCHAR CYRILLIC CAPITAL LETTER UK
ENCODING 1144
SWIDTH 480 0
DWIDTH 5 0
BBX 5 9 0 -2
BITMAP
40
A0
A0
A8
A8
A8
58
08
30
ENDCHAR
STARTCHAR CYRILLIC SMALL LETTER UK
ENCODING 1145
SWIDTH 480 0
DWIDTH 5 0
BBX 5 7 0 -2
BITMAP
40
A8
A8
A8
58
08
30
ENDCHAR
STARTCHAR CYRILLIC CAPITAL LETTER ROUND OMEGA
ENCODING 1146
SWIDTH 480 0
DWIDTH 5 0
BBX 5 9 0 -1
BITMAP
20
70
A8
88
88
88
A8
70
20
ENDCHAR
STARTCHAR CYRILLIC SMALL LETTER ROUND OMEGA
ENCODING 1147
SWIDTH 480 0
DWIDTH 5 0
BBX 5 7 0 -1
BITMAP
20
70
A8
88
A8
70
20
ENDCHAR
STARTCHAR CYRILLIC CAPITAL LETTER OMEGA WITH TITLO
ENCODING 1148
SWIDTH 480 0
DWIDTH 5 0
BBX 5 9 0 0
BITMAP
60
90
08
20
88
88
88
A8
50
ENDCHAR
STARTCHAR CYRILLIC SMALL LETTER OMEGA WITH TITLO
ENCODING 1149
SWIDTH 480 0
DWIDTH 5 0
BBX 5 8 0 0
BITMAP
60
90
08
20
88
88
A8
50
ENDCHAR
STARTCHAR CYRILLIC CAPITAL LETTER OT
ENCODING 1150
SWIDTH 480 0
DWIDTH 5 0
BBX 5 9 0 0
BITMAP
F8
A8
00
A8
A8
A8
A8
A8
50
ENDCHAR
STARTCHAR CYRILLIC SMALL LETTER OT
ENCODING 1151
SWIDTH 480 0
DWIDTH 5 0
BBX 5 8 0 0
BITMAP
F8
A8
00
A8
A8
A8
A8
50
ENDCHAR
STARTCHAR uni0043
ENCODING 1152
SWIDTH 480 0
DWIDTH 5 0
BBX 4 8 1 -2
BITMAP
70
80
80
80
80
60
20
70
ENDCHAR
STARTCHAR uni0063
ENCODING 1153
SWIDTH 480 0
DWIDTH 5 0
BBX 4 7 1 -2
BITMAP
70
80
80
80
60
20
70
ENDCHAR
STARTCHAR CYRILLIC THOUSANDS SIGN
ENCODING 1154
SWIDTH 480 0
DWIDTH 5 0
BBX 4 8 0 0
BITMAP
10
10
60
30
C0
60
80
80
ENDCHAR
STARTCHAR char1155
ENCODING 1155
SWIDTH 480 0
DWIDTH 5 0
BBX 4 3 2 4
BITMAP
10
60
80
ENDCHAR
STARTCHAR uni006F
ENCODING 1156
SWIDTH 480 0
DWIDTH 5 0
BBX 4 8 1 0
BITMAP
10
F0
00
60
90
90
90
60
ENDCHAR
STARTCHAR uni006F
ENCODING 1157
SWIDTH 480 0
DWIDTH 5 0
BBX 4 8 1 0
BITMAP
20
D0
00
60
90
90
90
60
ENDCHAR
STARTCHAR uni006F
ENCODING 1158
SWIDTH 480 0
DWIDTH 5 0
BBX 4 8 1 0
BITMAP
40
40
00
60
90
90
90
60
ENDCHAR
STARTCHAR uni006F
ENCODING 1159
SWIDTH 480 0
DWIDTH 5 0
BBX 4 8 1 0
BITMAP
20
20
00
60
90
90
90
60
ENDCHAR
STARTCHAR uni006F
ENCODING 1160
SWIDTH 480 0
DWIDTH 5 0
BBX 4 8 1 0
BITMAP
40
B0
00
60
90
90
90
60
ENDCHAR
STARTCHAR char1161
ENCODING 1161
SWIDTH 480 0
DWIDTH 5 0
BBX 7 5 0 0
BITMAP
14
40
BE
A0
54
ENDCHAR
STARTCHAR char1161
ENCODING 1162
SWIDTH 480 0
DWIDTH 5 0
BBX 7 5 0 0
BITMAP
14
40
A2
A0
54
ENDCHAR
STARTCHAR char1080
ENCODING 1163
SWIDTH 480 0
DWIDTH 5 0
BBX 5 9 1 -1
BITMAP
50
20
90
B0
B0
D0
D0
98
10
ENDCHAR
STARTCHAR char1080
ENCODING 1164
SWIDTH 480 0
DWIDTH 5 0
BBX 5 8 1 -1
BITMAP
50
20
90
B0
F0
D0
98
10
ENDCHAR
STARTCHAR char1068
ENCODING 1165
SWIDTH 480 0
DWIDTH 5 0
BBX 5 6 0 0
BITMAP
40
E0
40
70
48
70
ENDCHAR
STARTCHAR uni0050
ENCODING 1166
SWIDTH 480 0
DWIDTH 5 0
BBX 5 6 1 0
BITMAP
E0
90
B0
F0
88
80
ENDCHAR
STARTCHAR uni0070
ENCODING 1167
SWIDTH 480 0
DWIDTH 5 0
BBX 5 7 1 -2
BITMAP
E0
90
90
B0
F0
88
80
ENDCHAR
STARTCHAR char1027
ENCODING 1168
SWIDTH 480 0
DWIDTH 5 0
BBX 4 7 1 0
BITMAP
10
F0
80
80
80
80
80
ENDCHAR
STARTCHAR char1075
ENCODING 1169
SWIDTH 480 0
DWIDTH 5 0
BBX 4 6 1 0
BITMAP
10
F0
80
80
80
80
ENDCHAR
STARTCHAR uni0046
ENCODING 1170
SWIDTH 480 0
DWIDTH 5 0
BBX 5 6 0 0
BITMAP
78
40
F0
40
40
40
ENDCHAR
STARTCHAR uni0046
ENCODING 1171
SWIDTH 480 0
DWIDTH 5 0
BBX 5 5 0 0
BITMAP
78
40
F0
40
40
ENDCHAR
STARTCHAR char1026
ENCODING 1172
SWIDTH 480 0
DWIDTH 5 0
BBX 4 7 1 -1
BITMAP
E0
80
E0
90
90
90
20
ENDCHAR
STARTCHAR char1026
ENCODING 1173
SWIDTH 480 0
DWIDTH 5 0
BBX 4 6 1 -1
BITMAP
C0
80
E0
90
90
20
ENDCHAR
STARTCHAR uni0058
ENCODING 1174
SWIDTH 480 0
DWIDTH 5 0
BBX 6 7 0 -1
BITMAP
A8
A8
70
A8
A8
AC
04
ENDCHAR
STARTCHAR uni0058
ENCODING 1175
SWIDTH 480 0
DWIDTH 5 0
BBX 6 6 0 -1
BITMAP
A8
A8
70
A8
AC
04
ENDCHAR
STARTCHAR uni0033
ENCODING 1176
SWIDTH 480 0
DWIDTH 5 0
BBX 4 8 1 -2
BITMAP
60
90
20
10
90
60
20
40
ENDCHAR
STARTCHAR uni0033
ENCODING 1177
SWIDTH 480 0
DWIDTH 5 0
BBX 4 7 1 -2
BITMAP
60
90
20
90
60
20
40
ENDCHAR
STARTCHAR uni004B
ENCODING 1178
SWIDTH 480 0
DWIDTH 5 0
BBX 5 7 1 -1
BITMAP
90
A0
C0
A0
90
98
08
ENDCHAR
STARTCHAR uni006B
ENCODING 1179
SWIDTH 480 0
DWIDTH 5 0
BBX 5 6 1 -1
BITMAP
90
A0
E0
90
98
08
ENDCHAR
STARTCHAR uni004B
ENCODING 1180
SWIDTH 480 0
DWIDTH 5 0
BBX 4 6 1 0
BITMAP
90
A0
E0
F0
90
90
ENDCHAR
STARTCHAR uni006B
ENCODING 1181
SWIDTH 480 0
DWIDTH 5 0
BBX 4 5 1 0
BITMAP
90
E0
E0
D0
90
ENDCHAR
STARTCHAR uni004B
ENCODING 1182
SWIDTH 480 0
DWIDTH 5 0
BBX 5 6 0 0
BITMAP
48
F0
60
50
48
48
ENDCHAR
STARTCHAR uni006B
ENCODING 1183
SWIDTH 480 0
DWIDTH 5 0
BBX 5 5 0 0
BITMAP
48
F0
70
48
48
ENDCHAR
STARTCHAR uni004B
ENCODING 1184
SWIDTH 480 0
DWIDTH 5 0
BBX 5 6 0 0
BITMAP
C8
50
60
50
48
48
ENDCHAR
STARTCHAR uni006B
ENCODING 1185
SWIDTH 480 0
DWIDTH 5 0
BBX 5 5 0 0
BITMAP
C8
50
70
48
48
ENDCHAR
STARTCHAR uni0048
ENCODING 1186
SWIDTH 480 0
DWIDTH 5 0
BBX 5 7 1 -1
BITMAP
90
90
F0
90
90
98
08
ENDCHAR
STARTCHAR uni006D
ENCODING 1187
SWIDTH 480 0
DWIDTH 5 0
BBX 5 6 1 -1
BITMAP
90
90
F0
90
98
08
ENDCHAR
STARTCHAR uni0048
ENCODING 1188
SWIDTH 480 0
DWIDTH 5 0
BBX 5 6 1 0
BITMAP
98
90
F0
90
90
90
ENDCHAR
STARTCHAR uni006D
ENCODING 1189
SWIDTH 480 0
DWIDTH 5 0
BBX 5 5 1 0
BITMAP
98
90
F0
90
90
ENDCHAR
STARTCHAR char1055
ENCODING 1190
SWIDTH 480 0
DWIDTH 5 0
BBX 6 8 1 -2
BITMAP
F0
90
90
90
98
94
04
08
ENDCHAR
STARTCHAR uni006E
ENCODING 1191
SWIDTH 480 0
DWIDTH 5 0
BBX 6 7 1 -2
BITMAP
F0
90
90
98
94
04
08
ENDCHAR
STARTCHAR char1060
ENCODING 1192
SWIDTH 480 0
DWIDTH 5 0
BBX 5 7 0 -1
BITMAP
40
90
A8
A8
A8
70
18
ENDCHAR
STARTCHAR char1060
ENCODING 1193
SWIDTH 480 0
DWIDTH 5 0
BBX 5 6 0 -1
BITMAP
40
90
A8
A8
70
18
ENDCHAR
STARTCHAR uni0043
ENCODING 1194
SWIDTH 480 0
DWIDTH 5 0
BBX 4 8 1 -2
BITMAP
70
80
80
80
80
70
20
60
ENDCHAR
STARTCHAR uni0063
ENCODING 1195
SWIDTH 480 0
DWIDTH 5 0
BBX 4 7 1 -2
BITMAP
70
80
80
80
70
20
60
ENDCHAR
STARTCHAR uni0054
ENCODING 1196
SWIDTH 480 0
DWIDTH 5 0
BBX 5 7 0 -1
BITMAP
F8
20
20
20
20
30
10
ENDCHAR
STARTCHAR uni0054
ENCODING 1197
SWIDTH 480 0
DWIDTH 5 0
BBX 5 6 0 -1
BITMAP
F8
20
20
20
30
10
ENDCHAR
STARTCHAR uni0059
ENCODING 1198
SWIDTH 480 0
DWIDTH 5 0
BBX 5 6 0 0
BITMAP
88
50
20
20
20
20
ENDCHAR
STARTCHAR uni0059
ENCODING 1199
SWIDTH 480 0
DWIDTH 5 0
BBX 5 6 0 -2
BITMAP
88
50
20
20
20
20
ENDCHAR
STARTCHAR uni0059
ENCODING 1200
SWIDTH 480 0
DWIDTH 5 0
BBX 5 6 0 0
BITMAP
88
50
20
70
20
20
ENDCHAR
STARTCHAR uni0059
ENCODING 1201
SWIDTH 480 0
DWIDTH 5 0
BBX 5 6 0 -2
BITMAP
88
50
20
70
20
20
ENDCHAR
STARTCHAR uni0058
ENCODING 1202
SWIDTH 480 0
DWIDTH 5 0
BBX 5 7 1 -1
BITMAP
90
90
60
90
90
98
08
ENDCHAR
STARTCHAR uni0078
ENCODING 1203
SWIDTH 480 0
DWIDTH 5 0
BBX 5 6 1 -1
BITMAP
90
90
60
90
98
08
ENDCHAR
STARTCHAR uni0054
ENCODING 1204
SWIDTH 480 0
DWIDTH 5 0
BBX 6 7 0 -1
BITMAP
E8
48
48
48
48
7C
04
ENDCHAR
STARTCHAR uni0054
ENCODING 1205
SWIDTH 480 0
DWIDTH 5 0
BBX 6 6 0 -1
BITMAP
E8
48
48
48
7C
04
ENDCHAR
STARTCHAR char1063
ENCODING 1206
SWIDTH 480 0
DWIDTH 5 0
BBX 5 7 0 -1
BITMAP
90
90
70
10
10
38
08
ENDCHAR
STARTCHAR char1063
ENCODING 1207
SWIDTH 480 0
DWIDTH 5 0
BBX 5 6 0 -1
BITMAP
90
90
70
10
30
08
ENDCHAR
STARTCHAR char1063
ENCODING 1208
SWIDTH 480 0
DWIDTH 5 0
BBX 4 6 0 0
BITMAP
90
90
F0
50
10
10
ENDCHAR
STARTCHAR char1063
ENCODING 1209
SWIDTH 480 0
DWIDTH 5 0
BBX 4 5 0 0
BITMAP
90
90
F0
50
10
ENDCHAR
STARTCHAR uni0068
ENCODING 1210
SWIDTH 480 0
DWIDTH 5 0
BBX 4 7 1 0
BITMAP
80
80
A0
D0
90
90
90
ENDCHAR
STARTCHAR uni0068
ENCODING 1211
SWIDTH 480 0
DWIDTH 5 0
BBX 4 7 1 0
BITMAP
80
80
E0
90
90
90
90
ENDCHAR
STARTCHAR uni0065
ENCODING 1212
SWIDTH 480 0
DWIDTH 5 0
BBX 5 6 0 0
BITMAP
30
48
C8
78
40
38
ENDCHAR
STARTCHAR uni0065
ENCODING 1213
SWIDTH 480 0
DWIDTH 5 0
BBX 5 5 0 0
BITMAP
30
C8
78
40
38
ENDCHAR
STARTCHAR uni0065
ENCODING 1214
SWIDTH 480 0
DWIDTH 5 0
BBX 5 7 0 -1
BITMAP
30
48
C8
78
40
38
10
ENDCHAR
STARTCHAR uni0065
ENCODING 1215
SWIDTH 480 0
DWIDTH 5 0
BBX 5 6 0 -1
BITMAP
30
C8
78
40
38
10
ENDCHAR
STARTCHAR char1030
ENCODING 1216
SWIDTH 480 0
DWIDTH 5 0
BBX 3 6 0 0
BITMAP
20
20
20
20
20
20
ENDCHAR
STARTCHAR uni0058
ENCODING 1217
SWIDTH 480 0
DWIDTH 5 0
BBX 5 8 0 0
BITMAP
50
20
88
A8
70
A8
A8
A8
ENDCHAR
STARTCHAR uni0058
ENCODING 1218
SWIDTH 480 0
DWIDTH 5 0
BBX 5 8 0 0
BITMAP
50
20
00
A8
A8
70
A8
A8
ENDCHAR
STARTCHAR uni004B
ENCODING 1219
SWIDTH 480 0
DWIDTH 5 0
BBX 4 7 1 -1
BITMAP
90
A0
C0
A0
90
90
20
ENDCHAR
STARTCHAR uni006B
ENCODING 1220
SWIDTH 480 0
DWIDTH 5 0
BBX 4 6 1 -1
BITMAP
90
A0
E0
90
90
20
ENDCHAR
STARTCHAR char1051
ENCODING 1221
SWIDTH 480 0
DWIDTH 5 0
BBX 5 7 1 -1
BITMAP
70
50
50
50
50
98
08
ENDCHAR
STARTCHAR char1051
ENCODING 1222
SWIDTH 480 0
DWIDTH 5 0
BBX 5 6 1 -1
BITMAP
70
50
50
50
98
08
ENDCHAR
STARTCHAR uni0048
ENCODING 1223
SWIDTH 480 0
DWIDTH 5 0
BBX 4 7 1 -1
BITMAP
90
90
F0
90
90
90
20
ENDCHAR
STARTCHAR uni006D
ENCODING 1224
SWIDTH 480 0
DWIDTH 5 0
BBX 4 6 1 -1
BITMAP
90
90
F0
90
90
20
ENDCHAR
STARTCHAR uni0048
ENCODING 1225
SWIDTH 480 0
DWIDTH 5 0
BBX 5 7 1 -1
BITMAP
90
90
F0
90
90
98
10
ENDCHAR
STARTCHAR uni006D
ENCODING 1226
SWIDTH 480 0
DWIDTH 5 0
BBX 5 6 1 -1
BITMAP
90
90
F0
90
98
10
ENDCHAR
STARTCHAR char1063
ENCODING 1227
SWIDTH 480 0
DWIDTH 5 0
BBX 4 7 0 -1
BITMAP
90
90
70
10
10
30
20
ENDCHAR
STARTCHAR char1063
ENCODING 1228
SWIDTH 480 0
DWIDTH 5 0
BBX 4 6 0 -1
BITMAP
90
90
70
10
30
20
ENDCHAR
STARTCHAR uni004D
ENCODING 1229
SWIDTH 480 0
DWIDTH 5 0
BBX 5 7 1 -1
BITMAP
90
F0
B0
90
90
98
10
ENDCHAR
STARTCHAR uni006D
ENCODING 1230
SWIDTH 480 0
DWIDTH 5 0
BBX 5 6 1 -1
BITMAP
90
F0
B0
90
98
10
ENDCHAR
STARTCHAR char1030
ENCODING 1231
SWIDTH 480 0
DWIDTH 5 0
BBX 3 6 1 0
BITMAP
40
40
40
E0
40
40
ENDCHAR
STARTCHAR char1040
ENCODING 1232
SWIDTH 480 0
DWIDTH 5 0
BBX 4 8 1 0
BITMAP
90
60
60
90
90
F0
90
90
ENDCHAR
STARTCHAR uni0061
ENCODING 1233
SWIDTH 480 0
DWIDTH 5 0
BBX 4 8 1 0
BITMAP
90
60
00
70
90
90
B0
50
ENDCHAR
STARTCHAR char1040
ENCODING 1234
SWIDTH 480 0
DWIDTH 5 0
BBX 4 8 1 0
BITMAP
90
00
60
90
90
F0
90
90
ENDCHAR
STARTCHAR uni0061
ENCODING 1235
SWIDTH 480 0
DWIDTH 5 0
BBX 4 7 1 0
BITMAP
90
00
70
90
90
B0
50
ENDCHAR
STARTCHAR char198
ENCODING 1236
SWIDTH 480 0
DWIDTH 5 0
BBX 6 6 0 0
BITMAP
7C
90
98
F0
90
9C
ENDCHAR
STARTCHAR uni0061
ENCODING 1237
SWIDTH 480 0
DWIDTH 5 0
BBX 5 5 1 0
BITMAP
70
A8
B8
A0
78
ENDCHAR
STARTCHAR uni0045
ENCODING 1238
SWIDTH 480 0
DWIDTH 5 0
BBX 4 8 1 0
BITMAP
90
60
F0
80
E0
80
80
F0
ENDCHAR
STARTCHAR uni0065
ENCODING 1239
SWIDTH 480 0
DWIDTH 5 0
BBX 4 8 1 0
BITMAP
90
60
00
60
90
F0
80
70
ENDCHAR
STARTCHAR uni0065
ENCODING 1240
SWIDTH 480 0
DWIDTH 5 0
BBX 4 6 1 0
BITMAP
E0
10
F0
90
90
60
ENDCHAR
STARTCHAR uni0065
ENCODING 1241
SWIDTH 480 0
DWIDTH 5 0
BBX 4 5 1 0
BITMAP
E0
10
F0
90
60
ENDCHAR
STARTCHAR uni0065
ENCODING 1242
SWIDTH 480 0
DWIDTH 5 0
BBX 4 8 1 0
BITMAP
90
00
E0
10
F0
90
90
60
ENDCHAR
STARTCHAR uni0065
ENCODING 1243
SWIDTH 480 0
DWIDTH 5 0
BBX 4 7 1 0
BITMAP
90
00
E0
10
F0
90
60
ENDCHAR
STARTCHAR uni0058
ENCODING 1244
SWIDTH 480 0
DWIDTH 5 0
BBX 5 8 0 0
BITMAP
50
00
A8
A8
70
A8
A8
A8
ENDCHAR
STARTCHAR uni0058
ENCODING 1245
SWIDTH 480 0
DWIDTH 5 0
BBX 5 7 0 0
BITMAP
50
00
A8
A8
70
A8
A8
ENDCHAR
STARTCHAR uni0033
ENCODING 1246
SWIDTH 480 0
DWIDTH 5 0
BBX 4 8 1 0
BITMAP
90
00
60
90
20
10
90
60
ENDCHAR
STARTCHAR uni0033
ENCODING 1247
SWIDTH 480 0
DWIDTH 5 0
BBX 4 7 1 0
BITMAP
90
00
60
90
20
90
60
ENDCHAR
STARTCHAR uni0033
ENCODING 1248
SWIDTH 480 0
DWIDTH 5 0
BBX 4 8 1 0
BITMAP
90
00
60
90
20
10
90
60
ENDCHAR
STARTCHAR uni0033
ENCODING 1249
SWIDTH 480 0
DWIDTH 5 0
BBX 4 7 1 0
BITMAP
90
00
60
90
20
90
60
ENDCHAR
STARTCHAR char1080
ENCODING 1250
SWIDTH 480 0
DWIDTH 5 0
BBX 4 8 1 0
BITMAP
60
00
90
B0
B0
D0
D0
90
ENDCHAR
STARTCHAR char1080
ENCODING 1251
SWIDTH 480 0
DWIDTH 5 0
BBX 4 7 1 0
BITMAP
60
00
90
B0
F0
D0
90
ENDCHAR
STARTCHAR char1080
ENCODING 1252
SWIDTH 480 0
DWIDTH 5 0
BBX 4 8 1 0
BITMAP
90
00
90
B0
B0
D0
D0
90
ENDCHAR
STARTCHAR char1080
ENCODING 1253
SWIDTH 480 0
DWIDTH 5 0
BBX 4 7 1 0
BITMAP
90
00
90
B0
F0
D0
90
ENDCHAR
STARTCHAR uni004F
ENCODING 1254
SWIDTH 480 0
DWIDTH 5 0
BBX 4 8 1 0
BITMAP
90
00
60
90
90
90
90
60
ENDCHAR
STARTCHAR uni006F
ENCODING 1255
SWIDTH 480 0
DWIDTH 5 0
BBX 4 7 1 0
BITMAP
90
00
60
90
90
90
60
ENDCHAR
STARTCHAR uni004F
ENCODING 1256
SWIDTH 480 0
DWIDTH 5 0
BBX 4 6 1 0
BITMAP
60
90
F0
90
90
60
ENDCHAR
STARTCHAR uni006F
ENCODING 1257
SWIDTH 480 0
DWIDTH 5 0
BBX 4 5 1 0
BITMAP
60
90
F0
90
60
ENDCHAR
STARTCHAR uni004F
ENCODING 1258
SWIDTH 480 0
DWIDTH 5 0
BBX 4 8 1 0
BITMAP
90
00
60
90
F0
90
90
60
ENDCHAR
STARTCHAR uni006F
ENCODING 1259
SWIDTH 480 0
DWIDTH 5 0
BBX 4 5 1 0
BITMAP
60
90
F0
90
60
ENDCHAR
STARTCHAR uni0033
ENCODING 1260
SWIDTH 480 0
DWIDTH 5 0
BBX 4 8 1 0
BITMAP
90
00
60
90
30
10
90
60
ENDCHAR
STARTCHAR uni0033
ENCODING 1261
SWIDTH 480 0
DWIDTH 5 0
BBX 4 7 1 0
BITMAP
90
00
60
90
30
90
60
ENDCHAR
STARTCHAR uni0059
ENCODING 1262
SWIDTH 480 0
DWIDTH 5 0
BBX 5 8 0 0
BITMAP
70
00
88
50
20
20
20
20
ENDCHAR
STARTCHAR uni0059
ENCODING 1263
SWIDTH 480 0
DWIDTH 5 0
BBX 5 8 0 -2
BITMAP
70
00
88
50
20
20
20
20
ENDCHAR
STARTCHAR uni0079
ENCODING 1264
SWIDTH 480 0
DWIDTH 5 0
BBX 4 8 1 0
BITMAP
90
00
90
90
90
60
20
C0
ENDCHAR
STARTCHAR uni0079
ENCODING 1265
SWIDTH 480 0
DWIDTH 5 0
BBX 4 8 1 -2
BITMAP
90
00
90
90
90
60
20
C0
ENDCHAR
STARTCHAR uni0079
ENCODING 1266
SWIDTH 480 0
DWIDTH 5 0
BBX 4 8 1 0
BITMAP
50
B0
00
90
90
60
20
C0
ENDCHAR
STARTCHAR uni0079
ENCODING 1267
SWIDTH 480 0
DWIDTH 5 0
BBX 4 8 1 -2
BITMAP
50
A0
00
90
90
60
20
C0
ENDCHAR
STARTCHAR char1063
ENCODING 1268
SWIDTH 480 0
DWIDTH 5 0
BBX 4 8 0 0
BITMAP
90
00
90
90
F0
50
10
10
ENDCHAR
STARTCHAR char1063
ENCODING 1269
SWIDTH 480 0
DWIDTH 5 0
BBX 4 7 0 0
BITMAP
90
00
90
90
F0
50
10
ENDCHAR
STARTCHAR char1043
ENCODING 1270
SWIDTH 480 0
DWIDTH 5 0
BBX 4 7 1 -1
BITMAP
F0
80
80
80
80
C0
40
ENDCHAR
STARTCHAR char1075
ENCODING 1271
SWIDTH 480 0
DWIDTH 5 0
BBX 5 6 0 -1
BITMAP
78
40
E0
40
60
20
ENDCHAR
STARTCHAR char1067
ENCODING 1272
SWIDTH 480 0
DWIDTH 5 0
BBX 4 8 1 0
BITMAP
90
00
90
90
90
D0
B0
D0
ENDCHAR
STARTCHAR char1067
ENCODING 1273
SWIDTH 480 0
DWIDTH 5 0
BBX 4 7 1 0
BITMAP
90
00
90
90
D0
B0
D0
ENDCHAR
STARTCHAR char1043
ENCODING 1274
SWIDTH 480 0
DWIDTH 5 0
BBX 5 8 0 -2
BITMAP
78
40
E0
40
40
60
10
10
ENDCHAR
STARTCHAR char1075
ENCODING 1275
SWIDTH 480 0
DWIDTH 5 0
BBX 5 7 0 -2
BITMAP
78
40
E0
40
60
10
20
ENDCHAR
STARTCHAR uni0058
ENCODING 1276
SWIDTH 480 0
DWIDTH 5 0
BBX 5 7 1 -1
BITMAP
90
90
60
90
90
88
10
ENDCHAR
STARTCHAR uni0078
ENCODING 1277
SWIDTH 480 0
DWIDTH 5 0
BBX 5 6 1 -1
BITMAP
90
F0
60
90
88
10
ENDCHAR
STARTCHAR uni0058
ENCODING 1278
SWIDTH 480 0
DWIDTH 5 0
BBX 4 6 1 0
BITMAP
90
90
60
F0
90
90
ENDCHAR
STARTCHAR uni0078
ENCODING 1279
SWIDTH 480 0
DWIDTH 5 0
BBX 4 5 1 0
BITMAP
90
90
60
F0
90
ENDCHAR
STARTCHAR NKO COMMA
ENCODING 2040
SWIDTH 480 0
DWIDTH 5 0
BBX 6 4 0 -1
BITMAP
FC
FC
FC
FC
ENDCHAR
STARTCHAR NKO EXCLAMATION MARK
ENCODING 2041
SWIDTH 480 0
DWIDTH 5 0
BBX 6 4 0 -1
BITMAP
54
A8
54
A8
ENDCHAR
STARTCHAR NKO LAJANYALAN
ENCODING 2042
SWIDTH 480 0
DWIDTH 5 0
BBX 5 9 0 -1
BITMAP
A8
00
A8
00
A8
00
A8
00
A8
ENDCHAR
STARTCHAR char2434
ENCODING 2434
SWIDTH 480 0
DWIDTH 5 0
BBX 5 5 1 0
BITMAP
F8
50
50
50
50
ENDCHAR
STARTCHAR KANNADA LETTER TTHA
ENCODING 3232
SWIDTH 480 0
DWIDTH 5 0
BBX 6 7 0 0
BITMAP
18
04
F8
44
54
44
38
ENDCHAR
STARTCHAR KANNADA LETTER THA
ENCODING 3237
SWIDTH 480 0
DWIDTH 5 0
BBX 6 10 0 -2
BITMAP
08
04
F8
44
54
44
54
28
00
10
ENDCHAR
STARTCHAR char1480
ENCODING 4808
SWIDTH 480 0
DWIDTH 5 0
BBX 5 8 1 -1
BITMAP
F8
F8
F8
F8
F8
F8
F8
F8
ENDCHAR
STARTCHAR char7461
ENCODING 7461
SWIDTH 480 0
DWIDTH 5 0
BBX 5 5 0 0
BITMAP
70
70
70
20
D8
ENDCHAR
STARTCHAR LATIN CAPITAL LETTER A WITH RING BELOW
ENCODING 7680
SWIDTH 480 0
DWIDTH 5 0
BBX 4 9 1 -3
BITMAP
60
90
90
F0
90
90
20
50
20
ENDCHAR
STARTCHAR LATIN SMALL LETTER A WITH RING BELOW
ENCODING 7681
SWIDTH 480 0
DWIDTH 5 0
BBX 4 8 1 -3
BITMAP
70
90
90
B0
50
40
A0
40
ENDCHAR
STARTCHAR LATIN CAPITAL LETTER B WITH DOT ABOVE
ENCODING 7682
SWIDTH 480 0
DWIDTH 5 0
BBX 4 9 1 0
BITMAP
20
00
00
E0
90
E0
90
90
E0
ENDCHAR
STARTCHAR LATIN SMALL LETTER B WITH DOT ABOVE
ENCODING 7683
SWIDTH 480 0
DWIDTH 5 0
BBX 4 8 1 0
BITMAP
20
80
80
E0
90
90
90
E0
ENDCHAR
STARTCHAR LATIN CAPITAL LETTER B WITH DOT BELOW
ENCODING 7684
SWIDTH 480 0
DWIDTH 5 0
BBX 4 8 1 -2
BITMAP
E0
90
E0
90
90
E0
00
20
ENDCHAR
STARTCHAR LATIN SMALL LETTER B WITH DOT BELOW
ENCODING 7685
SWIDTH 480 0
DWIDTH 5 0
BBX 4 9 1 -2
BITMAP
80
80
E0
90
90
90
E0
00
20
ENDCHAR
STARTCHAR LATIN CAPITAL LETTER B WITH LINE BELOW
ENCODING 7686
SWIDTH 480 0
DWIDTH 5 0
BBX 4 8 1 -2
BITMAP
E0
90
E0
90
90
E0
00
70
ENDCHAR
STARTCHAR LATIN SMALL LETTER B WITH LINE BELOW
ENCODING 7687
SWIDTH 480 0
DWIDTH 5 0
BBX 4 9 1 -2
BITMAP
80
80
E0
90
90
90
E0
00
70
ENDCHAR
STARTCHAR LATIN CAPITAL LETTER C WITH CEDILLA AND ACUTE
ENCODING 7688
SWIDTH 480 0
DWIDTH 5 0
BBX 4 11 1 -3
BITMAP
20
40
70
80
80
80
80
70
20
10
20
ENDCHAR
STARTCHAR LATIN SMALL LETTER C WITH CEDILLA AND ACUTE
ENCODING 7689
SWIDTH 480 0
DWIDTH 5 0
BBX 4 11 1 -3
BITMAP
10
20
00
70
80
80
80
70
20
10
20
ENDCHAR
STARTCHAR LATIN CAPITAL LETTER D WITH DOT ABOVE
ENCODING 7690
SWIDTH 480 0
DWIDTH 5 0
BBX 4 9 1 0
BITMAP
40
00
00
E0
90
90
90
90
E0
ENDCHAR
STARTCHAR LATIN SMALL LETTER D WITH DOT ABOVE
ENCODING 7691
SWIDTH 480 0
DWIDTH 5 0
BBX 4 8 1 0
BITMAP
40
10
10
70
90
90
90
70
ENDCHAR
STARTCHAR LATIN CAPITAL LETTER D WITH DOT BELOW
ENCODING 7692
SWIDTH 480 0
DWIDTH 5 0
BBX 4 8 1 -2
BITMAP
E0
90
90
90
90
E0
00
40
ENDCHAR
STARTCHAR LATIN SMALL LETTER D WITH DOT BELOW
ENCODING 7693
SWIDTH 480 0
DWIDTH 5 0
BBX 4 9 1 -2
BITMAP
10
10
70
90
90
90
70
00
40
ENDCHAR
STARTCHAR LATIN CAPITAL LETTER D WITH LINE BELOW
ENCODING 7694
SWIDTH 480 0
DWIDTH 5 0
BBX 4 8 1 -2
BITMAP
E0
90
90
90
90
E0
00
70
ENDCHAR
STARTCHAR LATIN SMALL LETTER D WITH LINE BELOW
ENCODING 7695
SWIDTH 480 0
DWIDTH 5 0
BBX 4 9 1 -2
BITMAP
10
10
70
90
90
90
70
00
E0
ENDCHAR
STARTCHAR LATIN CAPITAL LETTER D WITH CEDILLA
ENCODING 7696
SWIDTH 480 0
DWIDTH 5 0
BBX 4 9 1 -3
BITMAP
E0
90
90
90
90
E0
20
10
20
ENDCHAR
STARTCHAR LATIN SMALL LETTER D WITH CEDILLA
ENCODING 7697
SWIDTH 480 0
DWIDTH 5 0
BBX 4 10 1 -3
BITMAP
10
10
70
90
90
90
70
40
20
40
ENDCHAR
STARTCHAR LATIN CAPITAL LETTER D WITH CIRCUMFLEX BELOW
ENCODING 7698
SWIDTH 480 0
DWIDTH 5 0
BBX 4 8 1 -2
BITMAP
E0
90
90
90
90
E0
20
50
ENDCHAR
STARTCHAR LATIN SMALL LETTER D WITH CIRCUMFLEX BELOW
ENCODING 7699
SWIDTH 480 0
DWIDTH 5 0
BBX 4 9 1 -2
BITMAP
10
10
70
90
90
90
70
40
A0
ENDCHAR
STARTCHAR LATIN CAPITAL LETTER E WITH MACRON AND GRAVE
ENCODING 7700
SWIDTH 480 0
DWIDTH 5 0
BBX 4 9 1 0
BITMAP
40
70
00
F0
80
E0
80
80
F0
ENDCHAR
STARTCHAR LATIN SMALL LETTER E WITH MACRON AND GRAVE
ENCODING 7701
SWIDTH 480 0
DWIDTH 5 0
BBX 4 9 1 0
BITMAP
40
20
70
00
60
90
F0
80
70
ENDCHAR
STARTCHAR LATIN CAPITAL LETTER E WITH MACRON AND ACUTE
ENCODING 7702
SWIDTH 480 0
DWIDTH 5 0
BBX 4 9 1 0
BITMAP
10
70
00
F0
80
E0
80
80
F0
ENDCHAR
STARTCHAR LATIN SMALL LETTER E WITH MACRON AND ACUTE
ENCODING 7703
SWIDTH 480 0
DWIDTH 5 0
BBX 4 9 1 0
BITMAP
10
20
70
00
60
90
F0
80
70
ENDCHAR
STARTCHAR LATIN CAPITAL LETTER E WITH CIRCUMFLEX BELOW
ENCODING 7704
SWIDTH 480 0
DWIDTH 5 0
BBX 4 8 1 -2
BITMAP
F0
80
E0
80
80
F0
20
50
ENDCHAR
STARTCHAR LATIN SMALL LETTER E WITH CIRCUMFLEX BELOW
ENCODING 7705
SWIDTH 480 0
DWIDTH 5 0
BBX 4 7 1 -2
BITMAP
60
90
F0
80
70
20
50
ENDCHAR
STARTCHAR LATIN CAPITAL LETTER E WITH TILDE BELOW
ENCODING 7706
SWIDTH 480 0
DWIDTH 5 0
BBX 5 9 1 -3
BITMAP
F0
80
E0
80
80
F0
00
68
90
ENDCHAR
STARTCHAR LATIN SMALL LETTER E WITH TILDE BELOW
ENCODING 7707
SWIDTH 480 0
DWIDTH 5 0
BBX 5 8 1 -3
BITMAP
60
90
F0
80
70
00
68
90
ENDCHAR
STARTCHAR LATIN CAPITAL LETTER E WITH CEDILLA AND BREVE
ENCODING 7708
SWIDTH 480 0
DWIDTH 5 0
BBX 5 12 1 -3
BITMAP
88
70
00
F0
80
E0
80
80
F0
20
10
20
ENDCHAR
STARTCHAR LATIN SMALL LETTER E WITH CEDILLA AND BREVE
ENCODING 7709
SWIDTH 480 0
DWIDTH 5 0
BBX 5 11 1 -3
BITMAP
88
70
00
60
90
F0
80
70
20
10
20
ENDCHAR
STARTCHAR LATIN CAPITAL LETTER F WITH DOT ABOVE
ENCODING 7710
SWIDTH 480 0
DWIDTH 5 0
BBX 4 9 1 0
BITMAP
20
00
00
F0
80
E0
80
80
80
ENDCHAR
STARTCHAR uni0066
ENCODING 7711
SWIDTH 480 0
DWIDTH 5 0
BBX 3 9 2 0
BITMAP
40
00
60
80
E0
80
80
80
80
ENDCHAR
STARTCHAR LATIN CAPITAL LETTER G WITH MACRON
ENCODING 7712
SWIDTH 480 0
DWIDTH 5 0
BBX 4 9 1 0
BITMAP
70
00
00
70
80
80
B0
90
70
ENDCHAR
STARTCHAR LATIN SMALL LETTER G WITH MACRON
ENCODING 7713
SWIDTH 480 0
DWIDTH 5 0
BBX 4 9 1 -2
BITMAP
E0
00
70
90
90
90
70
10
60
ENDCHAR
STARTCHAR LATIN CAPITAL LETTER H WITH DOT ABOVE
ENCODING 7714
SWIDTH 480 0
DWIDTH 5 0
BBX 4 9 1 0
BITMAP
20
00
00
90
90
F0
90
90
90
ENDCHAR
STARTCHAR LATIN SMALL LETTER H WITH DOT ABOVE
ENCODING 7715
SWIDTH 480 0
DWIDTH 5 0
BBX 4 8 1 0
BITMAP
20
80
80
E0
90
90
90
90
ENDCHAR
STARTCHAR LATIN CAPITAL LETTER H WITH DOT BELOW
ENCODING 7716
SWIDTH 480 0
DWIDTH 5 0
BBX 4 8 1 -2
BITMAP
90
90
F0
90
90
90
00
20
ENDCHAR
STARTCHAR LATIN SMALL LETTER H WITH DOT BELOW
ENCODING 7717
SWIDTH 480 0
DWIDTH 5 0
BBX 4 9 1 -2
BITMAP
80
80
E0
90
90
90
90
00
20
ENDCHAR
STARTCHAR LATIN CAPITAL LETTER H WITH DIAERESIS
ENCODING 7718
SWIDTH 480 0
DWIDTH 5 0
BBX 4 9 1 0
BITMAP
50
00
00
90
90
F0
90
90
90
ENDCHAR
STARTCHAR LATIN SMALL LETTER H WITH DIAERESIS
ENCODING 7719
SWIDTH 480 0
DWIDTH 5 0
BBX 4 9 1 0
BITMAP
50
00
80
80
E0
90
90
90
90
ENDCHAR
STARTCHAR LATIN CAPITAL LETTER H WITH CEDILLA
ENCODING 7720
SWIDTH 480 0
DWIDTH 5 0
BBX 4 8 1 -2
BITMAP
90
90
F0
90
90
90
40
80
ENDCHAR
STARTCHAR LATIN SMALL LETTER H WITH CEDILLA
ENCODING 7721
SWIDTH 480 0
DWIDTH 5 0
BBX 4 9 1 -2
BITMAP
80
80
E0
90
90
90
90
40
80
ENDCHAR
STARTCHAR LATIN CAPITAL LETTER H WITH BREVE BELOW
ENCODING 7722
SWIDTH 480 0
DWIDTH 5 0
BBX 4 9 1 -3
BITMAP
90
90
F0
90
90
90
00
90
60
ENDCHAR
STARTCHAR LATIN SMALL LETTER H WITH BREVE BELOW
ENCODING 7723
SWIDTH 480 0
DWIDTH 5 0
BBX 4 10 1 -3
BITMAP
80
80
E0
90
90
90
90
00
90
60
ENDCHAR
STARTCHAR LATIN CAPITAL LETTER I WITH TILDE BELOW
ENCODING 7724
SWIDTH 480 0
DWIDTH 5 0
BBX 5 10 0 -3
BITMAP
70
20
20
20
20
20
70
00
68
90
ENDCHAR
STARTCHAR LATIN SMALL LETTER I WITH TILDE BELOW
ENCODING 7725
SWIDTH 480 0
DWIDTH 5 0
BBX 5 10 0 -3
BITMAP
20
00
60
20
20
20
20
00
68
90
ENDCHAR
STARTCHAR LATIN CAPITAL LETTER I WITH DIAERESIS AND ACUTE
ENCODING 7726
SWIDTH 480 0
DWIDTH 5 0
BBX 3 9 1 0
BITMAP
20
E0
00
E0
40
40
40
40
E0
ENDCHAR
STARTCHAR LATIN SMALL LETTER I WITH DIAERESIS AND ACUTE
ENCODING 7727
SWIDTH 480 0
DWIDTH 5 0
BBX 3 9 1 0
BITMAP
20
40
A0
00
C0
40
40
40
40
ENDCHAR
STARTCHAR LATIN CAPITAL LETTER K WITH ACUTE
ENCODING 7728
SWIDTH 480 0
DWIDTH 5 0
BBX 4 9 1 0
BITMAP
20
40
00
90
A0
E0
90
90
90
ENDCHAR
STARTCHAR LATIN SMALL LETTER K WITH ACUTE
ENCODING 7729
SWIDTH 480 0
DWIDTH 5 0
BBX 4 9 1 0
BITMAP
10
20
80
80
90
A0
E0
90
90
ENDCHAR
STARTCHAR LATIN CAPITAL LETTER K WITH DOT BELOW
ENCODING 7730
SWIDTH 480 0
DWIDTH 5 0
BBX 4 8 1 -2
BITMAP
90
A0
C0
A0
90
90
00
20
ENDCHAR
STARTCHAR LATIN SMALL LETTER K WITH DOT BELOW
ENCODING 7731
SWIDTH 480 0
DWIDTH 5 0
BBX 4 9 1 -2
BITMAP
80
80
90
A0
E0
90
90
00
20
ENDCHAR
STARTCHAR LATIN CAPITAL LETTER K WITH LINE BELOW
ENCODING 7732
SWIDTH 480 0
DWIDTH 5 0
BBX 4 8 1 -2
BITMAP
90
A0
C0
A0
90
90
00
70
ENDCHAR
STARTCHAR LATIN SMALL LETTER K WITH LINE BELOW
ENCODING 7733
SWIDTH 480 0
DWIDTH 5 0
BBX 4 9 1 -2
BITMAP
80
80
90
A0
E0
90
90
00
70
ENDCHAR
STARTCHAR LATIN CAPITAL LETTER L WITH DOT BELOW
ENCODING 7734
SWIDTH 480 0
DWIDTH 5 0
BBX 4 8 1 -2
BITMAP
80
80
80
80
80
F0
00
20
ENDCHAR
STARTCHAR LATIN SMALL LETTER L WITH DOT BELOW
ENCODING 7735
SWIDTH 480 0
DWIDTH 5 0
BBX 2 9 1 -2
BITMAP
C0
40
40
40
40
40
40
00
40
ENDCHAR
STARTCHAR LATIN CAPITAL LETTER L WITH DOT BELOW AND MACRON
ENCODING 7736
SWIDTH 480 0
DWIDTH 5 0
BBX 4 11 1 -2
BITMAP
70
00
00
80
80
80
80
80
F0
00
20
ENDCHAR
STARTCHAR LATIN SMALL LETTER L WITH DOT BELOW AND MACRON
ENCODING 7737
SWIDTH 480 0
DWIDTH 5 0
BBX 3 11 1 -2
BITMAP
E0
00
C0
40
40
40
40
40
40
00
40
ENDCHAR
STARTCHAR LATIN CAPITAL LETTER L WITH LINE BELOW
ENCODING 7738
SWIDTH 480 0
DWIDTH 5 0
BBX 4 8 1 -2
BITMAP
80
80
80
80
80
F0
00
70
ENDCHAR
STARTCHAR LATIN SMALL LETTER L WITH LINE BELOW
ENCODING 7739
SWIDTH 480 0
DWIDTH 5 0
BBX 3 9 1 -2
BITMAP
C0
40
40
40
40
40
40
00
E0
ENDCHAR
STARTCHAR LATIN CAPITAL LETTER L WITH CIRCUMFLEX BELOW
ENCODING 7740
SWIDTH 480 0
DWIDTH 5 0
BBX 4 9 1 -3
BITMAP
80
80
80
80
80
F0
00
20
50
ENDCHAR
STARTCHAR LATIN SMALL LETTER L WITH CIRCUMFLEX BELOW
ENCODING 7741
SWIDTH 480 0
DWIDTH 5 0
BBX 3 10 1 -3
BITMAP
C0
40
40
40
40
40
40
00
40
A0
ENDCHAR
STARTCHAR LATIN CAPITAL LETTER M WITH ACUTE
ENCODING 7742
SWIDTH 480 0
DWIDTH 5 0
BBX 4 9 1 0
BITMAP
20
40
00
90
F0
B0
90
90
90
ENDCHAR
STARTCHAR LATIN SMALL LETTER M WITH ACUTE
ENCODING 7743
SWIDTH 480 0
DWIDTH 5 0
BBX 4 8 1 0
BITMAP
20
40
00
90
F0
B0
90
90
ENDCHAR
STARTCHAR LATIN CAPITAL LETTER M WITH DOT ABOVE
ENCODING 7744
SWIDTH 480 0
DWIDTH 5 0
BBX 4 9 1 0
BITMAP
20
00
00
90
F0
B0
90
90
90
ENDCHAR
STARTCHAR LATIN SMALL LETTER M WITH DOT ABOVE
ENCODING 7745
SWIDTH 480 0
DWIDTH 5 0
BBX 4 7 1 0
BITMAP
20
00
90
F0
B0
90
90
ENDCHAR
STARTCHAR LATIN CAPITAL LETTER M WITH DOT BELOW
ENCODING 7746
SWIDTH 480 0
DWIDTH 5 0
BBX 4 8 1 -2
BITMAP
90
F0
B0
90
90
90
00
20
ENDCHAR
STARTCHAR LATIN SMALL LETTER M WITH DOT BELOW
ENCODING 7747
SWIDTH 480 0
DWIDTH 5 0
BBX 4 7 1 -2
BITMAP
90
F0
B0
90
90
00
20
ENDCHAR
STARTCHAR LATIN CAPITAL LETTER N WITH DOT ABOVE
ENCODING 7748
SWIDTH 480 0
DWIDTH 5 0
BBX 4 9 1 0
BITMAP
20
00
00
90
D0
D0
B0
B0
90
ENDCHAR
STARTCHAR LATIN SMALL LETTER N WITH DOT ABOVE
ENCODING 7749
SWIDTH 480 0
DWIDTH 5 0
BBX 4 7 1 0
BITMAP
20
00
E0
90
90
90
90
ENDCHAR
STARTCHAR LATIN CAPITAL LETTER N WITH DOT BELOW
ENCODING 7750
SWIDTH 480 0
DWIDTH 5 0
BBX 4 8 1 -2
BITMAP
90
D0
D0
B0
B0
90
00
20
ENDCHAR
STARTCHAR LATIN SMALL LETTER N WITH DOT BELOW
ENCODING 7751
SWIDTH 480 0
DWIDTH 5 0
BBX 4 7 1 -2
BITMAP
E0
90
90
90
90
00
20
ENDCHAR
STARTCHAR LATIN CAPITAL LETTER N WITH LINE BELOW
ENCODING 7752
SWIDTH 480 0
DWIDTH 5 0
BBX 4 8 1 -2
BITMAP
90
D0
D0
B0
B0
90
00
70
ENDCHAR
STARTCHAR LATIN SMALL LETTER N WITH LINE BELOW
ENCODING 7753
SWIDTH 480 0
DWIDTH 5 0
BBX 4 7 1 -2
BITMAP
E0
90
90
90
90
00
70
ENDCHAR
STARTCHAR LATIN CAPITAL LETTER N WITH CIRCUMFLEX BELOW
ENCODING 7754
SWIDTH 480 0
DWIDTH 5 0
BBX 4 9 1 -3
BITMAP
90
D0
D0
B0
B0
90
00
20
50
ENDCHAR
STARTCHAR LATIN SMALL LETTER N WITH CIRCUMFLEX BELOW
ENCODING 7755
SWIDTH 480 0
DWIDTH 5 0
BBX 4 8 1 -3
BITMAP
E0
90
90
90
90
00
20
50
ENDCHAR
STARTCHAR LATIN CAPITAL LETTER O WITH TILDE AND ACUTE
ENCODING 7756
SWIDTH 480 0
DWIDTH 5 0
BBX 5 9 0 0
BITMAP
10
68
90
30
48
48
48
48
30
ENDCHAR
STARTCHAR LATIN SMALL LETTER O WITH TILDE AND ACUTE
ENCODING 7757
SWIDTH 480 0
DWIDTH 5 0
BBX 5 9 0 0
BITMAP
10
20
68
90
30
48
48
48
30
ENDCHAR
STARTCHAR LATIN CAPITAL LETTER O WITH TILDE AND DIAERESIS
ENCODING 7758
SWIDTH 480 0
DWIDTH 5 0
BBX 5 9 0 0
BITMAP
50
68
90
30
48
48
48
48
30
ENDCHAR
STARTCHAR LATIN SMALL LETTER O WITH TILDE AND DIAERESIS
ENCODING 7759
SWIDTH 480 0
DWIDTH 5 0
BBX 5 9 0 0
BITMAP
50
00
68
90
30
48
48
48
30
ENDCHAR
STARTCHAR LATIN CAPITAL LETTER O WITH MACRON AND GRAVE
ENCODING 7760
SWIDTH 480 0
DWIDTH 5 0
BBX 4 9 1 0
BITMAP
80
E0
00
60
90
90
90
90
60
ENDCHAR
STARTCHAR LATIN SMALL LETTER O WITH MACRON AND GRAVE
ENCODING 7761
SWIDTH 480 0
DWIDTH 5 0
BBX 4 9 1 0
BITMAP
80
40
E0
00
60
90
90
90
60
ENDCHAR
STARTCHAR LATIN CAPITAL LETTER O WITH MACRON AND ACUTE
ENCODING 7762
SWIDTH 480 0
DWIDTH 5 0
BBX 4 9 1 0
BITMAP
20
E0
00
60
90
90
90
90
60
ENDCHAR
STARTCHAR LATIN SMALL LETTER O WITH MACRON AND ACUTE
ENCODING 7763
SWIDTH 480 0
DWIDTH 5 0
BBX 4 9 1 0
BITMAP
20
40
E0
00
60
90
90
90
60
ENDCHAR
STARTCHAR LATIN CAPITAL LETTER P WITH ACUTE
ENCODING 7764
SWIDTH 480 0
DWIDTH 5 0
BBX 4 9 1 0
BITMAP
10
20
00
E0
90
90
E0
80
80
ENDCHAR
STARTCHAR LATIN SMALL LETTER P WITH ACUTE
ENCODING 7765
SWIDTH 480 0
DWIDTH 5 0
BBX 4 10 1 -2
BITMAP
10
20
00
E0
90
90
90
E0
80
80
ENDCHAR
STARTCHAR LATIN CAPITAL LETTER P WITH DOT ABOVE
ENCODING 7766
SWIDTH 480 0
DWIDTH 5 0
BBX 4 9 1 0
BITMAP
20
00
00
E0
90
90
E0
80
80
ENDCHAR
STARTCHAR LATIN SMALL LETTER P WITH DOT ABOVE
ENCODING 7767
SWIDTH 480 0
DWIDTH 5 0
BBX 4 9 1 -2
BITMAP
20
00
E0
90
90
90
E0
80
80
ENDCHAR
STARTCHAR LATIN CAPITAL LETTER R WITH DOT ABOVE
ENCODING 7768
SWIDTH 480 0
DWIDTH 5 0
BBX 4 9 1 0
BITMAP
20
00
00
E0
90
90
E0
90
90
ENDCHAR
STARTCHAR LATIN SMALL LETTER R WITH DOT ABOVE
ENCODING 7769
SWIDTH 480 0
DWIDTH 5 0
BBX 4 7 1 0
BITMAP
20
00
B0
C0
80
80
80
ENDCHAR
STARTCHAR LATIN CAPITAL LETTER R WITH DOT BELOW
ENCODING 7770
SWIDTH 480 0
DWIDTH 5 0
BBX 4 8 1 -2
BITMAP
E0
90
90
E0
90
90
00
20
ENDCHAR
STARTCHAR LATIN SMALL LETTER R WITH DOT BELOW
ENCODING 7771
SWIDTH 480 0
DWIDTH 5 0
BBX 4 7 1 -2
BITMAP
B0
C0
80
80
80
00
20
ENDCHAR
STARTCHAR LATIN CAPITAL LETTER R WITH DOT BELOW AND MACRON
ENCODING 7772
SWIDTH 480 0
DWIDTH 5 0
BBX 4 10 1 -2
BITMAP
70
00
E0
90
90
E0
90
90
00
20
ENDCHAR
STARTCHAR LATIN SMALL LETTER R WITH DOT BELOW AND MACRON
ENCODING 7773
SWIDTH 480 0
DWIDTH 5 0
BBX 4 9 1 -2
BITMAP
70
00
B0
C0
80
80
80
00
20
ENDCHAR
STARTCHAR LATIN CAPITAL LETTER R WITH LINE BELOW
ENCODING 7774
SWIDTH 480 0
DWIDTH 5 0
BBX 4 8 1 -2
BITMAP
E0
90
90
E0
90
90
00
70
ENDCHAR
STARTCHAR LATIN SMALL LETTER R WITH LINE BELOW
ENCODING 7775
SWIDTH 480 0
DWIDTH 5 0
BBX 4 7 1 -2
BITMAP
B0
C0
80
80
80
00
70
ENDCHAR
STARTCHAR LATIN CAPITAL LETTER S WITH DOT ABOVE
ENCODING 7776
SWIDTH 480 0
DWIDTH 5 0
BBX 4 9 1 0
BITMAP
40
00
00
70
80
60
10
10
E0
ENDCHAR
STARTCHAR LATIN SMALL LETTER S WITH DOT ABOVE
ENCODING 7777
SWIDTH 480 0
DWIDTH 5 0
BBX 4 7 1 0
BITMAP
40
00
70
80
60
10
E0
ENDCHAR
STARTCHAR LATIN CAPITAL LETTER S WITH DOT BELOW
ENCODING 7778
SWIDTH 480 0
DWIDTH 5 0
BBX 4 8 1 -2
BITMAP
70
80
60
10
10
E0
00
40
ENDCHAR
STARTCHAR LATIN SMALL LETTER S WITH DOT BELOW
ENCODING 7779
SWIDTH 480 0
DWIDTH 5 0
BBX 4 7 1 -2
BITMAP
70
80
60
10
E0
00
40
ENDCHAR
STARTCHAR LATIN CAPITAL LETTER S WITH ACUTE AND DOT ABOVE
ENCODING 7780
SWIDTH 480 0
DWIDTH 5 0
BBX 4 9 1 0
BITMAP
60
40
00
70
80
60
10
10
E0
ENDCHAR
STARTCHAR LATIN SMALL LETTER S WITH ACUTE AND DOT ABOVE
ENCODING 7781
SWIDTH 480 0
DWIDTH 5 0
BBX 4 9 1 0
BITMAP
40
20
40
00
70
80
60
10
E0
ENDCHAR
STARTCHAR LATIN CAPITAL LETTER S WITH CARON AND DOT ABOVE
ENCODING 7782
SWIDTH 480 0
DWIDTH 5 0
BBX 4 9 1 0
BITMAP
E0
40
00
70
80
60
10
10
E0
ENDCHAR
STARTCHAR LATIN SMALL LETTER S WITH CARON AND DOT ABOVE
ENCODING 7783
SWIDTH 480 0
DWIDTH 5 0
BBX 4 9 1 0
BITMAP
40
00
A0
40
70
80
60
10
E0
ENDCHAR
STARTCHAR LATIN CAPITAL LETTER S WITH DOT BELOW AND DOT ABOVE
ENCODING 7784
SWIDTH 480 0
DWIDTH 5 0
BBX 4 11 1 -2
BITMAP
40
00
00
70
80
60
10
10
E0
00
40
ENDCHAR
STARTCHAR LATIN SMALL LETTER S WITH DOT BELOW AND DOT ABOVE
ENCODING 7785
SWIDTH 480 0
DWIDTH 5 0
BBX 4 9 1 -2
BITMAP
40
00
70
80
60
10
E0
00
40
ENDCHAR
STARTCHAR LATIN CAPITAL LETTER T WITH DOT ABOVE
ENCODING 7786
SWIDTH 480 0
DWIDTH 5 0
BBX 5 9 0 0
BITMAP
20
00
00
F8
20
20
20
20
20
ENDCHAR
STARTCHAR uni0074
ENCODING 7787
SWIDTH 480 0
DWIDTH 5 0
BBX 3 8 1 0
BITMAP
40
00
40
E0
40
40
40
20
ENDCHAR
STARTCHAR LATIN CAPITAL LETTER T WITH DOT BELOW
ENCODING 7788
SWIDTH 480 0
DWIDTH 5 0
BBX 5 8 0 -2
BITMAP
F8
20
20
20
20
20
00
20
ENDCHAR
STARTCHAR LATIN SMALL LETTER T WITH DOT BELOW
ENCODING 7789
SWIDTH 480 0
DWIDTH 5 0
BBX 3 8 1 -2
BITMAP
40
E0
40
40
40
20
00
40
ENDCHAR
STARTCHAR LATIN CAPITAL LETTER T WITH LINE BELOW
ENCODING 7790
SWIDTH 480 0
DWIDTH 5 0
BBX 5 8 0 -2
BITMAP
F8
20
20
20
20
20
00
70
ENDCHAR
STARTCHAR LATIN SMALL LETTER T WITH LINE BELOW
ENCODING 7791
SWIDTH 480 0
DWIDTH 5 0
BBX 3 8 1 -2
BITMAP
40
E0
40
40
40
20
00
E0
ENDCHAR
STARTCHAR LATIN CAPITAL LETTER T WITH CIRCUMFLEX BELOW
ENCODING 7792
SWIDTH 480 0
DWIDTH 5 0
BBX 5 9 0 -3
BITMAP
F8
20
20
20
20
20
00
20
50
ENDCHAR
STARTCHAR LATIN SMALL LETTER T WITH CIRCUMFLEX BELOW
ENCODING 7793
SWIDTH 480 0
DWIDTH 5 0
BBX 3 9 1 -3
BITMAP
40
E0
40
40
40
20
00
40
A0
ENDCHAR
STARTCHAR LATIN CAPITAL LETTER U WITH DIAERESIS BELOW
ENCODING 7794
SWIDTH 480 0
DWIDTH 5 0
BBX 4 8 1 -2
BITMAP
90
90
90
90
90
70
00
50
ENDCHAR
STARTCHAR LATIN SMALL LETTER U WITH DIAERESIS BELOW
ENCODING 7795
SWIDTH 480 0
DWIDTH 5 0
BBX 4 7 1 -2
BITMAP
90
90
90
90
70
00
50
ENDCHAR
STARTCHAR LATIN CAPITAL LETTER U WITH TILDE BELOW
ENCODING 7796
SWIDTH 480 0
DWIDTH 5 0
BBX 4 9 1 -3
BITMAP
90
90
90
90
90
70
00
50
A0
ENDCHAR
STARTCHAR LATIN SMALL LETTER U WITH TILDE BELOW
ENCODING 7797
SWIDTH 480 0
DWIDTH 5 0
BBX 4 8 1 -3
BITMAP
90
90
90
90
70
00
50
A0
ENDCHAR
STARTCHAR LATIN CAPITAL LETTER U WITH CIRCUMFLEX BELOW
ENCODING 7798
SWIDTH 480 0
DWIDTH 5 0
BBX 4 9 1 -3
BITMAP
90
90
90
90
90
70
00
40
A0
ENDCHAR
STARTCHAR LATIN SMALL LETTER U WITH CIRCUMFLEX BELOW
ENCODING 7799
SWIDTH 480 0
DWIDTH 5 0
BBX 4 8 1 -3
BITMAP
90
90
90
90
60
00
40
A0
ENDCHAR
STARTCHAR LATIN CAPITAL LETTER U WITH TILDE AND ACUTE
ENCODING 7800
SWIDTH 480 0
DWIDTH 5 0
BBX 5 9 0 0
BITMAP
10
68
90
48
48
48
48
48
38
ENDCHAR
STARTCHAR LATIN SMALL LETTER U WITH TILDE AND ACUTE
ENCODING 7801
SWIDTH 480 0
DWIDTH 5 0
BBX 5 9 0 0
BITMAP
10
68
90
00
48
48
48
48
38
ENDCHAR
STARTCHAR LATIN CAPITAL LETTER U WITH MACRON AND DIAERESIS
ENCODING 7802
SWIDTH 480 0
DWIDTH 5 0
BBX 4 9 1 0
BITMAP
A0
E0
00
90
90
90
90
90
70
ENDCHAR
STARTCHAR LATIN SMALL LETTER U WITH MACRON AND DIAERESIS
ENCODING 7803
SWIDTH 480 0
DWIDTH 5 0
BBX 4 9 1 0
BITMAP
A0
00
E0
00
90
90
90
90
70
ENDCHAR
STARTCHAR uni0056
ENCODING 7804
SWIDTH 480 0
DWIDTH 5 0
BBX 4 9 1 0
BITMAP
50
A0
00
90
90
90
60
60
60
ENDCHAR
STARTCHAR uni0076
ENCODING 7805
SWIDTH 480 0
DWIDTH 5 0
BBX 4 9 1 0
BITMAP
50
A0
00
00
90
90
90
60
60
ENDCHAR
STARTCHAR uni0056
ENCODING 7806
SWIDTH 480 0
DWIDTH 5 0
BBX 4 8 1 -2
BITMAP
90
90
90
60
60
60
00
40
ENDCHAR
STARTCHAR uni0076
ENCODING 7807
SWIDTH 480 0
DWIDTH 5 0
BBX 4 7 1 -2
BITMAP
90
90
90
60
60
00
40
ENDCHAR
STARTCHAR uni0057
ENCODING 7808
SWIDTH 480 0
DWIDTH 5 0
BBX 4 8 1 0
BITMAP
40
20
90
90
90
90
F0
90
ENDCHAR
STARTCHAR uni0077
ENCODING 7809
SWIDTH 480 0
DWIDTH 5 0
BBX 4 8 1 0
BITMAP
40
20
00
90
90
90
F0
90
ENDCHAR
STARTCHAR uni0057
ENCODING 7810
SWIDTH 480 0
DWIDTH 5 0
BBX 4 8 1 0
BITMAP
20
40
90
90
90
90
F0
90
ENDCHAR
STARTCHAR uni0077
ENCODING 7811
SWIDTH 480 0
DWIDTH 5 0
BBX 4 8 1 0
BITMAP
20
40
00
90
90
90
F0
90
ENDCHAR
STARTCHAR uni0057
ENCODING 7812
SWIDTH 480 0
DWIDTH 5 0
BBX 4 8 1 0
BITMAP
50
00
90
90
90
90
F0
90
ENDCHAR
STARTCHAR uni0077
ENCODING 7813
SWIDTH 480 0
DWIDTH 5 0
BBX 4 7 1 0
BITMAP
50
00
90
90
90
F0
90
ENDCHAR
STARTCHAR uni0057
ENCODING 7814
SWIDTH 480 0
DWIDTH 5 0
BBX 4 8 1 0
BITMAP
20
00
90
90
90
90
F0
90
ENDCHAR
STARTCHAR uni0077
ENCODING 7815
SWIDTH 480 0
DWIDTH 5 0
BBX 4 7 1 0
BITMAP
20
00
90
90
90
F0
90
ENDCHAR
STARTCHAR uni0057
ENCODING 7816
SWIDTH 480 0
DWIDTH 5 0
BBX 4 8 1 -2
BITMAP
90
90
90
90
F0
90
00
20
ENDCHAR
STARTCHAR uni0077
ENCODING 7817
SWIDTH 480 0
DWIDTH 5 0
BBX 4 7 1 -2
BITMAP
90
90
90
F0
90
00
20
ENDCHAR
STARTCHAR uni0058
ENCODING 7818
SWIDTH 480 0
DWIDTH 5 0
BBX 4 8 1 0
BITMAP
20
00
90
90
60
90
90
90
ENDCHAR
STARTCHAR uni0078
ENCODING 7819
SWIDTH 480 0
DWIDTH 5 0
BBX 4 7 1 0
BITMAP
20
00
90
90
60
90
90
ENDCHAR
STARTCHAR uni0058
ENCODING 7820
SWIDTH 480 0
DWIDTH 5 0
BBX 4 8 1 0
BITMAP
50
00
90
90
60
90
90
90
ENDCHAR
STARTCHAR uni0078
ENCODING 7821
SWIDTH 480 0
DWIDTH 5 0
BBX 4 7 1 0
BITMAP
50
00
90
90
60
90
90
ENDCHAR
STARTCHAR uni0059
ENCODING 7822
SWIDTH 480 0
DWIDTH 5 0
BBX 5 7 0 0
BITMAP
20
88
50
20
20
20
20
ENDCHAR
STARTCHAR uni0079
ENCODING 7823
SWIDTH 480 0
DWIDTH 5 0
BBX 4 9 1 -2
BITMAP
20
00
90
90
90
90
70
10
60
ENDCHAR
STARTCHAR uni005A
ENCODING 7824
SWIDTH 480 0
DWIDTH 5 0
BBX 4 9 1 0
BITMAP
20
50
00
F0
10
20
40
80
F0
ENDCHAR
STARTCHAR uni007A
ENCODING 7825
SWIDTH 480 0
DWIDTH 5 0
BBX 4 8 1 0
BITMAP
20
50
00
F0
20
40
80
F0
ENDCHAR
STARTCHAR uni005A
ENCODING 7826
SWIDTH 480 0
DWIDTH 5 0
BBX 4 8 1 -2
BITMAP
F0
10
20
40
80
F0
00
40
ENDCHAR
STARTCHAR uni007A
ENCODING 7827
SWIDTH 480 0
DWIDTH 5 0
BBX 4 7 1 -2
BITMAP
F0
20
40
80
F0
00
40
ENDCHAR
STARTCHAR uni005A
ENCODING 7828
SWIDTH 480 0
DWIDTH 5 0
BBX 4 8 1 -2
BITMAP
F0
10
20
40
80
F0
00
60
ENDCHAR
STARTCHAR uni007A
ENCODING 7829
SWIDTH 480 0
DWIDTH 5 0
BBX 4 7 1 -2
BITMAP
F0
20
40
80
F0
00
60
ENDCHAR
STARTCHAR uni0068
ENCODING 7830
SWIDTH 480 0
DWIDTH 5 0
BBX 4 9 1 -2
BITMAP
80
80
E0
90
90
90
90
00
60
ENDCHAR
STARTCHAR uni0074
ENCODING 7831
SWIDTH 480 0
DWIDTH 5 0
BBX 3 8 1 0
BITMAP
A0
00
40
E0
40
40
40
20
ENDCHAR
STARTCHAR uni0077
ENCODING 7832
SWIDTH 480 0
DWIDTH 5 0
BBX 4 8 1 0
BITMAP
20
50
20
90
90
90
F0
90
ENDCHAR
STARTCHAR uni0079
ENCODING 7833
SWIDTH 480 0
DWIDTH 5 0
BBX 4 10 1 -2
BITMAP
20
50
20
90
90
90
90
70
10
60
ENDCHAR
STARTCHAR uni0061
ENCODING 7834
SWIDTH 480 0
DWIDTH 5 0
BBX 4 9 1 0
BITMAP
20
10
20
00
70
90
90
B0
50
ENDCHAR
STARTCHAR LATIN SMALL LETTER LONG S WITH DOT ABOVE
ENCODING 7835
SWIDTH 480 0
DWIDTH 5 0
BBX 4 9 1 0
BITMAP
20
00
30
40
C0
40
40
40
40
ENDCHAR
STARTCHAR LATIN SMALL LETTER LONG S WITH DIAGONAL STROKE
ENCODING 7836
SWIDTH 480 0
DWIDTH 5 0
BBX 4 7 1 0
BITMAP
30
40
C0
60
C0
40
40
ENDCHAR
STARTCHAR LATIN SMALL LETTER LONG S WITH HIGH STROKE
ENCODING 7837
SWIDTH 480 0
DWIDTH 5 0
BBX 4 7 1 0
BITMAP
30
E0
40
C0
40
40
40
ENDCHAR
STARTCHAR LATIN CAPITAL LETTER SHARP S
ENCODING 7838
SWIDTH 480 0
DWIDTH 5 0
BBX 4 8 1 -1
BITMAP
60
90
A0
90
90
90
A0
80
ENDCHAR
STARTCHAR LATIN SMALL LETTER DELTA
ENCODING 7839
SWIDTH 480 0
DWIDTH 5 0
BBX 4 7 1 0
BITMAP
70
80
60
90
90
90
60
ENDCHAR
STARTCHAR LATIN CAPITAL LETTER A WITH RING BELOW
ENCODING 7840
SWIDTH 480 0
DWIDTH 5 0
BBX 4 8 1 -2
BITMAP
60
90
90
F0
90
90
00
20
ENDCHAR
STARTCHAR LATIN SMALL LETTER A WITH RING BELOW
ENCODING 7841
SWIDTH 480 0
DWIDTH 5 0
BBX 4 7 1 -2
BITMAP
70
90
90
B0
50
00
20
ENDCHAR
STARTCHAR LATIN CAPITAL LETTER A WITH RING BELOW
ENCODING 7842
SWIDTH 480 0
DWIDTH 5 0
BBX 4 8 1 0
BITMAP
40
A0
60
90
90
F0
90
90
ENDCHAR
STARTCHAR LATIN SMALL LETTER A WITH RING BELOW
ENCODING 7843
SWIDTH 480 0
DWIDTH 5 0
BBX 4 8 1 0
BITMAP
40
20
40
70
90
90
B0
50
ENDCHAR
STARTCHAR LATIN CAPITAL LETTER A WITH RING BELOW
ENCODING 7844
SWIDTH 480 0
DWIDTH 5 0
BBX 4 8 1 0
BITMAP
50
A0
60
90
90
F0
90
90
ENDCHAR
STARTCHAR LATIN SMALL LETTER A WITH RING BELOW
ENCODING 7845
SWIDTH 480 0
DWIDTH 5 0
BBX 4 8 1 0
BITMAP
50
A0
00
70
90
90
B0
50
ENDCHAR
STARTCHAR LATIN CAPITAL LETTER A WITH RING BELOW
ENCODING 7846
SWIDTH 480 0
DWIDTH 5 0
BBX 4 8 1 0
BITMAP
A0
50
60
90
90
F0
90
90
ENDCHAR
STARTCHAR LATIN SMALL LETTER A WITH RING BELOW
ENCODING 7847
SWIDTH 480 0
DWIDTH 5 0
BBX 4 8 1 0
BITMAP
A0
50
00
70
90
90
B0
50
ENDCHAR
STARTCHAR LATIN CAPITAL LETTER A WITH RING BELOW
ENCODING 7848
SWIDTH 480 0
DWIDTH 5 0
BBX 4 8 1 0
BITMAP
30
C0
60
90
90
F0
90
90
ENDCHAR
STARTCHAR LATIN SMALL LETTER A WITH RING BELOW
ENCODING 7849
SWIDTH 480 0
DWIDTH 5 0
BBX 4 8 1 0
BITMAP
30
C0
00
70
90
90
B0
50
ENDCHAR
STARTCHAR LATIN CAPITAL LETTER A WITH RING BELOW
ENCODING 7850
SWIDTH 480 0
DWIDTH 5 0
BBX 4 8 1 0
BITMAP
F0
60
90
60
90
F0
90
90
ENDCHAR
STARTCHAR LATIN SMALL LETTER A WITH RING BELOW
ENCODING 7851
SWIDTH 480 0
DWIDTH 5 0
BBX 4 8 1 0
BITMAP
F0
60
90
70
90
90
B0
50
ENDCHAR
STARTCHAR LATIN CAPITAL LETTER A WITH RING BELOW
ENCODING 7852
SWIDTH 480 0
DWIDTH 5 0
BBX 4 10 1 -2
BITMAP
60
90
60
90
90
F0
90
90
00
20
ENDCHAR
STARTCHAR LATIN SMALL LETTER A WITH RING BELOW
ENCODING 7853
SWIDTH 480 0
DWIDTH 5 0
BBX 4 10 1 -2
BITMAP
60
90
00
70
90
90
B0
50
00
20
ENDCHAR
STARTCHAR LATIN CAPITAL LETTER A WITH RING BELOW
ENCODING 7854
SWIDTH 480 0
DWIDTH 5 0
BBX 4 8 1 0
BITMAP
B0
60
60
90
90
F0
90
90
ENDCHAR
STARTCHAR LATIN SMALL LETTER A WITH RING BELOW
ENCODING 7855
SWIDTH 480 0
DWIDTH 5 0
BBX 4 8 1 0
BITMAP
B0
60
00
70
90
90
B0
50
ENDCHAR
STARTCHAR LATIN CAPITAL LETTER A WITH RING BELOW
ENCODING 7856
SWIDTH 480 0
DWIDTH 5 0
BBX 4 8 1 0
BITMAP
D0
60
60
90
90
F0
90
90
ENDCHAR
STARTCHAR LATIN SMALL LETTER A WITH RING BELOW
ENCODING 7857
SWIDTH 480 0
DWIDTH 5 0
BBX 4 8 1 0
BITMAP
D0
60
00
70
90
90
B0
50
ENDCHAR
STARTCHAR LATIN CAPITAL LETTER A WITH RING BELOW
ENCODING 7858
SWIDTH 480 0
DWIDTH 5 0
BBX 4 8 1 0
BITMAP
20
F0
60
90
90
F0
90
90
ENDCHAR
STARTCHAR LATIN SMALL LETTER A WITH RING BELOW
ENCODING 7859
SWIDTH 480 0
DWIDTH 5 0
BBX 4 8 1 0
BITMAP
20
F0
00
70
90
90
B0
50
ENDCHAR
STARTCHAR LATIN CAPITAL LETTER A WITH RING BELOW
ENCODING 7860
SWIDTH 480 0
DWIDTH 5 0
BBX 4 8 1 0
BITMAP
F0
90
60
60
90
F0
90
90
ENDCHAR
STARTCHAR LATIN SMALL LETTER A WITH RING BELOW
ENCODING 7861
SWIDTH 480 0
DWIDTH 5 0
BBX 4 8 1 0
BITMAP
F0
90
60
70
90
90
B0
50
ENDCHAR
STARTCHAR LATIN CAPITAL LETTER A WITH RING BELOW
ENCODING 7862
SWIDTH 480 0
DWIDTH 5 0
BBX 4 10 1 -2
BITMAP
90
60
60
90
90
F0
90
90
00
20
ENDCHAR
STARTCHAR LATIN SMALL LETTER A WITH RING BELOW
ENCODING 7863
SWIDTH 480 0
DWIDTH 5 0
BBX 4 10 1 -2
BITMAP
90
60
00
70
90
90
B0
50
00
20
ENDCHAR
STARTCHAR LATIN CAPITAL LETTER E WITH MACRON AND ACUTE
ENCODING 7864
SWIDTH 480 0
DWIDTH 5 0
BBX 4 8 1 -2
BITMAP
F0
80
E0
80
80
F0
00
40
ENDCHAR
STARTCHAR LATIN SMALL LETTER E WITH MACRON AND ACUTE
ENCODING 7865
SWIDTH 480 0
DWIDTH 5 0
BBX 4 7 1 -2
BITMAP
60
90
F0
80
70
00
40
ENDCHAR
STARTCHAR LATIN CAPITAL LETTER E WITH MACRON AND ACUTE
ENCODING 7866
SWIDTH 480 0
DWIDTH 5 0
BBX 4 8 1 0
BITMAP
60
20
F0
80
E0
80
80
F0
ENDCHAR
STARTCHAR LATIN SMALL LETTER E WITH MACRON AND ACUTE
ENCODING 7867
SWIDTH 480 0
DWIDTH 5 0
BBX 4 8 1 0
BITMAP
60
20
00
60
90
F0
80
70
ENDCHAR
STARTCHAR LATIN CAPITAL LETTER E WITH MACRON AND ACUTE
ENCODING 7868
SWIDTH 480 0
DWIDTH 5 0
BBX 4 8 1 0
BITMAP
50
B0
F0
80
E0
80
80
F0
ENDCHAR
STARTCHAR LATIN SMALL LETTER E WITH MACRON AND ACUTE
ENCODING 7869
SWIDTH 480 0
DWIDTH 5 0
BBX 4 8 1 0
BITMAP
50
B0
00
60
90
F0
80
70
ENDCHAR
STARTCHAR LATIN CAPITAL LETTER E WITH MACRON AND ACUTE
ENCODING 7870
SWIDTH 480 0
DWIDTH 5 0
BBX 4 8 1 0
BITMAP
A0
D0
F0
80
E0
80
80
F0
ENDCHAR
STARTCHAR LATIN SMALL LETTER E WITH MACRON AND ACUTE
ENCODING 7871
SWIDTH 480 0
DWIDTH 5 0
BBX 4 8 1 0
BITMAP
A0
D0
00
60
90
F0
80
70
ENDCHAR
STARTCHAR LATIN CAPITAL LETTER E WITH MACRON AND ACUTE
ENCODING 7872
SWIDTH 480 0
DWIDTH 5 0
BBX 4 8 1 0
BITMAP
A0
50
F0
80
E0
80
80
F0
ENDCHAR
STARTCHAR LATIN SMALL LETTER E WITH MACRON AND ACUTE
ENCODING 7873
SWIDTH 480 0
DWIDTH 5 0
BBX 4 8 1 0
BITMAP
A0
50
00
60
90
F0
80
70
ENDCHAR
STARTCHAR LATIN CAPITAL LETTER E WITH MACRON AND ACUTE
ENCODING 7874
SWIDTH 480 0
DWIDTH 5 0
BBX 4 8 1 0
BITMAP
50
A0
F0
80
E0
80
80
F0
ENDCHAR
STARTCHAR LATIN SMALL LETTER E WITH MACRON AND ACUTE
ENCODING 7875
SWIDTH 480 0
DWIDTH 5 0
BBX 4 8 1 0
BITMAP
50
A0
00
60
90
F0
80
70
ENDCHAR
STARTCHAR LATIN CAPITAL LETTER E WITH MACRON AND ACUTE
ENCODING 7876
SWIDTH 480 0
DWIDTH 5 0
BBX 4 10 1 -2
BITMAP
60
90
F0
80
E0
80
80
F0
00
40
ENDCHAR
STARTCHAR LATIN SMALL LETTER E WITH MACRON AND ACUTE
ENCODING 7877
SWIDTH 480 0
DWIDTH 5 0
BBX 4 10 1 -2
BITMAP
90
60
90
60
90
F0
80
70
00
40
ENDCHAR
STARTCHAR LATIN CAPITAL LETTER E WITH MACRON AND ACUTE
ENCODING 7878
SWIDTH 480 0
DWIDTH 5 0
BBX 4 10 1 -2
BITMAP
60
90
F0
80
E0
80
80
F0
00
40
ENDCHAR
STARTCHAR LATIN SMALL LETTER E WITH MACRON AND ACUTE
ENCODING 7879
SWIDTH 480 0
DWIDTH 5 0
BBX 4 10 1 -2
BITMAP
60
90
00
60
90
F0
80
70
00
40
ENDCHAR
STARTCHAR LATIN CAPITAL LETTER I WITH TILDE BELOW
ENCODING 7880
SWIDTH 480 0
DWIDTH 5 0
BBX 3 8 1 0
BITMAP
C0
40
E0
40
40
40
40
E0
ENDCHAR
STARTCHAR LATIN SMALL LETTER I WITH TILDE BELOW
ENCODING 7881
SWIDTH 480 0
DWIDTH 5 0
BBX 2 8 1 0
BITMAP
C0
40
00
C0
40
40
40
40
ENDCHAR
STARTCHAR LATIN CAPITAL LETTER I WITH TILDE BELOW
ENCODING 7882
SWIDTH 480 0
DWIDTH 5 0
BBX 3 9 1 -2
BITMAP
E0
40
40
40
40
40
E0
00
40
ENDCHAR
STARTCHAR LATIN SMALL LETTER I WITH TILDE BELOW
ENCODING 7883
SWIDTH 480 0
DWIDTH 5 0
BBX 2 9 1 -2
BITMAP
40
00
C0
40
40
40
40
00
40
ENDCHAR
STARTCHAR LATIN CAPITAL LETTER O WITH TILDE AND ACUTE
ENCODING 7884
SWIDTH 480 0
DWIDTH 5 0
BBX 4 8 1 -2
BITMAP
60
90
90
90
90
60
00
40
ENDCHAR
STARTCHAR LATIN SMALL LETTER O WITH TILDE AND ACUTE
ENCODING 7885
SWIDTH 480 0
DWIDTH 5 0
BBX 4 7 1 -2
BITMAP
60
90
90
90
60
00
40
ENDCHAR
STARTCHAR LATIN CAPITAL LETTER O WITH TILDE AND ACUTE
ENCODING 7886
SWIDTH 480 0
DWIDTH 5 0
BBX 4 8 1 0
BITMAP
60
20
60
90
90
90
90
60
ENDCHAR
STARTCHAR LATIN SMALL LETTER O WITH TILDE AND ACUTE
ENCODING 7887
SWIDTH 480 0
DWIDTH 5 0
BBX 4 7 1 0
BITMAP
60
20
60
90
90
90
60
ENDCHAR
STARTCHAR LATIN CAPITAL LETTER O WITH TILDE AND ACUTE
ENCODING 7888
SWIDTH 480 0
DWIDTH 5 0
BBX 4 8 1 0
BITMAP
30
C0
60
90
90
90
90
60
ENDCHAR
STARTCHAR LATIN SMALL LETTER O WITH TILDE AND ACUTE
ENCODING 7889
SWIDTH 480 0
DWIDTH 5 0
BBX 4 7 1 0
BITMAP
30
C0
60
90
90
90
60
ENDCHAR
STARTCHAR LATIN CAPITAL LETTER O WITH TILDE AND ACUTE
ENCODING 7890
SWIDTH 480 0
DWIDTH 5 0
BBX 4 8 1 0
BITMAP
C0
30
60
90
90
90
90
60
ENDCHAR
STARTCHAR LATIN SMALL LETTER O WITH TILDE AND ACUTE
ENCODING 7891
SWIDTH 480 0
DWIDTH 5 0
BBX 4 8 1 0
BITMAP
C0
30
00
60
90
90
90
60
ENDCHAR
STARTCHAR LATIN CAPITAL LETTER O WITH TILDE AND ACUTE
ENCODING 7892
SWIDTH 480 0
DWIDTH 5 0
BBX 4 8 1 0
BITMAP
20
D0
60
90
90
90
90
60
ENDCHAR
STARTCHAR LATIN SMALL LETTER O WITH TILDE AND ACUTE
ENCODING 7893
SWIDTH 480 0
DWIDTH 5 0
BBX 4 8 1 0
BITMAP
20
D0
00
60
90
90
90
60
ENDCHAR
STARTCHAR LATIN CAPITAL LETTER O WITH TILDE AND ACUTE
ENCODING 7894
SWIDTH 480 0
DWIDTH 5 0
BBX 4 8 1 0
BITMAP
F0
60
60
90
90
90
90
60
ENDCHAR
STARTCHAR LATIN SMALL LETTER O WITH TILDE AND ACUTE
ENCODING 7895
SWIDTH 480 0
DWIDTH 5 0
BBX 4 8 1 0
BITMAP
F0
60
90
60
90
90
90
60
ENDCHAR
STARTCHAR LATIN CAPITAL LETTER O WITH TILDE AND ACUTE
ENCODING 7896
SWIDTH 480 0
DWIDTH 5 0
BBX 4 10 1 -2
BITMAP
60
90
60
90
90
90
90
60
00
40
ENDCHAR
STARTCHAR LATIN SMALL LETTER O WITH TILDE AND ACUTE
ENCODING 7897
SWIDTH 480 0
DWIDTH 5 0
BBX 4 10 1 -2
BITMAP
60
90
00
60
90
90
90
60
00
40
ENDCHAR
STARTCHAR LATIN CAPITAL LETTER O WITH TILDE AND ACUTE
ENCODING 7898
SWIDTH 480 0
DWIDTH 5 0
BBX 5 8 1 0
BITMAP
20
40
68
98
90
90
90
60
ENDCHAR
STARTCHAR LATIN SMALL LETTER O WITH TILDE AND ACUTE
ENCODING 7899
SWIDTH 480 0
DWIDTH 5 0
BBX 5 8 1 0
BITMAP
20
40
00
68
98
90
90
60
ENDCHAR
STARTCHAR LATIN CAPITAL LETTER O WITH TILDE AND ACUTE
ENCODING 7900
SWIDTH 480 0
DWIDTH 5 0
BBX 5 8 1 0
BITMAP
40
20
68
98
90
90
90
60
ENDCHAR
STARTCHAR LATIN SMALL LETTER O WITH TILDE AND ACUTE
ENCODING 7901
SWIDTH 480 0
DWIDTH 5 0
BBX 5 8 1 0
BITMAP
40
20
00
68
98
90
90
60
ENDCHAR
STARTCHAR LATIN CAPITAL LETTER O WITH TILDE AND ACUTE
ENCODING 7902
SWIDTH 480 0
DWIDTH 5 0
BBX 5 8 1 0
BITMAP
60
20
68
98
90
90
90
60
ENDCHAR
STARTCHAR LATIN SMALL LETTER O WITH TILDE AND ACUTE
ENCODING 7903
SWIDTH 480 0
DWIDTH 5 0
BBX 5 8 1 0
BITMAP
60
20
00
68
98
90
90
60
ENDCHAR
STARTCHAR LATIN CAPITAL LETTER O WITH TILDE AND ACUTE
ENCODING 7904
SWIDTH 480 0
DWIDTH 5 0
BBX 5 8 1 0
BITMAP
50
A0
68
98
90
90
90
60
ENDCHAR
STARTCHAR LATIN SMALL LETTER O WITH TILDE AND ACUTE
ENCODING 7905
SWIDTH 480 0
DWIDTH 5 0
BBX 5 8 1 0
BITMAP
50
A0
00
68
98
90
90
60
ENDCHAR
STARTCHAR LATIN CAPITAL LETTER O WITH TILDE AND ACUTE
ENCODING 7906
SWIDTH 480 0
DWIDTH 5 0
BBX 5 8 1 -2
BITMAP
68
98
90
90
90
60
00
40
ENDCHAR
STARTCHAR LATIN SMALL LETTER O WITH TILDE AND ACUTE
ENCODING 7907
SWIDTH 480 0
DWIDTH 5 0
BBX 5 7 1 -2
BITMAP
68
98
90
90
60
00
40
ENDCHAR
STARTCHAR LATIN CAPITAL LETTER U WITH DIAERESIS BELOW
ENCODING 7908
SWIDTH 480 0
DWIDTH 5 0
BBX 4 8 1 -2
BITMAP
90
90
90
90
90
70
00
40
ENDCHAR
STARTCHAR LATIN SMALL LETTER U WITH DIAERESIS BELOW
ENCODING 7909
SWIDTH 480 0
DWIDTH 5 0
BBX 4 7 1 -2
BITMAP
90
90
90
90
70
00
40
ENDCHAR
STARTCHAR LATIN CAPITAL LETTER U WITH DIAERESIS BELOW
ENCODING 7910
SWIDTH 480 0
DWIDTH 5 0
BBX 4 8 1 0
BITMAP
60
20
90
90
90
90
90
70
ENDCHAR
STARTCHAR LATIN SMALL LETTER U WITH DIAERESIS BELOW
ENCODING 7911
SWIDTH 480 0
DWIDTH 5 0
BBX 4 8 1 0
BITMAP
60
20
00
90
90
90
90
70
ENDCHAR
STARTCHAR LATIN CAPITAL LETTER U WITH DIAERESIS BELOW
ENCODING 7912
SWIDTH 480 0
DWIDTH 5 0
BBX 5 8 1 0
BITMAP
20
48
98
90
90
90
90
70
ENDCHAR
STARTCHAR LATIN SMALL LETTER U WITH DIAERESIS BELOW
ENCODING 7913
SWIDTH 480 0
DWIDTH 5 0
BBX 5 8 1 0
BITMAP
20
40
08
98
90
90
90
70
ENDCHAR
STARTCHAR LATIN CAPITAL LETTER U WITH DIAERESIS BELOW
ENCODING 7914
SWIDTH 480 0
DWIDTH 5 0
BBX 5 8 1 0
BITMAP
40
28
98
90
90
90
90
70
ENDCHAR
STARTCHAR LATIN SMALL LETTER U WITH DIAERESIS BELOW
ENCODING 7915
SWIDTH 480 0
DWIDTH 5 0
BBX 5 8 1 0
BITMAP
40
20
08
98
90
90
90
70
ENDCHAR
STARTCHAR LATIN CAPITAL LETTER U WITH DIAERESIS BELOW
ENCODING 7916
SWIDTH 480 0
DWIDTH 5 0
BBX 5 8 1 0
BITMAP
60
28
98
90
90
90
90
70
ENDCHAR
STARTCHAR LATIN SMALL LETTER U WITH DIAERESIS BELOW
ENCODING 7917
SWIDTH 480 0
DWIDTH 5 0
BBX 5 8 1 0
BITMAP
60
20
08
98
90
90
90
70
ENDCHAR
STARTCHAR LATIN CAPITAL LETTER U WITH DIAERESIS BELOW
ENCODING 7918
SWIDTH 480 0
DWIDTH 5 0
BBX 5 8 1 0
BITMAP
50
A0
98
90
90
90
90
70
ENDCHAR
STARTCHAR LATIN SMALL LETTER U WITH DIAERESIS BELOW
ENCODING 7919
SWIDTH 480 0
DWIDTH 5 0
BBX 5 8 1 0
BITMAP
50
A0
08
98
90
90
90
70
ENDCHAR
STARTCHAR LATIN CAPITAL LETTER U WITH DIAERESIS BELOW
ENCODING 7920
SWIDTH 480 0
DWIDTH 5 0
BBX 5 9 1 -2
BITMAP
08
98
90
90
90
90
70
00
40
ENDCHAR
STARTCHAR LATIN SMALL LETTER U WITH DIAERESIS BELOW
ENCODING 7921
SWIDTH 480 0
DWIDTH 5 0
BBX 5 8 1 -2
BITMAP
08
98
90
90
90
70
00
40
ENDCHAR
STARTCHAR uni0059
ENCODING 7922
SWIDTH 480 0
DWIDTH 5 0
BBX 5 8 0 0
BITMAP
40
20
88
50
20
20
20
20
ENDCHAR
STARTCHAR uni0079
ENCODING 7923
SWIDTH 480 0
DWIDTH 5 0
BBX 4 10 1 -2
BITMAP
40
20
00
90
90
90
90
70
10
60
ENDCHAR
STARTCHAR uni0059
ENCODING 7924
SWIDTH 480 0
DWIDTH 5 0
BBX 5 8 0 -2
BITMAP
88
50
20
20
20
20
00
20
ENDCHAR
STARTCHAR uni0079
ENCODING 7925
SWIDTH 480 0
DWIDTH 5 0
BBX 5 7 1 -2
BITMAP
90
90
90
90
70
20
48
ENDCHAR
STARTCHAR uni0059
ENCODING 7926
SWIDTH 480 0
DWIDTH 5 0
BBX 5 8 0 0
BITMAP
60
20
88
50
20
20
20
20
ENDCHAR
STARTCHAR uni0079
ENCODING 7927
SWIDTH 480 0
DWIDTH 5 0
BBX 4 10 1 -2
BITMAP
60
20
00
90
90
90
90
70
10
60
ENDCHAR
STARTCHAR uni0059
ENCODING 7928
SWIDTH 480 0
DWIDTH 5 0
BBX 5 8 0 0
BITMAP
48
B0
88
50
20
20
20
20
ENDCHAR
STARTCHAR uni0079
ENCODING 7929
SWIDTH 480 0
DWIDTH 5 0
BBX 4 10 1 -2
BITMAP
50
A0
00
90
90
90
90
70
10
60
ENDCHAR
STARTCHAR uni0059
ENCODING 7930
SWIDTH 480 0
DWIDTH 5 0
BBX 5 6 1 0
BITMAP
A0
A0
A0
A0
A0
B8
ENDCHAR
STARTCHAR uni0079
ENCODING 7931
SWIDTH 480 0
DWIDTH 5 0
BBX 3 6 1 0
BITMAP
A0
A0
A0
A0
A0
A0
ENDCHAR
STARTCHAR uni0036
ENCODING 7932
SWIDTH 480 0
DWIDTH 5 0
BBX 4 6 1 0
BITMAP
60
80
A0
90
90
60
ENDCHAR
STARTCHAR uni0036
ENCODING 7933
SWIDTH 480 0
DWIDTH 5 0
BBX 4 6 1 0
BITMAP
60
80
A0
90
90
60
ENDCHAR
STARTCHAR uni0079
ENCODING 7934
SWIDTH 480 0
DWIDTH 5 0
BBX 4 7 1 -1
BITMAP
90
90
90
70
30
50
60
ENDCHAR
STARTCHAR uni0079
ENCODING 7935
SWIDTH 480 0
DWIDTH 5 0
BBX 4 7 1 -2
BITMAP
90
90
90
70
30
50
60
ENDCHAR
STARTCHAR uni0061
ENCODING 7936
SWIDTH 480 0
DWIDTH 5 0
BBX 5 7 0 0
BITMAP
40
80
38
48
48
58
28
ENDCHAR
STARTCHAR uni0041
ENCODING 7944
SWIDTH 480 0
DWIDTH 5 0
BBX 5 8 0 0
BITMAP
40
80
30
48
48
78
48
48
ENDCHAR
STARTCHAR uni0069
ENCODING 7989
SWIDTH 480 0
DWIDTH 5 0
BBX 3 7 2 0
BITMAP
A0
00
C0
40
40
40
40
ENDCHAR
STARTCHAR uni0075
ENCODING 8016
SWIDTH 480 0
DWIDTH 5 0
BBX 4 8 1 0
BITMAP
40
20
00
90
90
90
90
70
ENDCHAR
STARTCHAR HYPHEN
ENCODING 8208
SWIDTH 480 0
DWIDTH 5 0
BBX 3 1 1 3
BITMAP
E0
ENDCHAR
STARTCHAR NON-BREAKING HYPHEN
ENCODING 8209
SWIDTH 480 0
DWIDTH 5 0
BBX 3 1 1 3
BITMAP
E0
ENDCHAR
STARTCHAR FIGURE DASH
ENCODING 8210
SWIDTH 480 0
DWIDTH 5 0
BBX 4 1 1 3
BITMAP
F0
ENDCHAR
STARTCHAR char8212
ENCODING 8211
SWIDTH 480 0
DWIDTH 5 0
BBX 5 1 1 3
BITMAP
F8
ENDCHAR
STARTCHAR char8212
ENCODING 8212
SWIDTH 480 0
DWIDTH 5 0
BBX 5 1 1 3
BITMAP
F8
ENDCHAR
STARTCHAR HORIZONTAL BAR
ENCODING 8213
SWIDTH 480 0
DWIDTH 5 0
BBX 7 1 0 3
BITMAP
FE
ENDCHAR
STARTCHAR DOUBLE VERTICAL LINE
ENCODING 8214
SWIDTH 480 0
DWIDTH 5 0
BBX 3 8 1 -1
BITMAP
A0
A0
A0
A0
A0
A0
A0
A0
ENDCHAR
STARTCHAR DOUBLE LOW LINE
ENCODING 8215
SWIDTH 480 0
DWIDTH 5 0
BBX 5 1 0 0
BITMAP
F8
ENDCHAR
STARTCHAR char8216
ENCODING 8216
SWIDTH 480 0
DWIDTH 5 0
BBX 1 3 2 4
BITMAP
80
80
80
ENDCHAR
STARTCHAR char8217
ENCODING 8217
SWIDTH 480 0
DWIDTH 5 0
BBX 1 3 2 4
BITMAP
80
80
80
ENDCHAR
STARTCHAR char8218
ENCODING 8218
SWIDTH 480 0
DWIDTH 5 0
BBX 4 3 0 -1
BITMAP
10
10
20
ENDCHAR
STARTCHAR SINGLE HIGH-REVERSED-9 QUOTATION MARK
ENCODING 8219
SWIDTH 480 0
DWIDTH 5 0
BBX 2 3 2 4
BITMAP
C0
80
40
ENDCHAR
STARTCHAR char8220
ENCODING 8220
SWIDTH 480 0
DWIDTH 5 0
BBX 4 3 1 3
BITMAP
50
A0
F0
ENDCHAR
STARTCHAR char8221
ENCODING 8221
SWIDTH 480 0
DWIDTH 5 0
BBX 4 3 1 3
BITMAP
F0
50
A0
ENDCHAR
STARTCHAR char8222
ENCODING 8222
SWIDTH 480 0
DWIDTH 5 0
BBX 4 3 1 -1
BITMAP
F0
50
A0
ENDCHAR
STARTCHAR char8223
ENCODING 8223
SWIDTH 480 0
DWIDTH 5 0
BBX 4 3 1 3
BITMAP
F0
A0
50
ENDCHAR
STARTCHAR DAGGER
ENCODING 8224
SWIDTH 480 0
DWIDTH 5 0
BBX 3 6 1 1
BITMAP
40
E0
40
40
40
40
ENDCHAR
STARTCHAR DOUBLE DAGGER
ENCODING 8225
SWIDTH 480 0
DWIDTH 5 0
BBX 3 9 1 -2
BITMAP
40
40
E0
40
40
40
E0
40
40
ENDCHAR
STARTCHAR char183
ENCODING 8226
SWIDTH 480 0
DWIDTH 5 0
BBX 4 4 2 1
BITMAP
60
F0
F0
60
ENDCHAR
STARTCHAR play
ENCODING 8227
SWIDTH 480 0
DWIDTH 5 0
BBX 3 6 1 0
BITMAP
80
C0
E0
E0
C0
80
ENDCHAR
STARTCHAR char8228
ENCODING 8228
SWIDTH 480 0
DWIDTH 5 0
BBX 1 2 2 0
BITMAP
80
80
ENDCHAR
STARTCHAR char8229
ENCODING 8229
SWIDTH 480 0
DWIDTH 5 0
BBX 3 2 1 0
BITMAP
A0
A0
ENDCHAR
STARTCHAR char8230
ENCODING 8230
SWIDTH 480 0
DWIDTH 5 0
BBX 5 2 1 0
BITMAP
A8
A8
ENDCHAR
STARTCHAR char8231
ENCODING 8231
SWIDTH 480 0
DWIDTH 5 0
BBX 1 1 2 2
BITMAP
80
ENDCHAR
STARTCHAR PER MILLE SIGN
ENCODING 8240
SWIDTH 480 0
DWIDTH 5 0
BBX 5 6 -1 0
BITMAP
90
90
20
40
A8
A8
ENDCHAR
STARTCHAR PER MILLE SIGN
ENCODING 8241
SWIDTH 480 0
DWIDTH 5 0
BBX 7 6 -1 0
BITMAP
90
90
20
40
AA
AA
ENDCHAR
STARTCHAR PRIME
ENCODING 8242
SWIDTH 480 0
DWIDTH 5 0
BBX 2 3 1 4
BITMAP
40
40
80
ENDCHAR
STARTCHAR DOUBLE PRIME
ENCODING 8243
SWIDTH 480 0
DWIDTH 5 0
BBX 4 3 0 4
BITMAP
50
50
A0
ENDCHAR
STARTCHAR TRIPLE PRIME
ENCODING 8244
SWIDTH 480 0
DWIDTH 5 0
BBX 6 3 0 4
BITMAP
54
54
A8
ENDCHAR
STARTCHAR REVERSED PRIME
ENCODING 8245
SWIDTH 480 0
DWIDTH 5 0
BBX 2 3 1 4
BITMAP
80
80
40
ENDCHAR
STARTCHAR REVERSED DOUBLE PRIME
ENCODING 8246
SWIDTH 480 0
DWIDTH 5 0
BBX 4 3 0 4
BITMAP
A0
A0
50
ENDCHAR
STARTCHAR REVERSED TRIPLE PRIME
ENCODING 8247
SWIDTH 480 0
DWIDTH 5 0
BBX 6 3 0 4
BITMAP
A8
A8
54
ENDCHAR
STARTCHAR CARET
ENCODING 8248
SWIDTH 480 0
DWIDTH 5 0
BBX 5 3 0 0
BITMAP
20
50
88
ENDCHAR
STARTCHAR SINGLE LEFT-POINTING ANGLE QUOTATION MARK
ENCODING 8249
SWIDTH 480 0
DWIDTH 5 0
BBX 2 4 1 1
BITMAP
40
80
80
40
ENDCHAR
STARTCHAR SINGLE RIGHT-POINTING ANGLE QUOTATION MARK
ENCODING 8250
SWIDTH 480 0
DWIDTH 5 0
BBX 2 4 2 1
BITMAP
80
40
40
80
ENDCHAR
STARTCHAR DOUBLE EXCLAMATION MARK
ENCODING 8252
SWIDTH 480 0
DWIDTH 5 0
BBX 3 7 1 0
BITMAP
A0
A0
A0
A0
A0
00
A0
ENDCHAR
STARTCHAR INTERROBANG
ENCODING 8253
SWIDTH 480 0
DWIDTH 5 0
BBX 5 7 0 0
BITMAP
70
A8
28
30
20
00
20
ENDCHAR
STARTCHAR OVERLINE
ENCODING 8254
SWIDTH 480 0
DWIDTH 5 0
BBX 3 1 0 7
BITMAP
E0
ENDCHAR
STARTCHAR UNDERTIE
ENCODING 8255
SWIDTH 480 0
DWIDTH 5 0
BBX 5 2 0 0
BITMAP
88
70
ENDCHAR
STARTCHAR CHARACTER TIE
ENCODING 8256
SWIDTH 480 0
DWIDTH 5 0
BBX 5 2 0 6
BITMAP
70
88
ENDCHAR
STARTCHAR CARET INSERTION POINT
ENCODING 8257
SWIDTH 480 0
DWIDTH 5 0
BBX 3 6 1 -2
BITMAP
20
20
40
40
A0
A0
ENDCHAR
STARTCHAR ASTERISM
ENCODING 8258
SWIDTH 480 0
DWIDTH 5 0
BBX 5 6 0 0
BITMAP
20
70
20
50
F8
50
ENDCHAR
STARTCHAR HYPHEN BULLET
ENCODING 8259
SWIDTH 480 0
DWIDTH 5 0
BBX 4 2 1 2
BITMAP
F0
F0
ENDCHAR
STARTCHAR FRACTION SLASH
ENCODING 8260
SWIDTH 480 0
DWIDTH 5 0
BBX 5 10 0 -2
BITMAP
08
08
10
10
20
20
40
40
80
80
ENDCHAR
STARTCHAR LEFT SQUARE BRACKET WITH QUILL
ENCODING 8261
SWIDTH 480 0
DWIDTH 5 0
BBX 4 9 0 -1
BITMAP
70
40
40
40
70
40
40
40
70
ENDCHAR
STARTCHAR RIGHT SQUARE BRACKET WITH QUILL
ENCODING 8262
SWIDTH 480 0
DWIDTH 5 0
BBX 4 9 0 -1
BITMAP
70
10
10
10
70
10
10
10
70
ENDCHAR
STARTCHAR DOUBLE QUESTION MARK
ENCODING 8263
SWIDTH 480 0
DWIDTH 5 0
BBX 5 7 0 0
BITMAP
50
A8
28
50
50
00
50
ENDCHAR
STARTCHAR QUESTION EXCLAMATION MARK
ENCODING 8264
SWIDTH 480 0
DWIDTH 5 0
BBX 5 7 0 0
BITMAP
48
A8
28
48
48
00
48
ENDCHAR
STARTCHAR EXCLAMATION QUESTION MARK
ENCODING 8265
SWIDTH 480 0
DWIDTH 5 0
BBX 5 7 0 0
BITMAP
90
A8
88
90
90
00
90
ENDCHAR
STARTCHAR TIRONIAN SIGN ET
ENCODING 8266
SWIDTH 480 0
DWIDTH 5 0
BBX 4 5 0 -1
BITMAP
F0
10
10
10
10
ENDCHAR
STARTCHAR REVERSED PILCROW SIGN
ENCODING 8267
SWIDTH 480 0
DWIDTH 5 0
BBX 6 8 0 0
BITMAP
F8
5C
5C
5C
78
50
50
D0
ENDCHAR
STARTCHAR BLACK LEFTWARDS BULLET
ENCODING 8268
SWIDTH 480 0
DWIDTH 5 0
BBX 5 4 0 1
BITMAP
58
D8
D8
58
ENDCHAR
STARTCHAR BLACK RIGHTWARDS BULLET
ENCODING 8269
SWIDTH 480 0
DWIDTH 5 0
BBX 5 4 0 1
BITMAP
D0
D8
D8
D0
ENDCHAR
STARTCHAR LOW ASTERISK
ENCODING 8270
SWIDTH 480 0
DWIDTH 5 0
BBX 5 5 0 -1
BITMAP
20
A8
70
A8
20
ENDCHAR
STARTCHAR REVERSED SEMICOLON
ENCODING 8271
SWIDTH 480 0
DWIDTH 5 0
BBX 2 8 2 -2
BITMAP
C0
C0
00
00
C0
C0
80
40
ENDCHAR
STARTCHAR CLOSE UP
ENCODING 8272
SWIDTH 480 0
DWIDTH 5 0
BBX 5 8 0 0
BITMAP
70
88
00
00
00
00
88
70
ENDCHAR
STARTCHAR TWO ASTERISKS ALIGNED VERTICALLY
ENCODING 8273
SWIDTH 480 0
DWIDTH 5 0
BBX 5 7 0 -1
BITMAP
20
A8
70
A8
70
A8
20
ENDCHAR
STARTCHAR COMMERCIAL MINUS SIGN
ENCODING 8274
SWIDTH 480 0
DWIDTH 5 0
BBX 4 8 0 -1
BITMAP
90
10
20
20
40
40
80
90
ENDCHAR
STARTCHAR SWUNG DASH
ENCODING 8275
SWIDTH 480 0
DWIDTH 5 0
BBX 6 2 0 3
BITMAP
64
98
ENDCHAR
STARTCHAR INVERTED UNDERTIE
ENCODING 8276
SWIDTH 480 0
DWIDTH 5 0
BBX 5 2 0 0
BITMAP
70
88
ENDCHAR
STARTCHAR FLOWER PUNCTUATION MARK
ENCODING 8277
SWIDTH 480 0
DWIDTH 5 0
BBX 5 5 0 1
BITMAP
A8
70
F8
70
A8
ENDCHAR
STARTCHAR THREE DOT PUNCTUATION
ENCODING 8278
SWIDTH 480 0
DWIDTH 5 0
BBX 3 5 0 0
BITMAP
20
00
80
00
20
ENDCHAR
STARTCHAR QUADRUPLE PRIME
ENCODING 8279
SWIDTH 480 0
DWIDTH 5 0
BBX 5 3 0 4
BITMAP
78
78
F0
ENDCHAR
STARTCHAR FOUR DOT PUNCTUATION
ENCODING 8280
SWIDTH 480 0
DWIDTH 5 0
BBX 5 5 0 0
BITMAP
20
00
88
00
20
ENDCHAR
STARTCHAR FIVE DOT PUNCTUATION
ENCODING 8281
SWIDTH 480 0
DWIDTH 5 0
BBX 5 5 0 0
BITMAP
88
00
20
00
88
ENDCHAR
STARTCHAR TWO DOT PUNCTUATION
ENCODING 8282
SWIDTH 480 0
DWIDTH 5 0
BBX 1 5 0 0
BITMAP
80
00
00
00
80
ENDCHAR
STARTCHAR FOUR DOT MARK
ENCODING 8283
SWIDTH 480 0
DWIDTH 5 0
BBX 5 7 0 0
BITMAP
20
00
00
88
00
00
20
ENDCHAR
STARTCHAR DOTTED CROSS
ENCODING 8284
SWIDTH 480 0
DWIDTH 5 0
BBX 5 5 0 0
BITMAP
A8
20
F8
20
A8
ENDCHAR
STARTCHAR TRICOLON
ENCODING 8285
SWIDTH 480 0
DWIDTH 5 0
BBX 2 8 2 -1
BITMAP
C0
C0
00
C0
C0
00
C0
C0
ENDCHAR
STARTCHAR VERTICAL FOUR DOTS
ENCODING 8286
SWIDTH 480 0
DWIDTH 5 0
BBX 1 7 0 0
BITMAP
80
00
80
00
80
00
80
ENDCHAR
STARTCHAR SUPERSCRIPT ZERO
ENCODING 8304
SWIDTH 480 0
DWIDTH 5 0
BBX 3 5 1 3
BITMAP
40
A0
A0
A0
40
ENDCHAR
STARTCHAR SUPERSCRIPT LATIN SMALL LETTER I
ENCODING 8305
SWIDTH 480 0
DWIDTH 5 0
BBX 2 5 1 3
BITMAP
40
00
C0
40
40
ENDCHAR
STARTCHAR SUPERSCRIPT FOUR
ENCODING 8308
SWIDTH 480 0
DWIDTH 5 0
BBX 3 5 1 3
BITMAP
80
A0
E0
20
20
ENDCHAR
STARTCHAR SUPERSCRIPT FIVE
ENCODING 8309
SWIDTH 480 0
DWIDTH 5 0
BBX 3 5 1 3
BITMAP
E0
80
C0
20
C0
ENDCHAR
STARTCHAR SUPERSCRIPT SIX
ENCODING 8310
SWIDTH 480 0
DWIDTH 5 0
BBX 3 5 1 3
BITMAP
40
80
C0
A0
40
ENDCHAR
STARTCHAR SUPERSCRIPT SEVEN
ENCODING 8311
SWIDTH 480 0
DWIDTH 5 0
BBX 3 5 1 3
BITMAP
E0
20
20
40
40
ENDCHAR
STARTCHAR SUPERSCRIPT EIGHT
ENCODING 8312
SWIDTH 480 0
DWIDTH 5 0
BBX 3 5 1 3
BITMAP
40
A0
40
A0
40
ENDCHAR
STARTCHAR SUPERSCRIPT NINE
ENCODING 8313
SWIDTH 480 0
DWIDTH 5 0
BBX 3 5 1 3
BITMAP
40
A0
60
20
40
ENDCHAR
STARTCHAR SUPERSCRIPT PLUS SIGN
ENCODING 8314
SWIDTH 480 0
DWIDTH 5 0
BBX 3 3 1 4
BITMAP
40
E0
40
ENDCHAR
STARTCHAR SUPERSCRIPT MINUS
ENCODING 8315
SWIDTH 480 0
DWIDTH 5 0
BBX 3 1 1 5
BITMAP
E0
ENDCHAR
STARTCHAR SUPERSCRIPT EQUALS SIGN
ENCODING 8316
SWIDTH 480 0
DWIDTH 5 0
BBX 3 3 1 4
BITMAP
E0
00
E0
ENDCHAR
STARTCHAR SUPERSCRIPT LEFT PARENTHESIS
ENCODING 8317
SWIDTH 480 0
DWIDTH 5 0
BBX 2 5 1 3
BITMAP
40
80
80
80
40
ENDCHAR
STARTCHAR SUPERSCRIPT RIGHT PARENTHESIS
ENCODING 8318
SWIDTH 480 0
DWIDTH 5 0
BBX 2 5 2 3
BITMAP
80
40
40
40
80
ENDCHAR
STARTCHAR SUPERSCRIPT LATIN SMALL LETTER N
ENCODING 8319
SWIDTH 480 0
DWIDTH 5 0
BBX 3 3 1 3
BITMAP
C0
A0
A0
ENDCHAR
STARTCHAR char8320
ENCODING 8320
SWIDTH 480 0
DWIDTH 5 0
BBX 4 5 1 -1
BITMAP
60
90
90
90
60
ENDCHAR
STARTCHAR SUBSCRIPT ONE
ENCODING 8321
SWIDTH 480 0
DWIDTH 5 0
BBX 3 5 1 -2
BITMAP
C0
40
40
40
E0
ENDCHAR
STARTCHAR SUBSCRIPT TWO
ENCODING 8322
SWIDTH 480 0
DWIDTH 5 0
BBX 4 5 0 -2
BITMAP
60
10
20
40
70
ENDCHAR
STARTCHAR SUBSCRIPT THREE
ENCODING 8323
SWIDTH 480 0
DWIDTH 5 0
BBX 3 5 1 -2
BITMAP
C0
20
40
20
C0
ENDCHAR
STARTCHAR SUBSCRIPT FOUR
ENCODING 8324
SWIDTH 480 0
DWIDTH 5 0
BBX 3 5 1 -2
BITMAP
80
A0
E0
20
20
ENDCHAR
STARTCHAR SUBSCRIPT FIVE
ENCODING 8325
SWIDTH 480 0
DWIDTH 5 0
BBX 3 5 1 -2
BITMAP
E0
80
C0
20
C0
ENDCHAR
STARTCHAR SUBSCRIPT SIX
ENCODING 8326
SWIDTH 480 0
DWIDTH 5 0
BBX 3 5 1 -2
BITMAP
40
80
C0
A0
40
ENDCHAR
STARTCHAR SUBSCRIPT SEVEN
ENCODING 8327
SWIDTH 480 0
DWIDTH 5 0
BBX 3 5 1 -2
BITMAP
E0
20
20
40
40
ENDCHAR
STARTCHAR SUBSCRIPT EIGHT
ENCODING 8328
SWIDTH 480 0
DWIDTH 5 0
BBX 3 5 1 -2
BITMAP
40
A0
40
A0
40
ENDCHAR
STARTCHAR SUBSCRIPT NINE
ENCODING 8329
SWIDTH 480 0
DWIDTH 5 0
BBX 3 5 1 -2
BITMAP
40
A0
60
20
40
ENDCHAR
STARTCHAR SUBSCRIPT PLUS SIGN
ENCODING 8330
SWIDTH 480 0
DWIDTH 5 0
BBX 3 3 1 -1
BITMAP
40
E0
40
ENDCHAR
STARTCHAR SUBSCRIPT MINUS
ENCODING 8331
SWIDTH 480 0
DWIDTH 5 0
BBX 3 1 1 0
BITMAP
E0
ENDCHAR
STARTCHAR SUBSCRIPT EQUALS SIGN
ENCODING 8332
SWIDTH 480 0
DWIDTH 5 0
BBX 3 3 1 -1
BITMAP
E0
00
E0
ENDCHAR
STARTCHAR SUBSCRIPT LEFT PARENTHESIS
ENCODING 8333
SWIDTH 480 0
DWIDTH 5 0
BBX 2 5 1 -2
BITMAP
40
80
80
80
40
ENDCHAR
STARTCHAR SUBSCRIPT RIGHT PARENTHESIS
ENCODING 8334
SWIDTH 480 0
DWIDTH 5 0
BBX 2 5 2 -2
BITMAP
80
40
40
40
80
ENDCHAR
STARTCHAR LATIN SUBSCRIPT SMALL LETTER A
ENCODING 8336
SWIDTH 480 0
DWIDTH 5 0
BBX 3 5 1 -2
BITMAP
40
20
60
A0
60
ENDCHAR
STARTCHAR LATIN SUBSCRIPT SMALL LETTER E
ENCODING 8337
SWIDTH 480 0
DWIDTH 5 0
BBX 4 5 1 -2
BITMAP
40
A0
E0
80
60
ENDCHAR
STARTCHAR LATIN SUBSCRIPT SMALL LETTER O
ENCODING 8338
SWIDTH 480 0
DWIDTH 5 0
BBX 4 4 1 -2
BITMAP
60
90
90
60
ENDCHAR
STARTCHAR LATIN SUBSCRIPT SMALL LETTER X
ENCODING 8339
SWIDTH 480 0
DWIDTH 5 0
BBX 3 4 1 -2
BITMAP
A0
40
40
A0
ENDCHAR
STARTCHAR LATIN SUBSCRIPT SMALL LETTER SCHWA
ENCODING 8340
SWIDTH 480 0
DWIDTH 5 0
BBX 4 5 0 -2
BITMAP
60
10
70
50
20
ENDCHAR
STARTCHAR LATIN SUBSCRIPT SMALL LETTER H
ENCODING 8341
SWIDTH 480 0
DWIDTH 5 0
BBX 3 5 1 -2
BITMAP
80
80
C0
A0
A0
ENDCHAR
STARTCHAR LATIN SUBSCRIPT SMALL LETTER K
ENCODING 8342
SWIDTH 480 0
DWIDTH 5 0
BBX 4 5 0 -2
BITMAP
40
40
50
60
50
ENDCHAR
STARTCHAR LATIN SUBSCRIPT SMALL LETTER L
ENCODING 8343
SWIDTH 480 0
DWIDTH 5 0
BBX 3 5 1 -2
BITMAP
C0
40
40
40
60
ENDCHAR
STARTCHAR LATIN SUBSCRIPT SMALL LETTER M
ENCODING 8344
SWIDTH 480 0
DWIDTH 5 0
BBX 6 3 0 -2
BITMAP
68
54
54
ENDCHAR
STARTCHAR LATIN SUBSCRIPT SMALL LETTER N
ENCODING 8345
SWIDTH 480 0
DWIDTH 5 0
BBX 3 3 1 -2
BITMAP
C0
A0
A0
ENDCHAR
STARTCHAR LATIN SUBSCRIPT SMALL LETTER P
ENCODING 8346
SWIDTH 480 0
DWIDTH 5 0
BBX 3 4 1 -2
BITMAP
C0
A0
C0
80
ENDCHAR
STARTCHAR LATIN SUBSCRIPT SMALL LETTER S
ENCODING 8347
SWIDTH 480 0
DWIDTH 5 0
BBX 3 4 1 -2
BITMAP
60
C0
20
C0
ENDCHAR
STARTCHAR LATIN SUBSCRIPT SMALL LETTER T
ENCODING 8348
SWIDTH 480 0
DWIDTH 5 0
BBX 3 5 1 -2
BITMAP
40
E0
40
40
20
ENDCHAR
STARTCHAR EURO-CURRENCY SIGN
ENCODING 8352
SWIDTH 480 0
DWIDTH 5 0
BBX 5 7 0 0
BITMAP
70
80
B8
A0
78
20
38
ENDCHAR
STARTCHAR COLON SIGN
ENCODING 8353
SWIDTH 480 0
DWIDTH 5 0
BBX 6 10 0 -2
BITMAP
14
74
A8
A8
A8
D0
D8
70
A0
A0
ENDCHAR
STARTCHAR CRUZEIRO SIGN
ENCODING 8354
SWIDTH 480 0
DWIDTH 5 0
BBX 5 7 0 0
BITMAP
70
88
80
A8
B0
A8
70
ENDCHAR
STARTCHAR FRENCH FRANC SIGN
ENCODING 8355
SWIDTH 480 0
DWIDTH 5 0
BBX 5 7 0 0
BITMAP
78
40
40
70
40
E0
40
ENDCHAR
STARTCHAR LIRA SIGN
ENCODING 8356
SWIDTH 480 0
DWIDTH 5 0
BBX 5 7 0 0
BITMAP
30
48
E0
40
E0
48
B0
ENDCHAR
STARTCHAR MILL SIGN
ENCODING 8357
SWIDTH 480 0
DWIDTH 5 0
BBX 5 7 0 -1
BITMAP
10
D0
A8
A8
A8
E8
40
ENDCHAR
STARTCHAR NAIRA SIGN
ENCODING 8358
SWIDTH 480 0
DWIDTH 5 0
BBX 5 7 0 0
BITMAP
C8
C8
F8
A8
F8
98
98
ENDCHAR
STARTCHAR PESETA SIGN
ENCODING 8359
SWIDTH 480 0
DWIDTH 5 0
BBX 5 8 0 -1
BITMAP
E0
90
90
E0
90
B8
90
18
ENDCHAR
STARTCHAR char8360
ENCODING 8360
SWIDTH 480 0
DWIDTH 5 0
BBX 6 7 0 0
BITMAP
C0
A0
A0
CC
A8
A4
AC
ENDCHAR
STARTCHAR uni0057
ENCODING 8361
SWIDTH 480 0
DWIDTH 5 0
BBX 6 6 0 0
BITMAP
48
FC
48
78
78
48
ENDCHAR
STARTCHAR char8362
ENCODING 8362
SWIDTH 480 0
DWIDTH 5 0
BBX 5 5 0 0
BITMAP
C8
A8
88
A8
98
ENDCHAR
STARTCHAR uni0064
ENCODING 8363
SWIDTH 480 0
DWIDTH 5 0
BBX 5 8 1 -1
BITMAP
38
10
70
90
90
70
00
70
ENDCHAR
STARTCHAR char8364
ENCODING 8364
SWIDTH 480 0
DWIDTH 5 0
BBX 5 7 0 0
BITMAP
30
48
E0
40
E0
48
30
ENDCHAR
STARTCHAR uni004B
ENCODING 8365
SWIDTH 480 0
DWIDTH 5 0
BBX 5 6 0 0
BITMAP
48
50
F8
50
48
48
ENDCHAR
STARTCHAR uni0054
ENCODING 8366
SWIDTH 480 0
DWIDTH 5 0
BBX 5 6 0 0
BITMAP
F8
20
30
60
20
20
ENDCHAR
STARTCHAR uni0044
ENCODING 8367
SWIDTH 480 0
DWIDTH 5 0
BBX 7 8 0 -2
BITMAP
60
D0
50
5C
5A
EC
08
08
ENDCHAR
STARTCHAR char8368
ENCODING 8368
SWIDTH 480 0
DWIDTH 5 0
BBX 4 8 0 -2
BITMAP
60
50
50
20
20
D0
10
20
ENDCHAR
STARTCHAR uni0050
ENCODING 8369
SWIDTH 480 0
DWIDTH 5 0
BBX 6 6 0 0
BITMAP
70
48
DC
70
40
40
ENDCHAR
STARTCHAR uni0047
ENCODING 8370
SWIDTH 480 0
DWIDTH 5 0
BBX 4 8 1 -1
BITMAP
20
70
A0
80
B0
90
70
20
ENDCHAR
STARTCHAR uni0041
ENCODING 8371
SWIDTH 480 0
DWIDTH 5 0
BBX 6 6 0 0
BITMAP
30
CC
48
78
48
48
ENDCHAR
STARTCHAR uni0053
ENCODING 8372
SWIDTH 480 0
DWIDTH 5 0
BBX 4 6 1 0
BITMAP
E0
10
F0
E0
80
70
ENDCHAR
STARTCHAR uni0043
ENCODING 8373
SWIDTH 480 0
DWIDTH 5 0
BBX 4 8 1 -1
BITMAP
20
70
A0
A0
A0
A0
70
20
ENDCHAR
STARTCHAR char8373
ENCODING 8374
SWIDTH 480 0
DWIDTH 5 0
BBX 5 6 0 0
BITMAP
50
F8
50
50
50
58
ENDCHAR
STARTCHAR uni0053
ENCODING 8375
SWIDTH 480 0
DWIDTH 5 0
BBX 4 7 1 -1
BITMAP
70
80
60
10
B0
E0
A0
ENDCHAR
STARTCHAR uni0054
ENCODING 8376
SWIDTH 480 0
DWIDTH 5 0
BBX 5 6 0 0
BITMAP
F8
20
20
20
20
20
ENDCHAR
STARTCHAR char8376
ENCODING 8377
SWIDTH 480 0
DWIDTH 5 0
BBX 4 6 1 0
BITMAP
F0
20
F0
40
80
40
ENDCHAR
STARTCHAR uni0062
ENCODING 8378
SWIDTH 480 0
DWIDTH 5 0
BBX 5 7 0 0
BITMAP
60
C0
60
D0
48
48
70
ENDCHAR
STARTCHAR char8378
ENCODING 8379
SWIDTH 480 0
DWIDTH 5 0
BBX 5 8 0 0
BITMAP
40
A0
70
08
38
40
40
30
ENDCHAR
STARTCHAR char8379
ENCODING 8380
SWIDTH 480 0
DWIDTH 5 0
BBX 5 6 0 0
BITMAP
20
70
A8
A8
A8
A8
ENDCHAR
STARTCHAR uni0050
ENCODING 8381
SWIDTH 480 0
DWIDTH 5 0
BBX 4 6 1 0
BITMAP
E0
90
90
E0
80
80
ENDCHAR
STARTCHAR uni0043
ENCODING 8382
SWIDTH 480 0
DWIDTH 5 0
BBX 5 7 1 0
BITMAP
50
70
D8
80
80
40
F0
ENDCHAR
STARTCHAR uni0042
ENCODING 8383
SWIDTH 480 0
DWIDTH 5 0
BBX 4 8 1 -1
BITMAP
A0
E0
90
E0
90
90
E0
A0
ENDCHAR
STARTCHAR char8482
ENCODING 8482
SWIDTH 480 0
DWIDTH 5 0
BBX 6 3 0 3
BITMAP
F4
5C
54
ENDCHAR
STARTCHAR char8592
ENCODING 8592
SWIDTH 480 0
DWIDTH 5 0
BBX 6 5 0 0
BITMAP
20
60
FC
60
20
ENDCHAR
STARTCHAR char8593
ENCODING 8593
SWIDTH 480 0
DWIDTH 5 0
BBX 5 6 0 0
BITMAP
20
70
F8
20
20
20
ENDCHAR
STARTCHAR char8592
ENCODING 8594
SWIDTH 480 0
DWIDTH 5 0
BBX 6 5 0 0
BITMAP
10
18
FC
18
10
ENDCHAR
STARTCHAR char8595
ENCODING 8595
SWIDTH 480 0
DWIDTH 5 0
BBX 5 6 0 0
BITMAP
20
20
20
F8
70
20
ENDCHAR
STARTCHAR char8596
ENCODING 8596
SWIDTH 480 0
DWIDTH 5 0
BBX 6 3 0 1
BITMAP
48
FC
48
ENDCHAR
STARTCHAR char8597
ENCODING 8597
SWIDTH 480 0
DWIDTH 5 0
BBX 5 8 0 -1
BITMAP
20
70
F8
20
20
F8
70
20
ENDCHAR
STARTCHAR char8598
ENCODING 8598
SWIDTH 480 0
DWIDTH 5 0
BBX 4 4 0 1
BITMAP
E0
C0
A0
10
ENDCHAR
STARTCHAR char8599
ENCODING 8599
SWIDTH 480 0
DWIDTH 5 0
BBX 4 4 1 1
BITMAP
70
30
50
80
ENDCHAR
STARTCHAR char8600
ENCODING 8600
SWIDTH 480 0
DWIDTH 5 0
BBX 4 4 1 0
BITMAP
80
50
30
70
ENDCHAR
STARTCHAR char8601
ENCODING 8601
SWIDTH 480 0
DWIDTH 5 0
BBX 4 4 0 0
BITMAP
10
A0
C0
E0
ENDCHAR
STARTCHAR LEFTWARDS ARROW WITH STROKE
ENCODING 8602
SWIDTH 480 0
DWIDTH 5 0
BBX 6 3 0 2
BITMAP
50
FC
48
ENDCHAR
STARTCHAR RIGHTWARDS ARROW WITH STROKE
ENCODING 8603
SWIDTH 480 0
DWIDTH 5 0
BBX 6 3 0 2
BITMAP
28
FC
48
ENDCHAR
STARTCHAR LEFTWARDS WAVE ARROW
ENCODING 8604
SWIDTH 480 0
DWIDTH 5 0
BBX 6 3 0 1
BITMAP
E0
C8
B4
ENDCHAR
STARTCHAR RIGHTWARDS WAVE ARROW
ENCODING 8605
SWIDTH 480 0
DWIDTH 5 0
BBX 6 3 0 1
BITMAP
1C
4C
B4
ENDCHAR
STARTCHAR LEFTWARDS TWO HEADED ARROW
ENCODING 8606
SWIDTH 480 0
DWIDTH 5 0
BBX 6 5 0 1
BITMAP
28
50
FC
50
28
ENDCHAR
STARTCHAR UPWARDS TWO HEADED ARROW
ENCODING 8607
SWIDTH 480 0
DWIDTH 5 0
BBX 5 7 0 0
BITMAP
20
70
A8
70
A8
20
20
ENDCHAR
STARTCHAR RIGHTWARDS TWO HEADED ARROW
ENCODING 8608
SWIDTH 480 0
DWIDTH 5 0
BBX 6 5 0 1
BITMAP
50
28
FC
28
50
ENDCHAR
STARTCHAR DOWNWARDS TWO HEADED ARROW
ENCODING 8609
SWIDTH 480 0
DWIDTH 5 0
BBX 5 7 0 0
BITMAP
20
20
A8
70
A8
70
20
ENDCHAR
STARTCHAR LEFTWARDS ARROW WITH TAIL
ENCODING 8610
SWIDTH 480 0
DWIDTH 5 0
BBX 6 5 0 1
BITMAP
20
44
F8
44
20
ENDCHAR
STARTCHAR RIGHTWARDS ARROW WITH TAIL
ENCODING 8611
SWIDTH 480 0
DWIDTH 5 0
BBX 6 5 0 1
BITMAP
10
88
7C
88
10
ENDCHAR
STARTCHAR LEFTWARDS ARROW FROM BAR
ENCODING 8612
SWIDTH 480 0
DWIDTH 5 0
BBX 6 5 0 1
BITMAP
24
44
FC
44
24
ENDCHAR
STARTCHAR UPWARDS ARROW FROM BAR
ENCODING 8613
SWIDTH 480 0
DWIDTH 5 0
BBX 5 7 0 0
BITMAP
20
70
A8
20
20
20
F8
ENDCHAR
STARTCHAR RIGHTWARDS ARROW FROM BAR
ENCODING 8614
SWIDTH 480 0
DWIDTH 5 0
BBX 6 5 0 1
BITMAP
90
88
FC
88
90
ENDCHAR
STARTCHAR DOWNWARDS ARROW FROM BAR
ENCODING 8615
SWIDTH 480 0
DWIDTH 5 0
BBX 5 7 0 0
BITMAP
F8
20
20
20
A8
70
20
ENDCHAR
STARTCHAR UP DOWN ARROW WITH BASE
ENCODING 8616
SWIDTH 480 0
DWIDTH 5 0
BBX 5 9 0 -2
BITMAP
20
70
A8
20
A8
70
20
00
F8
ENDCHAR
STARTCHAR LEFTWARDS ARROW WITH HOOK
ENCODING 8617
SWIDTH 480 0
DWIDTH 5 0
BBX 6 5 0 1
BITMAP
28
44
F8
40
20
ENDCHAR
STARTCHAR RIGHTWARDS ARROW WITH HOOK
ENCODING 8618
SWIDTH 480 0
DWIDTH 5 0
BBX 6 5 0 1
BITMAP
50
88
7C
08
10
ENDCHAR
STARTCHAR LEFTWARDS ARROW WITH LOOP
ENCODING 8619
SWIDTH 480 0
DWIDTH 5 0
BBX 6 5 0 1
BITMAP
28
54
F8
50
20
ENDCHAR
STARTCHAR RIGHTWARDS ARROW WITH LOOP
ENCODING 8620
SWIDTH 480 0
DWIDTH 5 0
BBX 6 5 0 1
BITMAP
50
A8
7C
28
10
ENDCHAR
STARTCHAR LEFT RIGHT WAVE ARROW
ENCODING 8621
SWIDTH 480 0
DWIDTH 5 0
BBX 6 3 0 2
BITMAP
58
FC
68
ENDCHAR
STARTCHAR LEFT RIGHT ARROW WITH STROKE
ENCODING 8622
SWIDTH 480 0
DWIDTH 5 0
BBX 6 3 0 2
BITMAP
58
FC
68
ENDCHAR
STARTCHAR DOWNWARDS ZIGZAG ARROW
ENCODING 8623
SWIDTH 480 0
DWIDTH 5 0
BBX 4 7 0 0
BITMAP
10
20
60
10
A0
C0
E0
ENDCHAR
STARTCHAR char8624
ENCODING 8624
SWIDTH 480 0
DWIDTH 5 0
BBX 4 5 0 0
BITMAP
40
F0
50
10
10
ENDCHAR
STARTCHAR char8625
ENCODING 8625
SWIDTH 480 0
DWIDTH 5 0
BBX 4 5 0 0
BITMAP
20
F0
A0
80
80
ENDCHAR
STARTCHAR char8626
ENCODING 8626
SWIDTH 480 0
DWIDTH 5 0
BBX 4 5 0 -1
BITMAP
10
10
50
F0
40
ENDCHAR
STARTCHAR char8627
ENCODING 8627
SWIDTH 480 0
DWIDTH 5 0
BBX 4 5 0 -1
BITMAP
80
80
A0
F0
20
ENDCHAR
STARTCHAR char8628
ENCODING 8628
SWIDTH 480 0
DWIDTH 5 0
BBX 4 5 0 -1
BITMAP
E0
20
20
70
20
ENDCHAR
STARTCHAR char8629
ENCODING 8629
SWIDTH 480 0
DWIDTH 5 0
BBX 4 5 0 -1
BITMAP
10
10
50
F0
40
ENDCHAR
STARTCHAR char8630
ENCODING 8630
SWIDTH 480 0
DWIDTH 5 0
BBX 4 5 0 0
BITMAP
20
50
40
E0
40
ENDCHAR
STARTCHAR char8631
ENCODING 8631
SWIDTH 480 0
DWIDTH 5 0
BBX 4 5 1 0
BITMAP
40
A0
20
70
20
ENDCHAR
STARTCHAR NORTH WEST ARROW TO LONG BAR
ENCODING 8632
SWIDTH 480 0
DWIDTH 5 0
BBX 5 7 0 0
BITMAP
F8
00
E0
C0
A0
10
08
ENDCHAR
STARTCHAR LEFTWARDS ARROW TO BAR OVER RIGHTWARDS ARROW TO BAR
ENCODING 8633
SWIDTH 480 0
DWIDTH 5 0
BBX 6 9 0 -1
BITMAP
24
14
FC
14
B4
A4
FC
A0
90
ENDCHAR
STARTCHAR ANTICLOCKWISE OPEN CIRCLE ARROW
ENCODING 8634
SWIDTH 480 0
DWIDTH 5 0
BBX 5 6 0 0
BITMAP
38
30
A8
88
88
70
ENDCHAR
STARTCHAR CLOCKWISE OPEN CIRCLE ARROW
ENCODING 8635
SWIDTH 480 0
DWIDTH 5 0
BBX 5 6 0 0
BITMAP
E0
60
A8
88
88
70
ENDCHAR
STARTCHAR LEFTWARDS HARPOON WITH BARB UPWARDS
ENCODING 8636
SWIDTH 480 0
DWIDTH 5 0
BBX 6 3 0 3
BITMAP
20
40
FC
ENDCHAR
STARTCHAR LEFTWARDS HARPOON WITH BARB DOWNWARDS
ENCODING 8637
SWIDTH 480 0
DWIDTH 5 0
BBX 6 3 0 1
BITMAP
FC
40
20
ENDCHAR
STARTCHAR UPWARDS HARPOON WITH BARB RIGHTWARDS
ENCODING 8638
SWIDTH 480 0
DWIDTH 5 0
BBX 3 7 2 0
BITMAP
80
C0
A0
80
80
80
80
ENDCHAR
STARTCHAR UPWARDS HARPOON WITH BARB LEFTWARDS
ENCODING 8639
SWIDTH 480 0
DWIDTH 5 0
BBX 3 7 0 0
BITMAP
20
60
A0
20
20
20
20
ENDCHAR
STARTCHAR RIGHTWARDS HARPOON WITH BARB UPWARDS
ENCODING 8640
SWIDTH 480 0
DWIDTH 5 0
BBX 6 3 0 3
BITMAP
10
08
FC
ENDCHAR
STARTCHAR RIGHTWARDS HARPOON WITH BARB DOWNWARDS
ENCODING 8641
SWIDTH 480 0
DWIDTH 5 0
BBX 6 3 0 1
BITMAP
FC
08
10
ENDCHAR
STARTCHAR DOWNWARDS HARPOON WITH BARB RIGHTWARDS
ENCODING 8642
SWIDTH 480 0
DWIDTH 5 0
BBX 3 7 2 0
BITMAP
80
80
80
80
A0
C0
80
ENDCHAR
STARTCHAR DOWNWARDS HARPOON WITH BARB LEFTWARDS
ENCODING 8643
SWIDTH 480 0
DWIDTH 5 0
BBX 3 7 0 0
BITMAP
20
20
20
20
A0
60
20
ENDCHAR
STARTCHAR RIGHTWARDS ARROW OVER LEFTWARDS ARROW
ENCODING 8644
SWIDTH 480 0
DWIDTH 5 0
BBX 6 7 0 0
BITMAP
08
FC
08
00
40
FC
40
ENDCHAR
STARTCHAR UPWARDS ARROW LEFTWARDS OF DOWNWARDS ARROW
ENCODING 8645
SWIDTH 480 0
DWIDTH 5 0
BBX 6 7 0 0
BITMAP
48
E8
48
48
48
5C
48
ENDCHAR
STARTCHAR LEFTWARDS ARROW OVER RIGHTWARDS ARROW
ENCODING 8646
SWIDTH 480 0
DWIDTH 5 0
BBX 6 7 0 0
BITMAP
40
FC
40
00
08
FC
08
ENDCHAR
STARTCHAR LEFTWARDS PAIRED ARROWS
ENCODING 8647
SWIDTH 480 0
DWIDTH 5 0
BBX 6 7 0 0
BITMAP
40
FC
40
00
40
FC
40
ENDCHAR
STARTCHAR UPWARDS PAIRED ARROWS
ENCODING 8648
SWIDTH 480 0
DWIDTH 5 0
BBX 6 7 0 0
BITMAP
48
FC
48
48
48
48
48
ENDCHAR
STARTCHAR RIGHTWARDS PAIRED ARROWS
ENCODING 8649
SWIDTH 480 0
DWIDTH 5 0
BBX 6 7 0 0
BITMAP
08
FC
08
00
08
FC
08
ENDCHAR
STARTCHAR DOWNWARDS PAIRED ARROWS
ENCODING 8650
SWIDTH 480 0
DWIDTH 5 0
BBX 6 7 0 0
BITMAP
48
48
48
48
48
FC
48
ENDCHAR
STARTCHAR LEFTWARDS HARPOON OVER RIGHTWARDS HARPOON
ENCODING 8651
SWIDTH 480 0
DWIDTH 5 0
BBX 6 7 0 -1
BITMAP
20
40
FC
00
FC
08
10
ENDCHAR
STARTCHAR RIGHTWARDS HARPOON OVER LEFTWARDS HARPOON
ENCODING 8652
SWIDTH 480 0
DWIDTH 5 0
BBX 6 7 0 -1
BITMAP
10
08
FC
00
FC
40
20
ENDCHAR
STARTCHAR UPWARDS WHITE ARROW
ENCODING 8653
SWIDTH 480 0
DWIDTH 5 0
BBX 6 5 0 0
BITMAP
24
7C
94
7C
20
ENDCHAR
STARTCHAR UPWARDS WHITE ARROW
ENCODING 8654
SWIDTH 480 0
DWIDTH 5 0
BBX 7 5 0 0
BITMAP
28
7C
92
7C
28
ENDCHAR
STARTCHAR UPWARDS WHITE ARROW
ENCODING 8655
SWIDTH 480 0
DWIDTH 5 0
BBX 6 5 0 0
BITMAP
10
F8
A4
F8
50
ENDCHAR
STARTCHAR LEFTWARDS DOUBLE ARROW
ENCODING 8656
SWIDTH 480 0
DWIDTH 5 0
BBX 6 5 0 -1
BITMAP
20
7C
80
7C
20
ENDCHAR
STARTCHAR UPWARDS WHITE ARROW
ENCODING 8657
SWIDTH 480 0
DWIDTH 5 0
BBX 5 6 0 0
BITMAP
20
50
D8
50
50
50
ENDCHAR
STARTCHAR UPWARDS WHITE ARROW
ENCODING 8658
SWIDTH 480 0
DWIDTH 5 0
BBX 6 5 0 0
BITMAP
10
F8
04
F8
10
ENDCHAR
STARTCHAR UPWARDS WHITE ARROW
ENCODING 8659
SWIDTH 480 0
DWIDTH 5 0
BBX 5 6 0 0
BITMAP
50
50
50
D8
50
20
ENDCHAR
STARTCHAR UPWARDS WHITE ARROW
ENCODING 8660
SWIDTH 480 0
DWIDTH 5 0
BBX 7 5 0 0
BITMAP
28
7C
82
7C
28
ENDCHAR
STARTCHAR UPWARDS WHITE ARROW
ENCODING 8661
SWIDTH 480 0
DWIDTH 5 0
BBX 5 7 0 0
BITMAP
20
50
D8
50
D8
50
20
ENDCHAR
STARTCHAR char8662
ENCODING 8662
SWIDTH 480 0
DWIDTH 5 0
BBX 6 6 0 0
BITMAP
F0
90
88
C4
20
10
ENDCHAR
STARTCHAR char8662
ENCODING 8663
SWIDTH 480 0
DWIDTH 5 0
BBX 6 6 0 0
BITMAP
3C
24
44
8C
10
20
ENDCHAR
STARTCHAR char8662
ENCODING 8664
SWIDTH 480 0
DWIDTH 5 0
BBX 6 6 0 0
BITMAP
20
10
8C
44
24
3C
ENDCHAR
STARTCHAR char8662
ENCODING 8665
SWIDTH 480 0
DWIDTH 5 0
BBX 6 6 0 0
BITMAP
10
20
C4
88
90
F0
ENDCHAR
STARTCHAR LEFTWARDS DOUBLE ARROW
ENCODING 8666
SWIDTH 480 0
DWIDTH 5 0
BBX 7 7 0 -1
BITMAP
10
3E
40
FC
40
3E
10
ENDCHAR
STARTCHAR LEFTWARDS DOUBLE ARROW
ENCODING 8667
SWIDTH 480 0
DWIDTH 5 0
BBX 7 7 0 -1
BITMAP
10
F8
04
7E
04
F8
10
ENDCHAR
STARTCHAR char8592
ENCODING 8668
SWIDTH 480 0
DWIDTH 5 0
BBX 8 5 0 0
BITMAP
20
69
FE
64
20
ENDCHAR
STARTCHAR char8592
ENCODING 8669
SWIDTH 480 0
DWIDTH 5 0
BBX 8 5 -1 0
BITMAP
04
96
7F
26
04
ENDCHAR
STARTCHAR UPWARDS ARROW WITH DOUBLE STROKE
ENCODING 8670
SWIDTH 480 0
DWIDTH 5 0
BBX 5 9 0 0
BITMAP
20
70
A8
20
20
F8
20
F8
20
ENDCHAR
STARTCHAR DOWNWARDS ARROW WITH DOUBLE STROKE
ENCODING 8671
SWIDTH 480 0
DWIDTH 5 0
BBX 5 9 0 0
BITMAP
20
F8
20
F8
20
20
A8
70
20
ENDCHAR
STARTCHAR char8592
ENCODING 8672
SWIDTH 480 0
DWIDTH 5 0
BBX 6 5 0 0
BITMAP
20
60
D4
60
20
ENDCHAR
STARTCHAR char8593
ENCODING 8673
SWIDTH 480 0
DWIDTH 5 0
BBX 5 6 0 0
BITMAP
20
70
D8
20
00
20
ENDCHAR
STARTCHAR char8592
ENCODING 8674
SWIDTH 480 0
DWIDTH 5 0
BBX 6 5 0 0
BITMAP
10
18
AC
18
10
ENDCHAR
STARTCHAR char8595
ENCODING 8675
SWIDTH 480 0
DWIDTH 5 0
BBX 5 6 0 0
BITMAP
20
00
20
D8
70
20
ENDCHAR
STARTCHAR RIGHTWARDS ARROW TO BAR
ENCODING 8676
SWIDTH 480 0
DWIDTH 5 0
BBX 6 5 0 0
BITMAP
88
90
BC
90
88
ENDCHAR
STARTCHAR RIGHTWARDS ARROW TO BAR
ENCODING 8677
SWIDTH 480 0
DWIDTH 5 0
BBX 6 5 0 0
BITMAP
44
24
F4
24
44
ENDCHAR
STARTCHAR UPWARDS WHITE ARROW
ENCODING 8678
SWIDTH 480 0
DWIDTH 5 0
BBX 6 5 0 0
BITMAP
20
7C
84
7C
20
ENDCHAR
STARTCHAR UPWARDS WHITE ARROW
ENCODING 8679
SWIDTH 480 0
DWIDTH 5 0
BBX 5 6 0 0
BITMAP
20
50
D8
50
50
70
ENDCHAR
STARTCHAR UPWARDS WHITE ARROW
ENCODING 8680
SWIDTH 480 0
DWIDTH 5 0
BBX 6 5 0 0
BITMAP
10
F8
84
F8
10
ENDCHAR
STARTCHAR UPWARDS WHITE ARROW
ENCODING 8681
SWIDTH 480 0
DWIDTH 5 0
BBX 5 6 0 0
BITMAP
70
50
50
D8
50
20
ENDCHAR
STARTCHAR UPWARDS WHITE ARROW
ENCODING 8682
SWIDTH 480 0
DWIDTH 5 0
BBX 5 7 0 -1
BITMAP
20
50
F8
00
70
50
70
ENDCHAR
STARTCHAR UPWARDS WHITE ARROW
ENCODING 8683
SWIDTH 480 0
DWIDTH 5 0
BBX 5 7 0 -1
BITMAP
20
50
D8
50
50
88
F8
ENDCHAR
STARTCHAR UPWARDS WHITE ARROW
ENCODING 8684
SWIDTH 480 0
DWIDTH 5 0
BBX 5 7 0 -1
BITMAP
20
70
F8
50
50
88
F8
ENDCHAR
STARTCHAR UPWARDS WHITE ARROW
ENCODING 8685
SWIDTH 480 0
DWIDTH 5 0
BBX 5 7 0 -1
BITMAP
20
70
D8
50
50
A8
F8
ENDCHAR
STARTCHAR UPWARDS WHITE ARROW
ENCODING 8686
SWIDTH 480 0
DWIDTH 5 0
BBX 5 8 0 -1
BITMAP
20
50
F8
50
D8
50
50
70
ENDCHAR
STARTCHAR UPWARDS WHITE ARROW
ENCODING 8687
SWIDTH 480 0
DWIDTH 5 0
BBX 5 9 0 -1
BITMAP
20
50
F8
50
D8
50
50
88
F8
ENDCHAR
STARTCHAR UPWARDS WHITE ARROW
ENCODING 8688
SWIDTH 480 0
DWIDTH 5 0
BBX 7 5 0 0
BITMAP
C8
BC
C6
BC
C8
ENDCHAR
STARTCHAR char8689
ENCODING 8689
SWIDTH 480 0
DWIDTH 5 0
BBX 6 6 0 0
BITMAP
F8
80
B8
B0
A8
04
ENDCHAR
STARTCHAR char8690
ENCODING 8690
SWIDTH 480 0
DWIDTH 5 0
BBX 6 6 1 -1
BITMAP
80
54
34
74
04
7C
ENDCHAR
STARTCHAR UPWARDS WHITE ARROW
ENCODING 8691
SWIDTH 480 0
DWIDTH 5 0
BBX 5 7 0 0
BITMAP
20
50
D8
50
D8
50
20
ENDCHAR
STARTCHAR char8592
ENCODING 8692
SWIDTH 480 0
DWIDTH 5 0
BBX 7 5 0 0
BITMAP
48
AC
FE
AC
48
ENDCHAR
STARTCHAR char8693
ENCODING 8693
SWIDTH 480 0
DWIDTH 5 0
BBX 6 6 0 0
BITMAP
48
E8
48
48
5C
48
ENDCHAR
STARTCHAR char8694
ENCODING 8694
SWIDTH 480 0
DWIDTH 5 0
BBX 5 7 1 -1
BITMAP
10
F8
10
F8
10
F8
10
ENDCHAR
STARTCHAR char8695
ENCODING 8695
SWIDTH 480 0
DWIDTH 5 0
BBX 6 3 0 0
BITMAP
50
FC
50
ENDCHAR
STARTCHAR char8696
ENCODING 8696
SWIDTH 480 0
DWIDTH 5 0
BBX 7 3 0 0
BITMAP
54
FE
54
ENDCHAR
STARTCHAR char8695
ENCODING 8697
SWIDTH 480 0
DWIDTH 5 0
BBX 6 3 0 0
BITMAP
54
FC
54
ENDCHAR
STARTCHAR char8695
ENCODING 8698
SWIDTH 480 0
DWIDTH 5 0
BBX 6 3 0 0
BITMAP
A8
FC
A8
ENDCHAR
STARTCHAR char8695
ENCODING 8699
SWIDTH 480 0
DWIDTH 5 0
BBX 7 3 0 0
BITMAP
54
FE
54
ENDCHAR
STARTCHAR char8695
ENCODING 8700
SWIDTH 480 0
DWIDTH 5 0
BBX 6 3 0 0
BITMAP
50
FC
50
ENDCHAR
STARTCHAR char8701
ENCODING 8701
SWIDTH 480 0
DWIDTH 5 0
BBX 6 3 0 1
BITMAP
40
BC
40
ENDCHAR
STARTCHAR char8702
ENCODING 8702
SWIDTH 480 0
DWIDTH 5 0
BBX 6 3 0 1
BITMAP
08
F4
08
ENDCHAR
STARTCHAR char8703
ENCODING 8703
SWIDTH 480 0
DWIDTH 5 0
BBX 6 3 0 1
BITMAP
48
B4
48
ENDCHAR
STARTCHAR char8704
ENCODING 8704
SWIDTH 480 0
DWIDTH 5 0
BBX 5 6 1 -1
BITMAP
88
88
70
50
20
20
ENDCHAR
STARTCHAR char8705
ENCODING 8705
SWIDTH 480 0
DWIDTH 5 0
BBX 5 7 1 -1
BITMAP
70
88
88
80
88
88
70
ENDCHAR
STARTCHAR char8706
ENCODING 8706
SWIDTH 480 0
DWIDTH 5 0
BBX 4 7 1 0
BITMAP
80
40
20
50
90
90
60
ENDCHAR
STARTCHAR char8707
ENCODING 8707
SWIDTH 480 0
DWIDTH 5 0
BBX 5 6 1 0
BITMAP
F8
08
78
08
08
F8
ENDCHAR
STARTCHAR char8708
ENCODING 8708
SWIDTH 480 0
DWIDTH 5 0
BBX 5 8 1 -1
BITMAP
10
F8
28
78
28
48
F8
40
ENDCHAR
STARTCHAR char8709
ENCODING 8709
SWIDTH 480 0
DWIDTH 5 0
BBX 7 6 0 0
BITMAP
38
46
4C
74
C4
38
ENDCHAR
STARTCHAR char8710
ENCODING 8710
SWIDTH 480 0
DWIDTH 5 0
BBX 6 5 0 0
BITMAP
10
28
28
44
7C
ENDCHAR
STARTCHAR char8711
ENCODING 8711
SWIDTH 480 0
DWIDTH 5 0
BBX 5 5 1 0
BITMAP
F8
88
50
50
20
ENDCHAR
STARTCHAR char8712
ENCODING 8712
SWIDTH 480 0
DWIDTH 5 0
BBX 5 7 1 -1
BITMAP
38
40
80
F0
80
40
38
ENDCHAR
STARTCHAR char8713
ENCODING 8713
SWIDTH 480 0
DWIDTH 5 0
BBX 5 8 1 -1
BITMAP
08
38
50
A0
F0
A0
40
78
ENDCHAR
STARTCHAR char8714
ENCODING 8714
SWIDTH 480 0
DWIDTH 5 0
BBX 4 5 1 0
BITMAP
70
80
E0
80
70
ENDCHAR
STARTCHAR char8715
ENCODING 8715
SWIDTH 480 0
DWIDTH 5 0
BBX 6 7 0 -1
BITMAP
70
08
04
3C
04
08
70
ENDCHAR
STARTCHAR char8716
ENCODING 8716
SWIDTH 480 0
DWIDTH 5 0
BBX 6 8 0 -1
BITMAP
80
70
48
24
3C
14
08
74
ENDCHAR
STARTCHAR char8717
ENCODING 8717
SWIDTH 480 0
DWIDTH 5 0
BBX 6 5 0 0
BITMAP
38
04
1C
04
38
ENDCHAR
STARTCHAR char8719
ENCODING 8719
SWIDTH 480 0
DWIDTH 5 0
BBX 5 5 1 0
BITMAP
F8
50
50
50
50
ENDCHAR
STARTCHAR char8720
ENCODING 8720
SWIDTH 480 0
DWIDTH 5 0
BBX 6 5 0 0
BITMAP
28
28
28
28
7C
ENDCHAR
STARTCHAR char8721
ENCODING 8721
SWIDTH 480 0
DWIDTH 5 0
BBX 5 7 0 -1
BITMAP
F8
88
40
20
40
88
F8
ENDCHAR
STARTCHAR char8722
ENCODING 8722
SWIDTH 480 0
DWIDTH 5 0
BBX 3 1 0 2
BITMAP
E0
ENDCHAR
STARTCHAR char8723
ENCODING 8723
SWIDTH 480 0
DWIDTH 5 0
BBX 3 5 0 -1
BITMAP
E0
00
40
E0
40
ENDCHAR
STARTCHAR char8724
ENCODING 8724
SWIDTH 480 0
DWIDTH 5 0
BBX 5 8 0 -1
BITMAP
20
70
20
20
20
F8
20
20
ENDCHAR
STARTCHAR DIVISION SLASH
ENCODING 8725
SWIDTH 480 0
DWIDTH 5 0
BBX 5 8 0 -1
BITMAP
08
10
10
20
20
40
40
80
ENDCHAR
STARTCHAR SET MINUS
ENCODING 8726
SWIDTH 480 0
DWIDTH 5 0
BBX 5 8 0 -1
BITMAP
80
40
40
20
20
10
10
08
ENDCHAR
STARTCHAR ASTERISK OPERATOR
ENCODING 8727
SWIDTH 480 0
DWIDTH 5 0
BBX 5 5 0 1
BITMAP
20
A8
70
A8
20
ENDCHAR
STARTCHAR RING OPERATOR
ENCODING 8728
SWIDTH 480 0
DWIDTH 5 0
BBX 3 3 1 2
BITMAP
40
A0
40
ENDCHAR
STARTCHAR BULLET OPERATOR
ENCODING 8729
SWIDTH 480 0
DWIDTH 5 0
BBX 2 2 2 3
BITMAP
C0
C0
ENDCHAR
STARTCHAR char8730
ENCODING 8730
SWIDTH 480 0
DWIDTH 5 0
BBX 7 7 0 -1
BITMAP
02
02
04
C4
28
28
10
ENDCHAR
STARTCHAR char8731
ENCODING 8731
SWIDTH 480 0
DWIDTH 5 0
BBX 7 8 0 -1
BITMAP
30
32
12
34
C4
28
28
10
ENDCHAR
STARTCHAR char8732
ENCODING 8732
SWIDTH 480 0
DWIDTH 5 0
BBX 7 7 0 -1
BITMAP
12
32
14
C4
28
28
10
ENDCHAR
STARTCHAR char8733
ENCODING 8733
SWIDTH 480 0
DWIDTH 5 0
BBX 4 3 0 1
BITMAP
D0
A0
D0
ENDCHAR
STARTCHAR char8734
ENCODING 8734
SWIDTH 480 0
DWIDTH 5 0
BBX 6 4 0 0
BITMAP
48
B4
B4
48
ENDCHAR
STARTCHAR RIGHT ANGLE
ENCODING 8735
SWIDTH 480 0
DWIDTH 5 0
BBX 5 5 0 0
BITMAP
80
80
80
80
F8
ENDCHAR
STARTCHAR ANGLE
ENCODING 8736
SWIDTH 480 0
DWIDTH 5 0
BBX 5 5 0 0
BITMAP
08
10
20
40
F8
ENDCHAR
STARTCHAR MEASURED ANGLE
ENCODING 8737
SWIDTH 480 0
DWIDTH 5 0
BBX 5 5 0 0
BITMAP
08
10
30
50
F8
ENDCHAR
STARTCHAR SPHERICAL ANGLE
ENCODING 8738
SWIDTH 480 0
DWIDTH 5 0
BBX 4 7 0 0
BITMAP
10
20
60
90
60
20
10
ENDCHAR
STARTCHAR DIVIDES
ENCODING 8739
SWIDTH 480 0
DWIDTH 5 0
BBX 1 9 2 -1
BITMAP
80
80
80
80
80
80
80
80
80
ENDCHAR
STARTCHAR DOES NOT DIVIDE
ENCODING 8740
SWIDTH 480 0
DWIDTH 5 0
BBX 3 9 1 -1
BITMAP
40
40
40
60
40
C0
40
40
40
ENDCHAR
STARTCHAR PARALLEL TO
ENCODING 8741
SWIDTH 480 0
DWIDTH 5 0
BBX 3 9 1 -1
BITMAP
A0
A0
A0
A0
A0
A0
A0
A0
A0
ENDCHAR
STARTCHAR NOT PARALLEL TO
ENCODING 8742
SWIDTH 480 0
DWIDTH 5 0
BBX 5 9 0 -1
BITMAP
50
50
50
58
70
D0
50
50
50
ENDCHAR
STARTCHAR LOGICAL AND
ENCODING 8743
SWIDTH 480 0
DWIDTH 5 0
BBX 5 6 0 0
BITMAP
20
20
50
50
88
88
ENDCHAR
STARTCHAR LOGICAL OR
ENCODING 8744
SWIDTH 480 0
DWIDTH 5 0
BBX 5 6 0 0
BITMAP
88
88
50
50
20
20
ENDCHAR
STARTCHAR INTERSECTION
ENCODING 8745
SWIDTH 480 0
DWIDTH 5 0
BBX 5 5 0 0
BITMAP
70
88
88
88
88
ENDCHAR
STARTCHAR UNION
ENCODING 8746
SWIDTH 480 0
DWIDTH 5 0
BBX 5 5 0 0
BITMAP
88
88
88
88
70
ENDCHAR
STARTCHAR INTEGRAL
ENCODING 8747
SWIDTH 480 0
DWIDTH 5 0
BBX 3 11 1 -2
BITMAP
20
40
40
40
40
40
40
40
40
40
80
ENDCHAR
STARTCHAR DOUBLE INTEGRAL
ENCODING 8748
SWIDTH 480 0
DWIDTH 5 0
BBX 5 11 0 -2
BITMAP
28
50
50
50
50
50
50
50
50
50
A0
ENDCHAR
STARTCHAR CONTOUR INTEGRAL
ENCODING 8750
SWIDTH 480 0
DWIDTH 5 0
BBX 5 11 0 -2
BITMAP
10
20
20
20
70
A8
70
20
20
20
40
ENDCHAR
STARTCHAR SURFACE INTEGRAL
ENCODING 8751
SWIDTH 480 0
DWIDTH 5 0
BBX 5 11 0 -2
BITMAP
28
50
50
50
70
D8
70
50
50
50
A0
ENDCHAR
STARTCHAR CLOCKWISE INTEGRAL
ENCODING 8753
SWIDTH 480 0
DWIDTH 5 0
BBX 6 11 0 -2
BITMAP
10
20
20
20
74
AC
3C
20
20
20
40
ENDCHAR
STARTCHAR CLOCKWISE CONTOUR INTEGRAL
ENCODING 8754
SWIDTH 480 0
DWIDTH 5 0
BBX 6 11 0 -2
BITMAP
10
20
20
20
74
AC
7C
20
20
20
40
ENDCHAR
STARTCHAR ANTICLOCKWISE CONTOUR INTEGRAL
ENCODING 8755
SWIDTH 480 0
DWIDTH 5 0
BBX 6 11 0 -2
BITMAP
10
20
20
20
7C
AC
74
20
20
20
40
ENDCHAR
STARTCHAR THEREFORE
ENCODING 8756
SWIDTH 480 0
DWIDTH 5 0
BBX 5 5 0 1
BITMAP
20
00
00
00
88
ENDCHAR
STARTCHAR BECAUSE
ENCODING 8757
SWIDTH 480 0
DWIDTH 5 0
BBX 5 5 0 1
BITMAP
88
00
00
00
20
ENDCHAR
STARTCHAR RATIO
ENCODING 8758
SWIDTH 480 0
DWIDTH 5 0
BBX 1 5 2 1
BITMAP
80
00
00
00
80
ENDCHAR
STARTCHAR PROPORTION
ENCODING 8759
SWIDTH 480 0
DWIDTH 5 0
BBX 5 5 0 1
BITMAP
88
00
00
00
88
ENDCHAR
STARTCHAR DOT MINUS
ENCODING 8760
SWIDTH 480 0
DWIDTH 5 0
BBX 5 3 0 3
BITMAP
20
00
F8
ENDCHAR
STARTCHAR EXCESS
ENCODING 8761
SWIDTH 480 0
DWIDTH 5 0
BBX 5 5 0 1
BITMAP
08
00
E0
00
08
ENDCHAR
STARTCHAR GEOMETRIC PROPORTION
ENCODING 8762
SWIDTH 480 0
DWIDTH 5 0
BBX 5 5 0 1
BITMAP
88
00
F8
00
88
ENDCHAR
STARTCHAR HOMOTHETIC
ENCODING 8763
SWIDTH 480 0
DWIDTH 5 0
BBX 5 6 0 1
BITMAP
20
00
68
B0
00
20
ENDCHAR
STARTCHAR TILDE OPERATOR
ENCODING 8764
SWIDTH 480 0
DWIDTH 5 0
BBX 5 2 0 3
BITMAP
68
B0
ENDCHAR
STARTCHAR REVERSED TILDE
ENCODING 8765
SWIDTH 480 0
DWIDTH 5 0
BBX 5 2 0 3
BITMAP
B0
68
ENDCHAR
STARTCHAR INVERTED LAZY S
ENCODING 8766
SWIDTH 480 0
DWIDTH 5 0
BBX 6 4 0 2
BITMAP
48
A4
94
48
ENDCHAR
STARTCHAR SINE WAVE
ENCODING 8767
SWIDTH 480 0
DWIDTH 5 0
BBX 5 5 0 1
BITMAP
40
A0
A8
28
10
ENDCHAR
STARTCHAR WREATH PRODUCT
ENCODING 8768
SWIDTH 480 0
DWIDTH 5 0
BBX 3 7 1 0
BITMAP
40
20
20
40
80
80
40
ENDCHAR
STARTCHAR NOT TILDE
ENCODING 8769
SWIDTH 480 0
DWIDTH 5 0
BBX 5 6 0 1
BITMAP
20
20
68
B0
20
20
ENDCHAR
STARTCHAR MINUS TILDE
ENCODING 8770
SWIDTH 480 0
DWIDTH 5 0
BBX 5 4 0 2
BITMAP
F8
00
68
B0
ENDCHAR
STARTCHAR ASYMPTOTICALLY EQUAL TO
ENCODING 8771
SWIDTH 480 0
DWIDTH 5 0
BBX 5 4 0 2
BITMAP
68
B0
00
F8
ENDCHAR
STARTCHAR NOT ASYMPTOTICALLY EQUAL TO
ENCODING 8772
SWIDTH 480 0
DWIDTH 5 0
BBX 5 6 0 1
BITMAP
20
68
B0
20
F8
20
ENDCHAR
STARTCHAR APPROXIMATELY EQUAL TO
ENCODING 8773
SWIDTH 480 0
DWIDTH 5 0
BBX 5 6 0 0
BITMAP
68
B0
00
F8
00
F8
ENDCHAR
STARTCHAR APPROXIMATELY BUT NOT ACTUALLY EQUAL TO
ENCODING 8774
SWIDTH 480 0
DWIDTH 5 0
BBX 5 7 0 -1
BITMAP
68
B0
00
F8
20
F8
20
ENDCHAR
STARTCHAR NEITHER APPROXIMATELY NOR ACTUALLY EQUAL TO
ENCODING 8775
SWIDTH 480 0
DWIDTH 5 0
BBX 5 8 0 -1
BITMAP
20
68
B0
20
F8
20
F8
20
ENDCHAR
STARTCHAR char8776
ENCODING 8776
SWIDTH 480 0
DWIDTH 5 0
BBX 5 5 0 0
BITMAP
08
70
88
70
80
ENDCHAR
STARTCHAR NOT ALMOST EQUAL TO
ENCODING 8777
SWIDTH 480 0
DWIDTH 5 0
BBX 5 6 0 0
BITMAP
20
68
B0
68
B0
20
ENDCHAR
STARTCHAR ALMOST EQUAL OR EQUAL TO
ENCODING 8778
SWIDTH 480 0
DWIDTH 5 0
BBX 5 6 0 0
BITMAP
68
90
68
90
00
F8
ENDCHAR
STARTCHAR TRIPLE TILDE
ENCODING 8779
SWIDTH 480 0
DWIDTH 5 0
BBX 5 6 0 0
BITMAP
68
90
68
90
68
90
ENDCHAR
STARTCHAR ALL EQUAL TO
ENCODING 8780
SWIDTH 480 0
DWIDTH 5 0
BBX 5 6 0 0
BITMAP
68
B0
00
F8
00
F8
ENDCHAR
STARTCHAR EQUIVALENT TO
ENCODING 8781
SWIDTH 480 0
DWIDTH 5 0
BBX 5 5 0 1
BITMAP
88
70
00
70
88
ENDCHAR
STARTCHAR GEOMETRICALLY EQUIVALENT TO
ENCODING 8782
SWIDTH 480 0
DWIDTH 5 0
BBX 5 5 0 1
BITMAP
20
D8
00
D8
20
ENDCHAR
STARTCHAR DIFFERENCE BETWEEN
ENCODING 8783
SWIDTH 480 0
DWIDTH 5 0
BBX 5 4 0 2
BITMAP
20
D8
00
F8
ENDCHAR
STARTCHAR APPROACHES THE LIMIT
ENCODING 8784
SWIDTH 480 0
DWIDTH 5 0
BBX 5 5 0 2
BITMAP
20
00
F8
00
F8
ENDCHAR
STARTCHAR GEOMETRICALLY EQUAL TO
ENCODING 8785
SWIDTH 480 0
DWIDTH 5 0
BBX 5 7 0 0
BITMAP
20
00
F8
00
F8
00
20
ENDCHAR
STARTCHAR APPROXIMATELY EQUAL TO OR THE IMAGE OF
ENCODING 8786
SWIDTH 480 0
DWIDTH 5 0
BBX 5 7 0 0
BITMAP
80
00
F8
00
F8
00
08
ENDCHAR
STARTCHAR IMAGE OF OR APPROXIMATELY EQUAL TO
ENCODING 8787
SWIDTH 480 0
DWIDTH 5 0
BBX 5 7 0 0
BITMAP
08
00
F8
00
F8
00
80
ENDCHAR
STARTCHAR COLON EQUALS
ENCODING 8788
SWIDTH 480 0
DWIDTH 5 0
BBX 5 3 0 2
BITMAP
B8
00
B8
ENDCHAR
STARTCHAR EQUALS COLON
ENCODING 8789
SWIDTH 480 0
DWIDTH 5 0
BBX 5 3 0 2
BITMAP
E8
00
E8
ENDCHAR
STARTCHAR char8790
ENCODING 8790
SWIDTH 480 0
DWIDTH 5 0
BBX 5 3 0 1
BITMAP
F8
50
F8
ENDCHAR
STARTCHAR RING EQUAL TO
ENCODING 8791
SWIDTH 480 0
DWIDTH 5 0
BBX 5 6 0 1
BITMAP
20
50
20
F8
00
F8
ENDCHAR
STARTCHAR CORRESPONDS TO
ENCODING 8792
SWIDTH 480 0
DWIDTH 5 0
BBX 5 6 0 1
BITMAP
70
88
00
F8
00
F8
ENDCHAR
STARTCHAR ESTIMATES
ENCODING 8793
SWIDTH 480 0
DWIDTH 5 0
BBX 5 6 0 1
BITMAP
20
50
00
F8
00
F8
ENDCHAR
STARTCHAR EQUIANGULAR TO
ENCODING 8794
SWIDTH 480 0
DWIDTH 5 0
BBX 5 6 0 1
BITMAP
50
20
00
F8
00
F8
ENDCHAR
STARTCHAR STAR EQUALS
ENCODING 8795
SWIDTH 480 0
DWIDTH 5 0
BBX 5 7 0 1
BITMAP
A8
70
A8
00
F8
00
F8
ENDCHAR
STARTCHAR DELTA EQUAL TO
ENCODING 8796
SWIDTH 480 0
DWIDTH 5 0
BBX 5 7 0 1
BITMAP
20
50
F8
00
F8
00
F8
ENDCHAR
STARTCHAR MEASURED BY
ENCODING 8798
SWIDTH 480 0
DWIDTH 5 0
BBX 5 6 0 1
BITMAP
F0
A8
00
F8
00
F8
ENDCHAR
STARTCHAR QUESTIONED EQUAL TO
ENCODING 8799
SWIDTH 480 0
DWIDTH 5 0
BBX 5 8 0 1
BITMAP
20
10
20
00
20
F8
00
F8
ENDCHAR
STARTCHAR char8800
ENCODING 8800
SWIDTH 480 0
DWIDTH 5 0
BBX 3 5 2 1
BITMAP
20
E0
40
E0
80
ENDCHAR
STARTCHAR IDENTICAL TO
ENCODING 8801
SWIDTH 480 0
DWIDTH 5 0
BBX 5 5 0 1
BITMAP
F8
00
F8
00
F8
ENDCHAR
STARTCHAR NOT IDENTICAL TO
ENCODING 8802
SWIDTH 480 0
DWIDTH 5 0
BBX 5 7 0 0
BITMAP
08
F8
10
F8
40
F8
80
ENDCHAR
STARTCHAR STRICTLY EQUIVALENT TO
ENCODING 8803
SWIDTH 480 0
DWIDTH 5 0
BBX 5 7 0 0
BITMAP
F8
00
F8
00
F8
00
F8
ENDCHAR
STARTCHAR char8804
ENCODING 8804
SWIDTH 480 0
DWIDTH 5 0
BBX 4 7 1 -1
BITMAP
20
40
80
40
20
00
F0
ENDCHAR
STARTCHAR char8805
ENCODING 8805
SWIDTH 480 0
DWIDTH 5 0
BBX 5 7 0 -1
BITMAP
20
10
08
10
20
00
78
ENDCHAR
STARTCHAR char8804
ENCODING 8806
SWIDTH 480 0
DWIDTH 5 0
BBX 4 9 1 -2
BITMAP
20
40
80
40
20
00
F0
00
F0
ENDCHAR
STARTCHAR char8805
ENCODING 8807
SWIDTH 480 0
DWIDTH 5 0
BBX 4 9 1 -2
BITMAP
40
20
10
20
40
00
F0
00
F0
ENDCHAR
STARTCHAR char8804
ENCODING 8808
SWIDTH 480 0
DWIDTH 5 0
BBX 4 10 1 -3
BITMAP
20
40
80
40
30
20
F0
60
F0
40
ENDCHAR
STARTCHAR char8804
ENCODING 8809
SWIDTH 480 0
DWIDTH 5 0
BBX 4 10 1 -3
BITMAP
40
20
10
20
C0
40
F0
60
F0
20
ENDCHAR
STARTCHAR char8804
ENCODING 8810
SWIDTH 480 0
DWIDTH 5 0
BBX 5 5 0 1
BITMAP
28
50
A0
50
28
ENDCHAR
STARTCHAR char8805
ENCODING 8811
SWIDTH 480 0
DWIDTH 5 0
BBX 5 5 1 1
BITMAP
A0
50
28
50
A0
ENDCHAR
STARTCHAR BETWEEN
ENCODING 8812
SWIDTH 480 0
DWIDTH 5 0
BBX 3 9 1 -1
BITMAP
A0
40
A0
A0
A0
A0
A0
40
A0
ENDCHAR
STARTCHAR NOT EQUIVALENT TO
ENCODING 8813
SWIDTH 480 0
DWIDTH 5 0
BBX 5 7 0 0
BITMAP
10
98
70
20
70
C8
40
ENDCHAR
STARTCHAR char8804
ENCODING 8814
SWIDTH 480 0
DWIDTH 5 0
BBX 4 5 0 1
BITMAP
10
30
60
60
90
ENDCHAR
STARTCHAR char8804
ENCODING 8815
SWIDTH 480 0
DWIDTH 5 0
BBX 4 5 0 1
BITMAP
80
C0
60
60
90
ENDCHAR
STARTCHAR char8804
ENCODING 8816
SWIDTH 480 0
DWIDTH 5 0
BBX 4 8 1 -2
BITMAP
20
40
A0
60
30
40
F0
40
ENDCHAR
STARTCHAR char8804
ENCODING 8817
SWIDTH 480 0
DWIDTH 5 0
BBX 4 8 1 -2
BITMAP
40
20
50
60
C0
20
F0
20
ENDCHAR
STARTCHAR char8804
ENCODING 8818
SWIDTH 480 0
DWIDTH 5 0
BBX 4 8 1 -2
BITMAP
20
40
80
40
20
00
50
A0
ENDCHAR
STARTCHAR char8805
ENCODING 8819
SWIDTH 480 0
DWIDTH 5 0
BBX 4 8 1 -2
BITMAP
40
20
10
20
40
00
50
A0
ENDCHAR
STARTCHAR char8804
ENCODING 8820
SWIDTH 480 0
DWIDTH 5 0
BBX 5 8 1 -2
BITMAP
28
50
90
60
30
40
50
A0
ENDCHAR
STARTCHAR char8804
ENCODING 8821
SWIDTH 480 0
DWIDTH 5 0
BBX 5 8 1 -2
BITMAP
A0
50
48
30
60
10
50
28
ENDCHAR
STARTCHAR char8804
ENCODING 8822
SWIDTH 480 0
DWIDTH 5 0
BBX 3 10 1 -2
BITMAP
20
40
80
40
20
80
40
20
40
80
ENDCHAR
STARTCHAR char8804
ENCODING 8823
SWIDTH 480 0
DWIDTH 5 0
BBX 3 10 1 -2
BITMAP
80
40
20
40
80
20
40
80
40
20
ENDCHAR
STARTCHAR char8804
ENCODING 8824
SWIDTH 480 0
DWIDTH 5 0
BBX 3 11 1 -2
BITMAP
40
60
40
C0
40
60
C0
40
60
40
C0
ENDCHAR
STARTCHAR char8804
ENCODING 8825
SWIDTH 480 0
DWIDTH 5 0
BBX 3 11 1 -2
BITMAP
40
C0
40
60
40
C0
60
40
C0
40
60
ENDCHAR
STARTCHAR char8804
ENCODING 8826
SWIDTH 480 0
DWIDTH 5 0
BBX 4 5 1 1
BITMAP
10
60
80
60
10
ENDCHAR
STARTCHAR char8805
ENCODING 8827
SWIDTH 480 0
DWIDTH 5 0
BBX 4 5 1 1
BITMAP
80
60
10
60
80
ENDCHAR
STARTCHAR char8804
ENCODING 8828
SWIDTH 480 0
DWIDTH 5 0
BBX 4 8 1 -2
BITMAP
10
60
80
60
10
80
60
10
ENDCHAR
STARTCHAR char8805
ENCODING 8829
SWIDTH 480 0
DWIDTH 5 0
BBX 4 8 1 -2
BITMAP
80
60
10
60
80
10
60
80
ENDCHAR
STARTCHAR char8804
ENCODING 8830
SWIDTH 480 0
DWIDTH 5 0
BBX 4 8 1 -2
BITMAP
10
60
80
60
10
00
50
A0
ENDCHAR
STARTCHAR char8805
ENCODING 8831
SWIDTH 480 0
DWIDTH 5 0
BBX 4 8 1 -2
BITMAP
80
60
10
60
80
00
50
A0
ENDCHAR
STARTCHAR char8804
ENCODING 8832
SWIDTH 480 0
DWIDTH 5 0
BBX 4 7 1 0
BITMAP
10
30
60
A0
60
90
80
ENDCHAR
STARTCHAR char8804
ENCODING 8833
SWIDTH 480 0
DWIDTH 5 0
BBX 4 7 1 0
BITMAP
80
C0
60
50
60
90
10
ENDCHAR
STARTCHAR SUBSET OF
ENCODING 8834
SWIDTH 480 0
DWIDTH 5 0
BBX 5 5 0 1
BITMAP
78
80
80
80
78
ENDCHAR
STARTCHAR SUPERSET OF
ENCODING 8835
SWIDTH 480 0
DWIDTH 5 0
BBX 5 5 0 1
BITMAP
F0
08
08
08
F0
ENDCHAR
STARTCHAR NOT A SUBSET OF
ENCODING 8836
SWIDTH 480 0
DWIDTH 5 0
BBX 5 9 0 -1
BITMAP
10
10
78
A0
A0
A0
78
40
40
ENDCHAR
STARTCHAR NOT A SUPERSET OF
ENCODING 8837
SWIDTH 480 0
DWIDTH 5 0
BBX 5 9 0 -1
BITMAP
10
10
F0
28
28
28
F0
40
40
ENDCHAR
STARTCHAR SUBSET OF OR EQUAL TO
ENCODING 8838
SWIDTH 480 0
DWIDTH 5 0
BBX 5 7 0 -1
BITMAP
78
80
80
80
78
00
F8
ENDCHAR
STARTCHAR SUPERSET OF OR EQUAL TO
ENCODING 8839
SWIDTH 480 0
DWIDTH 5 0
BBX 5 7 0 -1
BITMAP
F0
08
08
08
F0
00
F8
ENDCHAR
STARTCHAR NEITHER A SUBSET OF NOR EQUAL TO
ENCODING 8840
SWIDTH 480 0
DWIDTH 5 0
BBX 5 9 0 -1
BITMAP
10
10
78
A0
A0
A0
78
40
F8
ENDCHAR
STARTCHAR NEITHER A SUPERSET OF NOR EQUAL TO
ENCODING 8841
SWIDTH 480 0
DWIDTH 5 0
BBX 5 9 0 -1
BITMAP
10
10
F0
28
28
28
F0
40
F8
ENDCHAR
STARTCHAR SUBSET OF WITH NOT EQUAL TO
ENCODING 8842
SWIDTH 480 0
DWIDTH 5 0
BBX 5 8 0 -2
BITMAP
78
80
80
80
78
10
F8
40
ENDCHAR
STARTCHAR SUPERSET OF WITH NOT EQUAL TO
ENCODING 8843
SWIDTH 480 0
DWIDTH 5 0
BBX 5 8 0 -2
BITMAP
F0
08
08
08
F0
10
F8
40
ENDCHAR
STARTCHAR MULTISET
ENCODING 8844
SWIDTH 480 0
DWIDTH 5 0
BBX 5 7 0 0
BITMAP
A8
E8
F8
E8
A8
88
70
ENDCHAR
STARTCHAR MULTISET MULTIPLICATION
ENCODING 8845
SWIDTH 480 0
DWIDTH 5 0
BBX 5 7 0 0
BITMAP
88
88
88
A8
88
88
70
ENDCHAR
STARTCHAR MULTISET UNION
ENCODING 8846
SWIDTH 480 0
DWIDTH 5 0
BBX 5 7 0 0
BITMAP
88
88
A8
F8
A8
88
70
ENDCHAR
STARTCHAR SQUARE IMAGE OF
ENCODING 8847
SWIDTH 480 0
DWIDTH 5 0
BBX 5 5 0 1
BITMAP
F8
80
80
80
F8
ENDCHAR
STARTCHAR SQUARE ORIGINAL OF
ENCODING 8848
SWIDTH 480 0
DWIDTH 5 0
BBX 5 5 0 1
BITMAP
F8
08
08
08
F8
ENDCHAR
STARTCHAR SQUARE IMAGE OF OR EQUAL TO
ENCODING 8849
SWIDTH 480 0
DWIDTH 5 0
BBX 5 7 0 -1
BITMAP
F8
80
80
80
F8
00
F8
ENDCHAR
STARTCHAR SQUARE ORIGINAL OF OR EQUAL TO
ENCODING 8850
SWIDTH 480 0
DWIDTH 5 0
BBX 5 7 0 -2
BITMAP
F8
08
08
08
F8
00
F8
ENDCHAR
STARTCHAR SQUARE CAP
ENCODING 8851
SWIDTH 480 0
DWIDTH 5 0
BBX 5 5 0 1
BITMAP
F8
88
88
88
88
ENDCHAR
STARTCHAR SQUARE CUP
ENCODING 8852
SWIDTH 480 0
DWIDTH 5 0
BBX 5 5 0 1
BITMAP
88
88
88
88
F8
ENDCHAR
STARTCHAR CIRCLED PLUS
ENCODING 8853
SWIDTH 480 0
DWIDTH 5 0
BBX 5 5 0 1
BITMAP
70
A8
F8
A8
70
ENDCHAR
STARTCHAR CIRCLED MINUS
ENCODING 8854
SWIDTH 480 0
DWIDTH 5 0
BBX 5 5 0 1
BITMAP
70
88
F8
88
70
ENDCHAR
STARTCHAR CIRCLED TIMES
ENCODING 8855
SWIDTH 480 0
DWIDTH 5 0
BBX 5 5 0 1
BITMAP
70
D8
A8
D8
70
ENDCHAR
STARTCHAR CIRCLED DIVISION SLASH
ENCODING 8856
SWIDTH 480 0
DWIDTH 5 0
BBX 5 5 0 1
BITMAP
70
98
A8
C8
70
ENDCHAR
STARTCHAR CIRCLED DOT OPERATOR
ENCODING 8857
SWIDTH 480 0
DWIDTH 5 0
BBX 5 5 0 1
BITMAP
70
88
A8
88
70
ENDCHAR
STARTCHAR CIRCLED ASTERISK OPERATOR
ENCODING 8859
SWIDTH 480 0
DWIDTH 5 0
BBX 5 5 0 1
BITMAP
70
88
A8
88
70
ENDCHAR
STARTCHAR CIRCLED DASH
ENCODING 8861
SWIDTH 480 0
DWIDTH 5 0
BBX 5 5 0 1
BITMAP
70
88
F8
88
70
ENDCHAR
STARTCHAR SQUARED PLUS
ENCODING 8862
SWIDTH 480 0
DWIDTH 5 0
BBX 5 5 0 1
BITMAP
F8
A8
F8
A8
F8
ENDCHAR
STARTCHAR SQUARED MINUS
ENCODING 8863
SWIDTH 480 0
DWIDTH 5 0
BBX 5 5 0 1
BITMAP
F8
88
F8
88
F8
ENDCHAR
STARTCHAR SQUARED TIMES
ENCODING 8864
SWIDTH 480 0
DWIDTH 5 0
BBX 5 5 0 1
BITMAP
F8
D8
A8
D8
F8
ENDCHAR
STARTCHAR SQUARED DOT OPERATOR
ENCODING 8865
SWIDTH 480 0
DWIDTH 5 0
BBX 5 5 0 1
BITMAP
F8
88
A8
88
F8
ENDCHAR
STARTCHAR RIGHT TACK
ENCODING 8866
SWIDTH 480 0
DWIDTH 5 0
BBX 5 5 0 1
BITMAP
80
80
F8
80
80
ENDCHAR
STARTCHAR LEFT TACK
ENCODING 8867
SWIDTH 480 0
DWIDTH 5 0
BBX 5 5 0 1
BITMAP
08
08
F8
08
08
ENDCHAR
STARTCHAR DOWN TACK
ENCODING 8868
SWIDTH 480 0
DWIDTH 5 0
BBX 5 5 0 1
BITMAP
F8
20
20
20
20
ENDCHAR
STARTCHAR UP TACK
ENCODING 8869
SWIDTH 480 0
DWIDTH 5 0
BBX 5 5 0 1
BITMAP
20
20
20
20
F8
ENDCHAR
STARTCHAR ASSERTION
ENCODING 8870
SWIDTH 480 0
DWIDTH 5 0
BBX 3 5 1 1
BITMAP
80
80
E0
80
80
ENDCHAR
STARTCHAR MODELS
ENCODING 8871
SWIDTH 480 0
DWIDTH 5 0
BBX 3 5 1 1
BITMAP
80
E0
80
E0
80
ENDCHAR
STARTCHAR TRUE
ENCODING 8872
SWIDTH 480 0
DWIDTH 5 0
BBX 5 5 0 1
BITMAP
80
F8
80
F8
80
ENDCHAR
STARTCHAR FORCES
ENCODING 8873
SWIDTH 480 0
DWIDTH 5 0
BBX 5 5 0 1
BITMAP
A0
A0
B8
A0
A0
ENDCHAR
STARTCHAR TRIPLE VERTICAL BAR RIGHT TURNSTILE
ENCODING 8874
SWIDTH 480 0
DWIDTH 5 0
BBX 6 5 0 1
BITMAP
A8
A8
AC
A8
A8
ENDCHAR
STARTCHAR DOUBLE VERTICAL BAR DOUBLE RIGHT TURNSTILE
ENCODING 8875
SWIDTH 480 0
DWIDTH 5 0
BBX 5 5 0 1
BITMAP
A0
B8
A0
B8
A0
ENDCHAR
STARTCHAR DOES NOT PROVE
ENCODING 8876
SWIDTH 480 0
DWIDTH 5 0
BBX 5 5 0 1
BITMAP
90
90
F8
A0
A0
ENDCHAR
STARTCHAR NOT TRUE
ENCODING 8877
SWIDTH 480 0
DWIDTH 5 0
BBX 5 5 0 1
BITMAP
88
F8
90
F8
A0
ENDCHAR
STARTCHAR DOES NOT FORCE
ENCODING 8878
SWIDTH 480 0
DWIDTH 5 0
BBX 6 5 0 1
BITMAP
A8
A8
BC
B0
B0
ENDCHAR
STARTCHAR NEGATED DOUBLE VERTICAL BAR DOUBLE RIGHT TURNSTILE
ENCODING 8879
SWIDTH 480 0
DWIDTH 5 0
BBX 6 5 0 1
BITMAP
A4
BC
A8
BC
B0
ENDCHAR
STARTCHAR PRECEDES UNDER RELATION
ENCODING 8880
SWIDTH 480 0
DWIDTH 5 0
BBX 5 7 0 0
BITMAP
10
08
10
E0
10
08
10
ENDCHAR
STARTCHAR SUCCEEDS UNDER RELATION
ENCODING 8881
SWIDTH 480 0
DWIDTH 5 0
BBX 5 7 0 0
BITMAP
40
80
40
38
40
80
40
ENDCHAR
STARTCHAR NORMAL SUBGROUP OF
ENCODING 8882
SWIDTH 480 0
DWIDTH 5 0
BBX 5 5 0 1
BITMAP
18
68
88
68
18
ENDCHAR
STARTCHAR CONTAINS AS NORMAL SUBGROUP
ENCODING 8883
SWIDTH 480 0
DWIDTH 5 0
BBX 5 5 0 1
BITMAP
C0
B0
88
B0
C0
ENDCHAR
ENDFONT
